<?xml version="1.0" standalone="no"?>
<!DOCTYPE svg PUBLIC "-//W3C//DTD SVG 20010904//EN"
 "http://www.w3.org/TR/2001/REC-SVG-20010904/DTD/svg10.dtd">
<svg version="1.0" xmlns="http://www.w3.org/2000/svg"
 width="700.000000pt" height="700.000000pt" viewBox="0 0 700.000000 700.000000"
 preserveAspectRatio="xMidYMid meet">
<metadata>
Created by potrace 1.14, written by Peter Selinger 2001-2017
</metadata>
<g transform="translate(0.000000,700.000000) scale(0.100000,-0.100000)"
fill="#000000" stroke="none">
<path d="M1968 4635 c-2 -2 -47 -6 -102 -9 -54 -3 -108 -8 -120 -11 -11 -2
-46 -7 -76 -10 -287 -30 -656 -135 -850 -242 -137 -76 -266 -199 -318 -302
-123 -246 -26 -543 281 -860 81 -83 163 -145 234 -179 79 -37 185 -38 258 -2
72 34 173 141 310 325 191 258 283 358 464 504 91 73 213 164 249 186 10 6 19
12 22 15 9 9 113 77 275 179 211 134 219 141 212 191 -16 120 -82 164 -307
200 -64 11 -523 23 -532 15z"/>
<path d="M5557 4574 c-1 -1 -49 -5 -107 -8 -58 -3 -116 -8 -130 -11 -14 -3
-47 -7 -75 -10 -92 -10 -360 -60 -485 -90 -8 -2 -46 -11 -85 -20 -38 -9 -101
-25 -139 -36 -38 -12 -77 -22 -88 -24 -86 -17 -483 -152 -710 -241 -212 -84
-236 -94 -476 -210 -95 -46 -175 -84 -178 -84 -3 0 -17 -8 -32 -19 -15 -10
-81 -49 -147 -86 -151 -85 -331 -205 -470 -312 -125 -96 -304 -275 -389 -390
-146 -197 -209 -373 -201 -568 9 -246 141 -465 408 -677 92 -74 210 -158 221
-158 3 0 27 -13 53 -28 204 -119 461 -165 648 -118 215 55 410 211 571 457 45
69 158 284 196 374 30 70 126 345 134 379 11 58 61 191 100 269 143 287 434
556 809 748 80 41 237 106 410 169 154 56 285 103 290 104 6 1 27 10 49 19 21
9 42 17 46 17 5 0 64 21 132 46 67 25 155 57 193 71 39 13 80 29 93 34 12 5
34 14 50 20 60 24 78 36 89 60 20 41 -1 94 -60 154 -110 109 -298 164 -574
169 -79 1 -144 1 -146 0z"/>
</g>
</svg>
