<?xml version="1.0" standalone="no"?>
<!DOCTYPE svg PUBLIC "-//W3C//DTD SVG 20010904//EN"
 "http://www.w3.org/TR/2001/REC-SVG-20010904/DTD/svg10.dtd">
<svg version="1.0" xmlns="http://www.w3.org/2000/svg"
 width="700.000000pt" height="700.000000pt" viewBox="0 0 700.000000 700.000000"
 preserveAspectRatio="xMidYMid meet">
<metadata>
Created by potrace 1.14, written by Peter Selinger 2001-2017
</metadata>
<g transform="translate(0.000000,700.000000) scale(0.100000,-0.100000)"
fill="#000000" stroke="none">
<path d="M1968 4636 c-1 -2 -46 -6 -99 -10 -53 -4 -107 -9 -120 -11 -13 -2
-51 -6 -84 -10 -170 -19 -442 -80 -600 -135 -326 -115 -534 -287 -597 -493
-29 -96 -22 -230 17 -337 52 -141 160 -301 301 -444 142 -144 252 -207 361
-207 146 0 223 63 458 376 279 371 483 546 1048 895 106 66 155 108 158 135 4
32 -21 108 -43 132 -40 43 -108 65 -298 98 -36 7 -495 16 -502 11z"/>
<path d="M5510 4573 c-284 -22 -580 -71 -865 -144 -1156 -296 -2173 -838
-2590 -1379 -241 -313 -282 -644 -114 -925 37 -61 62 -95 154 -203 11 -13 56
-54 100 -90 44 -37 82 -69 85 -73 19 -23 218 -148 303 -188 161 -79 257 -103
407 -104 90 -1 143 4 190 16 221 60 409 214 576 474 58 89 160 289 189 368 10
28 21 55 25 60 9 14 81 225 124 365 90 295 259 525 541 740 219 167 402 260
780 395 149 53 293 105 320 116 28 10 163 60 300 110 138 49 260 97 273 105
55 36 46 105 -22 181 -104 115 -297 173 -591 177 -82 1 -166 0 -185 -1z"/>
</g>
</svg>
