<?xml version="1.0" encoding="UTF-8" standalone="no"?>
<svg id="svg9559" xmlns:rdf="http://www.w3.org/1999/02/22-rdf-syntax-ns#" xmlns="http://www.w3.org/2000/svg" height="292.7" width="186.6" version="1.0" xmlns:cc="http://creativecommons.org/ns#" xmlns:dc="http://purl.org/dc/elements/1.1/">
<title id="title3399">New England Distribution Map</title>
<metadata id="metadata3671">
<rdf:RDF>
<cc:Work rdf:about="">
<dc:format>image/svg+xml</dc:format>
<dc:type rdf:resource="http://purl.org/dc/dcmitype/StillImage"/>
<dc:title>New England Distribution Map</dc:title>
<dc:publisher>
<cc:Agent>
<dc:title>New England Wild Flower Society</dc:title>
</cc:Agent>
</dc:publisher>
</cc:Work>
</rdf:RDF>
</metadata>
<path id="CT_Hartford" style="stroke-linejoin:bevel;stroke:#000;stroke-width:.2910;fill:#fff" d="m46.64 239 13.48-3.187 1.26 3.082 5.166 11.02 0.09314 0.2066 0.1571 0.8672-1.35 1.051-1.638-2.046-3.257 1.077-2.215 1.048-0.5908 2.046-6.807-0.6693-2.349-5.599 1.761-0.7479 0.1543-6.533-3.777 1.193-0.09024-2.805">
<title id="title3184">Hartford County, CT</title>
</path>
<path id="CT_Litchfield" style="stroke-linejoin:bevel;stroke:#000;stroke-width:.2910;fill:#fff" d="m45.43 239.3 1.208-0.2735 0.09024 2.805 3.777-1.193-0.1543 6.533-1.761 0.7479 2.349 5.599-2.899 3.62-5.011 3.542-0.09018 0.5006 0.06116 0.3114 0.2385 0.2386 0.355 0.2212-0.05233 0.0786-0.3929 0.009-1.499-0.4016-2.203-0.7625-0.2445-0.4307-0.5268-0.8672-1.47-3.085-0.2357-0.2736-0.7625-0.157-2.57-14.27 11.79-2.494">
<title id="title2992">Litchfield County, CT</title>
</path>
<path id="CT_Fairfield" style="stroke-linejoin:bevel;stroke:#000;stroke-width:.2910;fill:#fff" d="m37.1 261.2-0.8905-5.195 0.7625 0.157 0.2357 0.2736 1.47 3.085 0.5267 0.8672 0.2445 0.4307 2.203 0.7625 1.499 0.4016 0.3929-0.009 0.05231-0.0787 1.021 0.3812 2.206 0.7217 4.877 3.452-0.09319 1.822-0.3405 0.7858-0.06682 0.3027 0.08166 1.787 0.07861 0.1775 0.4482 0.2795-1.892 0.5122-4.749 3.591-6.516 5.532-0.1601 0.3056-0.08169 0.4045-2.933-3.775 2.043-2.087 0.1747-0.1716 0.8905-6.059-0.4598-2.648-1.024-6.007">
<title id="title3266">Fairfield County, CT</title>
</path>
<path id="CT_New_Haven" style="stroke-linejoin:bevel;stroke:#000;stroke-width:.2910;fill:#fff" d="m57.75 254.2 0.9575 2.925 1.993 2.06 1.013-0.5005 0.3929 0.2501 1.219 1.377 3.277 4.068-1.443-0.0786-0.9167 0.2212-3.777 1.144-2.36 0.9924-1.286 0.1861-0.6053-0.7479-0.2212 0.0902-3.201 3.728-0.4336 0.6053-0.5122 0.9691-0.03481 0.1426v0.0407l-0.4482-0.2795-0.07854-0.1775-0.08162-1.787 0.06682-0.3027 0.3405-0.7858 0.09316-1.822-4.877-3.451-2.206-0.7217-1.021-0.3812-0.355-0.2212-0.2386-0.2386-0.06114-0.3114 0.09018-0.5006 5.011-3.542 2.899-3.62 6.807 0.6693">
<title id="title2997">New Haven County, CT</title>
</path>
<path id="CT_Middlesex" style="stroke-linejoin:bevel;stroke:#000;stroke-width:.2910;fill:#fff" d="m65.45 252 6.336 10.17-5.183 2.139-3.277-4.068-1.219-1.377-0.3929-0.2501-1.013 0.5006-1.993-2.06-0.9575-2.925 0.5908-2.046 2.215-1.048 3.257-1.077 1.638 2.046">
<title id="title3000">Middlesex County, CT</title>
</path>
<path id="CT_New_London" style="stroke-linejoin:bevel;stroke:#000;stroke-width:.2910;fill:#fff" d="m83.65 246.9 0.7101 10.53-3.475 0.972-7.072 3.277-1.481 0.5791-0.2765 0.0378-0.2734-0.0523-6.336-10.17 1.35-1.051 3.58-5.285 1.784 1.021 0.9575 0.4744 5.771-0.5791 2.453-1.007 1.892-0.3289 0.4162 1.574">
<title id="title3003">New London County, CT</title>
</path>
<path id="CT_Tolland" style="stroke-linejoin:bevel;stroke:#000;stroke-width:.2910;fill:#fff" d="m71.13 233.2 0.7305 2.529-2.59 0.6548-0.5646 0.1832 1.126 4.514 1.286 0.7334 1.126 1.825-0.7974 0.9429-1.065 1.077-3.58 5.285-0.1571-0.8672-0.09314-0.2066-5.166-11.02-1.26-3.082 10.09-2.389 0.9167-0.1805">
<title id="title3006">Tolland County, CT</title>
</path>
<path id="CT_Windham" style="stroke-linejoin:bevel;stroke:#000;stroke-width:.2910;fill:#fff" d="m79.47 231.9 2.954 10.3 0.8148 3.096-1.892 0.3289-2.453 1.007-5.771 0.5791-0.9575-0.4744-1.784-1.021 1.065-1.077 0.7974-0.9429-1.126-1.825-1.286-0.7334-1.126-4.514 0.5646-0.1832 2.59-0.6548-0.7305-2.529 1.155-0.2386 7.002-1.665 0.1832 0.55">
<title id="title3009">Windham County, CT</title>
</path>
<path id="MA_Worcester" style="stroke-linejoin:bevel;stroke:#000;stroke-width:.2910;fill:#fff" d="m70.13 206.9 0.1164 0.2619 2.02 2.058 1.353-0.3143 0.4365-0.3929 2.186 0.2736 1.074 0.131 4.002 1.627 0.422 0.777 0.1951 2.046 0.1048 2.095-0.3259 1.065-0.841 1.653 1.863 4.694 0.7334 0.6839 0.8672 0.2851 2.334 0.3696 0.7974 5.233-8 2.453-0.1832-0.55-7.002 1.665-1.155 0.2386-0.9167 0.1805-1.208-4.813-1.758 0.4715-1.915-0.4045-0.1281-0.4744 0.0091-0.2852 0.6926-1.772-3.419-2.951-0.486-1.929-0.1571-3.213 0.3259-1.953-0.5733-3.123-1.787-3.844 9.519-2.06 0.8032-0.1804">
<title id="title3012">Worcester County, MA</title>
</path>
<path id="MA_Middlesex" style="stroke-linejoin:bevel;stroke:#000;stroke-width:.2910;fill:#fff" d="m87.02 201.6 1.042 2.506 2.674 1.796 3.041 1.81 2.177 2.768-0.1571 1.01-0.6286 1.414-1.077 1.001-1.126 0.7188 0.1427 2.951-1.324-1.036-0.0786-0.0523-0.6693-0.0641-0.4569 0.0641-1.458 0.9836 0.3434 0.5384 0.6402 0.8381 0.3696 0.7887-0.6461 2.034-1.347 1.205-1.813 1.339-2.334-0.3696-0.8672-0.2852-0.7334-0.6839-1.863-4.694 0.841-1.653 0.3259-1.065-0.1048-2.095-0.195-2.046-0.422-0.777-4.002-1.627-1.074-0.1311-2.186-0.2736-0.4365 0.3929-1.353 0.3143-2.02-2.058-0.1164-0.2619 6.635-1.484 0.4074-0.0902 0.1164-0.0255 9.054-2.087 0.678-1.612">
<title id="title3015">Middlesex County, MA</title>
</path>
<path id="MA_Nantucket" style="stroke-linejoin:bevel;stroke:#000;stroke-width:.2910;fill:#fff" d="m132.5 245.4 0.2475-0.131 0.4365-0.5006 0.3143-0.5879 0.2096-0.7625-0.1281-0.7596-0.1486-0.2619-0.2881-0.2649-0.2649-0.2096-0.1542-0.1311-0.0254-0.1427 0.486 0.1048 0.5762 0.5093 2.491 2.823 0.1486 0.5238-0.016 0.3929-0.009 0.0785-0.1982 0.262-0.6432 0.486-0.355 0.1571-2.226 0.5122-0.6024 0.1164-1.551-0.1048-2.637-0.5238-0.3521-0.157-0.2501-0.2096-0.1455-0.3027 0.4074-0.1048 0.355 0.0785 0.1571 0.0523 1.377-0.0523 1.953-0.5093 0.841-0.3812">
<title id="title3018">Nantucket County, MA</title>
</path>
<path id="MA_Barnstable" style="stroke-linejoin:bevel;stroke:#000;stroke-width:.2910;fill:#fff" d="m115.3 230 0.1832 0.1949 0.5529 0.3929 0.7974 0.4453 0.7217 0.291 1.761 0.1832 1.056-0.0668 2.808-0.2881 3.792-2.334 1.403-0.9458 0.9196-0.8236 0.2823-0.617 0.0583-0.3172-0.3289-1.088-0.5122-1.339-0.2357-0.5238-0.8643-1.231-2.803-3.28-0.4365-0.3027-0.486-0.1832-0.7741-0.1832-0.195 0.0407-0.3667 0.2066-0.2006 0.1861-0.1571 0.2765-0.0902 0.4569 0.0254 0.1982-1.548-0.6024-0.0901-0.1076 0.1048-0.3783 0.2765-0.3027 0.4714-0.262 0.4569-0.1456 0.809-0.0786 1.301 0.0668 1.027 0.224 0.7828 0.3405 0.908 0.6286 0.8643 0.8643 1.088 1.26 0.8672 1.246 1.298 2.244 0.6199 1.234 0.8905 2.424 0.518 1.798 0.0932 0.8265-0.4307 3.582-0.2619 0.259-0.0901-2.491-0.0641-0.2096-0.1336-0.2357-0.6956-0.3288-0.3259-0.0786-0.1982 0.0406-8.344 3.722-0.3521 0.1602-6.076 5.259-0.9691 1.26-1.021-0.1048-0.6053-7.305 1.918-4.159">
<title id="title3021">Barnstable County, MA</title>
</path>
<path id="MA_Suffolk" style="stroke-linejoin:bevel;stroke:#000;stroke-width:.2910;fill:#fff" d="m95.95 210.5 1.327 0.5267 0.6141 4.406-4.787 2.162-0.1426-2.951 1.126-0.7188 1.077-1.001 0.6286-1.414 0.1571-1.01">
<title id="title3024">Suffolk County, MA</title>
</path>
<path id="MA_Bristol" style="stroke-linejoin:bevel;stroke:#000;stroke-width:.2910;fill:#fff" d="m90.91 229.8 7.005-6.19 2.11 4.601 2.351 4.278 2.791 1.088 1.246 0.8643 2.925 4.502-0.4976-0.0292-1.246 0.1832-0.5093 0.6693-0.3056 0.3958-0.0495 0.0901 0.0901 1.219 0.1281 0.4453 0.422 0.8672-2.413 2.255-2.284 0.6839-3.748-5.943-1.141-1.062-3.137-1.746-3.737-7.174">
<title id="title3027">Bristol County, MA</title>
</path>
<path id="MA_Plymouth" style="stroke-linejoin:bevel;stroke:#000;stroke-width:.2910;fill:#fff" d="m100.5 216.3 2.555-0.7887 1.339 0.1951 0.2649 0.0292 0.2211 0.1455 1.49 0.9953 3.376 3.751 4.889 6.452 0.4714 1.077 0.1748 1.825-1.918 4.159-4.039 4.761-2.925-4.502-1.246-0.8644-2.791-1.088-2.351-4.278-2.11-4.601 2.599-7.267">
<title id="title3030">Plymouth County, MA</title>
</path>
<path id="MA_Norfolk" style="stroke-linejoin:bevel;stroke:#000;stroke-width:.2910;fill:#fff" d="m97.9 215.4 2.613 0.9312-2.599 7.267-7.005 6.19-3.44-0.355-0.7974-5.233 1.813-1.339 1.347-1.205 0.6461-2.034-0.3696-0.7887-0.6402-0.8381-0.3434-0.5384 1.458-0.9836 0.4569-0.0641 0.6694 0.0641 0.0786 0.0523 1.324 1.036 4.787-2.162">
<title id="title3033">Norfolk County, MA</title>
</path>
<path id="MA_Essex" style="stroke-linejoin:bevel;stroke:#000;stroke-width:.2910;fill:#fff" d="m97.28 193.4 0.1951 0.7858 1.01 2.413 1.572 3.018 1.627 0.7218-2.622 5.442-1.781 5.198-1.327-0.5267-2.177-2.768-3.041-1.81-2.674-1.796-1.042-2.506 0.1748-0.3958 1.481-2.974 0.355-0.3696 0.6402-0.55 1.941-1.653 2.529-1.877h0.009l0.2155-0.0902 0.1832-0.0932 0.7974-0.0523 1.932-0.1164">
<title id="title3036">Essex County, MA</title>
</path>
<path id="MA_Hampden" style="stroke-linejoin:bevel;stroke:#000;stroke-width:.2910;fill:#fff" d="m65.9 226.1-0.6926 1.772-0.0091 0.2851 0.1281 0.4744 1.915 0.4045 1.758-0.4715 1.208 4.813-10.09 2.389-13.48 3.187-1.208 0.2735-1.024-1.848-0.131-0.3405-0.3143-1.668 1.024-0.0641-0.08162-4.159-0.5238-2.255 0.972-1.47 1.583-0.2619 0.358 0.224 0.7334 2.439-0.4191 0.7858 1.141 0.5791 2.544 0.3812 2.692-0.0407 2.241-1.665 4.892-2.023 4.787-1.743">
<title id="title3039">Hampden County, MA</title>
</path>
<path id="MA_Hampshire" style="stroke-linejoin:bevel;stroke:#000;stroke-width:.2910;fill:#fff" d="m62.48 223.2 3.419 2.951-4.787 1.743-4.892 2.023-2.241 1.665-2.692 0.0407-2.544-0.3812-1.141-0.5791 0.4191-0.7858-0.7334-2.439-0.358-0.2239-1.583 0.2619-0.972 1.47-0.0902 0.3143-0.5908 0.0254-1.141-0.5238-0.617-1.863v-0.3288l1.534-0.0255-0.1164-3.344-0.1832-2.808-0.3318-0.5355 3.454 1.941 4.572 0.1164 4.703-0.224 1.385-0.6024 3.19-0.2881 2.337 2.401">
<title id="title3042">Hampshire County, MA</title>
</path>
<path id="MA_Berkshire" style="stroke-linejoin:bevel;stroke:#000;stroke-width:.2910;fill:#fff" d="m33.4 214.8 6.504-1.406 2.936 6.469 0.3318 0.5355 0.1832 2.808 0.1164 3.344-1.534 0.0255v0.3288l0.617 1.863 1.141 0.5238 0.5908-0.0254 0.09018-0.3143 0.5238 2.255 0.08164 4.159-1.024 0.064 0.3143 1.668 0.131 0.3405 1.024 1.848-11.79 2.494-0.2619 0.0641-0.6286-1.272 0.4132-16.55 0.2415-9.22">
<title id="title3045">Berkshire County, MA</title>
</path>
<path id="MA_Franklin" style="stroke-linejoin:bevel;stroke:#000;stroke-width:.2910;fill:#fff" d="m55.08 210.1 4.723-1.01 1.787 3.844 0.5733 3.123-0.3259 1.953 0.1571 3.213 0.486 1.929-2.337-2.401-3.19 0.2881-1.385 0.6024-4.703 0.2239-4.572-0.1164-3.454-1.941-2.936-6.469 2.494-0.5238 12.68-2.715">
<title id="title3048">Franklin County, MA</title>
</path>
<path id="MA_Dukes" style="stroke-linejoin:bevel;stroke:#000;stroke-width:.2910;fill:#fff" d="m117.1 242.8 4.45 0.7858 0.3521 0.8527 0.3783 1.574-0.0255 0.2239-7.828 2.858-0.8148-0.6926 1.062-3.332 0.291-0.486 0.8119-0.9982 1.019-1.112 0.1601 0.009 0.1456 0.3143m-2.087-1.219-2.241 2.835-0.6577 0.745-1.836 1.443-0.9575 0.3027-0.259-0.0523 1.269-1.298 2.468-2.715 1.193-1.365 1.021 0.1048">
<title id="title3051">Dukes County, MA</title>
</path>
<path id="ME_Aroostook" style="stroke-linejoin:bevel;stroke:#000;stroke-width:.2910;fill:#fff" d="m112.6 51.46-1.944-6.321-22.43 6.426-7.543 2.124-0.5646-4.432-0.01244-0.1164 0.02911-0.09319 0.681-2.02 1.912-5.614 3.702-10.76 4.985-14.43 2.031-0.1688 2.415-0.05242 0.3667 0.1048 0.4424 0.6024 0.0932 0.1601-0.1832 0.2474-0.0254 0.04079-0.0524 0.876 1.312 4.226 0.3812 0.3405 0.2096 0.09311 3.923 1.283 1.007-0.876 2.73-2.599 3.015-2.741 4.645-4.054 0.6432-0.3667 1.219-0.3812 1.141-0.1048 0.4598 0.09312 2.098 0.7072 6.111 2.61 5.497 3.463 0.0786 0.1833 8.748 27.95 5.131 16.58-0.4103 0.614-0.0255 0.355 0.8265 3.713 0.4453 0.3667-5.649 3.318-4.843 2.794-0.009 0.1311 0.0641 0.195-1.788 1.013-1.889 1.048-0.5879-0.0902-1.77-6.01-0.422-1.769-0.8119-2.884-0.7887-2.494-4.892-15.62-6.597 1.441-3.105 0.8905">
<title id="title3054">Aroostook County, ME</title>
</path>
<path id="ME_Piscataquis" style="stroke-linejoin:bevel;stroke:#000;stroke-width:.2910;fill:#fff" d="m112.6 51.46 1.467 5.247 2.622 8.946 3.28 11.41-3.16 1.796 1.455 5.43 2.546-1.327 5.099 9.72-1.01 4.118-7.107 3.713-4.895 2.479-3.606 2.951-2.517 1.26-1.784-2.977-7.727-15.08-0.9545-8.029 1.059-4.525-2.177-3.961-1.758-1.993-3.646-12.5-1.557-6.574 22.43-6.426 1.944 6.321">
<title id="title3057">Piscataquis County, ME</title>
</path>
<path id="ME_Knox" style="stroke-linejoin:bevel;stroke:#000;stroke-width:.2910;fill:#fff" d="m138.3 135.5-0.3667 0.8149-0.2475 0.224-1.077 0.5879-0.2881 0.0668-0.4831-0.1456-2.203-2.372-0.0698-0.1047 0.0553-0.7101 0.2765-0.7741 1.441-1.784 0.5355-0.288 0.2096 0.157 2.299 3.332 0.1397 0.3026-0.1077 0.4947-0.1135 0.1982m-18.99-5.233 0.2357-0.6286 2.989-1.732 5.969 2.465 1.324 0.6955-0.2476 2.625-0.0197 0.1542 0.0197 0.1601 0.4162 1.403 0.3929 0.9574 0.9604 0.8003-2.794 4.237-2.06 1.31-2.52 0.4482 0.1747-2.165 1.1-1.758-1.179-2.701-1.682-2.509-0.8527 0.3958-0.9167 0.0668-0.8643-0.3812-0.8032-1.17-0.5762-1.848 0.2649-0.4831 0.6694-0.3434">
<title id="title3060">Knox County, ME</title>
</path>
<path id="ME_Lincoln" style="stroke-linejoin:bevel;stroke:#000;stroke-width:.2910;fill:#fff" d="m112.2 139.7 2.808-0.128-1.312-3.74-0.1456-2.008 2.835-0.0757 0.2212-0.2096 0.2649-0.6955-0.2649-2.349 2.666-0.1981-0.6693 0.3434-0.2649 0.4831 0.5762 1.848 0.8032 1.17 0.8643 0.3812 0.9167-0.0668 0.8527-0.3958 1.682 2.509 1.179 2.701-1.1 1.758-0.1748 2.165-0.681-0.0785-0.5238-0.0668-0.4045 0.5238-0.1135 0.131-0.0197 0.8818 0.1832 1.455-0.4569 2.701-0.224 0.3143-3.463 1.548-0.8265 0.2619h-0.6169l-4.589-11.16">
<title id="title3063">Lincoln County, ME</title>
</path>
<path id="ME_Sagadahoc" style="stroke-linejoin:bevel;stroke:#000;stroke-width:.2910;fill:#fff" d="m112.2 139.7 4.589 11.16-4.237 2.913-0.5878-2.805-1.35-2.494-0.5791 0.7334-1.519-0.009-1.211-0.7101-0.5879-0.8381-0.7712-5.599 1.991-0.1311 0.8934-0.6984 0.0641-0.8905 0.0523-0.2619 0.2357-0.4336 0.195-0.2476 2.544-0.1456 0.2006 0.2501 0.0786 0.2066">
<title id="title3066">Sagadahoc County, ME</title>
</path>
<path id="ME_Cumberland" style="stroke-linejoin:bevel;stroke:#000;stroke-width:.2910;fill:#fff" d="m94.61 148.9-0.016 0.0786 0.0787 0.1164 0.972 0.3929 1.484 0.2386 8.21 1.086 0.7072-0.9691 0.7217-2.124 0.5878 0.8381 1.211 0.7101 1.519 0.009 0.5791-0.7334 1.35 2.494 0.5878 2.805-1.743 0.8527-1.362-0.8265-0.6693-1.929-0.2531-0.1805-0.2357 0.0902-2.544 3.329-1.033 1.799-0.7101 2.925v0.2501l0.5238 0.55 0.1455 3.725-1.839 1.574-1.164-0.3929-3.175-1.196 0.5355-1.534-3.143-2.005-7.06-1.903 0.3027-5.85 1.679-4.406 0.4307 0.681 0.7101 0.6577 0.1832 0.0902 1.024 0.157 1.406-1.403">
<title id="title3069">Cumberland County, ME</title>
</path>
<path id="ME_York" style="stroke-linejoin:bevel;stroke:#000;stroke-width:.2910;fill:#fff" d="m88.87 158.9 7.06 1.903 3.143 2.005-0.5355 1.534 3.175 1.196 1.164 0.3929-0.1164 2.61-3.163 14.75-0.3521 1.589-0.131 0.262-0.6984 0.6024-3.67-1.47-1.019-4.092-0.0817-0.0901-3.172-1.892-1.315-0.6548-0.4831-0.2501-0.7625-1.059-0.2476-0.5267-0.2006-0.8382-0.4569-5.116-3.306-8.617 5.169-2.244">
<title id="title3072">York County, ME</title>
</path>
<path id="ME_Androscoggin" style="stroke-linejoin:bevel;stroke:#000;stroke-width:.2910;fill:#fff" d="m96.57 131.6 2.532-1.825 1.758 3.475 2.477 6.321 2.654 2.456 0.7712 5.599-0.7217 2.124-0.7072 0.9691-8.21-1.086-1.484-0.2386-0.972-0.3929-0.0785-0.1164 0.016-0.0785-0.422-0.9982 2.413-6.53 0.2476-1.118v-4.907l-0.8643-1.793-0.1455-0.9604 0.7363-0.9022">
<title id="title3075">Androscoggin County, ME</title>
</path>
<path id="ME_Oxford" style="stroke-linejoin:bevel;stroke:#000;stroke-width:.2910;fill:#fff" d="m73.37 106.7 2.046 4.749 0.5762 4.159 4.188 9.848 3.329-3.382 4.368 5.363 6.493 0.4598 1.443 2.177 0.7596 1.537-0.7363 0.9022 0.1456 0.9604 0.8643 1.793v4.907l-0.2476 1.118-2.413 6.53 0.422 0.9982-1.406 1.403-1.024-0.157-0.1832-0.0902-0.7101-0.6577-0.4307-0.681-1.679 4.406-0.3027 5.85-5.169 2.244-5.361-17.75-4.921-15.65-0.3929-1.26-5.55-16.74-1.01-2.884 1.798-1.01 3.62 2.005 0.3667 0.1832 0.7625 0.009h0.0091l0.3143-0.2881 0.05525-0.1427-0.02911-0.9196">
<title id="title3078">Oxford County, ME</title>
</path>
<path id="ME_Kennebec" style="stroke-linejoin:bevel;stroke:#000;stroke-width:.2910;fill:#fff" d="m103 123.9 2.805-0.6694 5.905-0.486 0.2998-0.3521-0.1336-1.641-0.8905-0.6548-0.3521-0.1047-0.4598-0.4744-0.3027-0.6286-0.131-0.3929 3.62-1.825 0.3667-0.009 0.1862 0.3405 0.0348 0.5762 0.7945 1.574 1.778-0.2476 1.525 3.344 0.3027 3.291-1.342 0.1311-0.3288 4.828 0.2649 2.349-0.2649 0.6956-0.2212 0.2096-2.835 0.0757 0.1456 2.008 1.312 3.74-2.808 0.1281-0.0787-0.2065-0.2006-0.2501-2.544 0.1456-0.195 0.2475-0.2357 0.4336-0.0523 0.2619-0.0641 0.8905-0.8934 0.6984-1.991 0.131-2.654-2.456-2.477-6.321-1.758-3.475 3.871-5.902">
<title id="title3081">Kennebec County, ME</title>
</path>
<path id="ME_Waldo" style="stroke-linejoin:bevel;stroke:#000;stroke-width:.2910;fill:#fff" d="m118.9 115 1.496-0.7363 1.458 2.925 8.262-4.682 0.7479 0.4976-0.1862 2.337 0.0553 0.2096 0.1659 0.2357 0.6868 0.4307 0.8818 0.777 0.9807 2.596 0.1427 0.7217 0.0255 0.2096-0.326 0.195-2.817 2.008-1.17 0.8265-0.0932 0.4744 0.3521 0.6024 0.2531 0.3405 0.3521 0.0932 0.224 0.1832 0.5384 0.5879 0.1687 1.193v0.3812l-1.246 3.673-1.324-0.6956-5.969-2.465-2.989 1.732-0.2356 0.6286-2.666 0.1982 0.3289-4.828 1.342-0.1311-0.3027-3.291-1.525-3.344-1.778 0.2476-0.7945-1.574 4.959-2.555">
<title id="title3084">Waldo County, ME</title>
</path>
<path id="ME_Hancock" style="stroke-linejoin:bevel;stroke:#000;stroke-width:.2910;fill:#fff" d="m138.6 126.6 0.1311-0.0524 0.224 0.064 1.377 0.4074 0.422 0.3026 0.2998 0.4569 0.195 1.889-0.3638 1.036-0.5413 0.9051-0.0787 0.0786-0.1832 0.0125-1.152-0.617-0.1716-0.2096-0.6024-1.796-0.0378-0.1456 0.0495-0.2096 0.1716-0.0668 0.2357-0.2765 0.224-1.164v-0.2649l-0.0668-0.2327-0.1311-0.1193m7.177-5.719 1.394-1.062 1.173-0.6693 1.525-0.1456 0.0255 0.0254 0.5093 0.5238 0.5268 0.841 0.195 0.5384-0.2211 0.8905-0.0122 0.0407-0.1048 0.1047-0.7596 0.8643-1.077 0.3143-0.3143 0.291-0.1427 0.3405 0.0841 0.3521 0.0727 0.1164 0.0787 0.0292 0.2619 0.4715-0.4453 1.021-0.5413 0.2501-1.912-0.5879-0.7101-0.6577-0.55-0.7858-0.1427-0.5006 0.1687-1.074 0.6548-1.167 0.2649-0.3667m-14.94-7.846 0.7363-0.3259 1.414-0.7887 0.6461-1.193 1.688-1.26 4.121-2.124-2.782-5.588-0.9836-1.822 3.056-1.563 1.577-4.485-2.168-4.106 5.916-3.094 2.334 4.391 1.941 4.132 0.4482 1.877-2.558 1.336 3.28 5.916 1.874 2.835 0.8003 2.02 0.1164 1.152 1.612 2.887 0.777 1.377 0.7217 1.129 0.3405 0.3667 0.0523 0.6432-0.3026 0.5646-0.1832 0.0495-0.1426-0.131-0.291-0.2476-0.3259 0.4831-0.1048 0.7246-0.0932 0.5093-0.0379 0.6693-0.0125 0.2096v0.3027l-0.2997 0.0407h-0.0122l-0.1981-0.0785-1.478-1.496-0.4103-0.5267-0.6664-1.519-0.1456-0.5122 0.0255-0.3288-0.1456-0.2357-0.1832-0.1048-0.7479 0.0932-1.019 0.2096-0.9109 0.1832-0.9284 0.4045-0.1456 1.324-0.9837 0.972-0.8789 0.6053-0.5908 0.5238-0.4452 0.8643-0.1164 0.0932-0.1747 0.0378-0.1949-0.131-0.2357-0.9051-0.0611-0.4831-0.3463-0.2386-0.2357 0.0125-0.1542 0.1164-0.0961 0.1981-0.0233 0.2619 0.3783 0.9313 0.3172 1.141-0.1047 0.0932-0.3318 0.0641-0.2357-0.3259-0.0348-0.355-0.6694-0.4598-0.7101 0.8556-0.3987 1.036 0.4249 2.11 0.0641 0.1571 0.1047 0.157 0.2765 0.2096 0.4744-0.1047 0.2735 0.288 0.5908 0.8149 0.0407 0.1832 0.1687 0.9051 0.0407 0.3143h-0.2591l-0.5035-0.131-0.0233-0.0668-0.3958-0.2619-1.336-0.6402-0.8149-0.2125-2.829-0.55-1.17 0.3812-0.4715 0.6402-0.8847 0.0932-0.0757-0.1571-0.8149-3.385-0.0255-0.7334 0.0698-0.0931 0.2096-0.2619 0.1018-1.115-0.0495-0.4191-0.3056 0.1832-0.0255-0.2096-0.1427-0.7218-0.9808-2.596-0.8818-0.777-0.6868-0.4307-0.1659-0.2357-0.0552-0.2096 0.1861-2.337">
<title id="title3087">Hancock County, ME</title>
</path>
<path id="ME_Washington" style="stroke-linejoin:bevel;stroke:#000;stroke-width:.2910;fill:#fff" d="m145.7 69.49 8.83 0.4074 0.3027-0.2125 0.5238-0.1833 0.1687 0.02542 0.8672 0.6548 0.1311 0.2357 2.177 6.888 0.2096 1.324-0.2998 1.784-0.1075 0.1832-0.4366 0.3667 0.0322 0.3958 1.059 1.126 2.351 2.36 1.545 0.8148 0.0523 0.0254 0.0932 0.0406 0.2735 0.0641 0.1312-0.0254 0.6577-0.9575-0.1047-0.6169v-1.036l0.131-0.2096 0.326-0.0669 3.096 0.1456h0.0125l1.152 0.841 0.6461 0.5762 5.547 6.755 0.5762 1.129 0.6955 1.665 0.0524 0.2619-0.6926 1.679-2.296 4.735-0.6053 1.129-1.743 1.915-0.9866 0.2096-3.591 1.717-8.603 9.458-1.039 0.5384-0.8789 0.3929-0.2357 0.0786-0.3406-0.3667-0.7217-1.129-0.777-1.377-1.612-2.887-0.1164-1.152-0.8002-2.02-1.874-2.835-3.28-5.916 2.558-1.336-0.4484-1.877-1.941-4.132-2.334-4.392 0.7363-0.2881 2.095-1.051-1.35-2.977-5.465-9.563 5.649-3.318">
<title id="title3090">Washington County, ME</title>
</path>
<path id="ME_Penobscot" style="stroke-linejoin:bevel;stroke:#000;stroke-width:.2910;fill:#fff" d="m140.1 72.81 5.465 9.563 1.35 2.977-2.095 1.051-0.7363 0.288-5.916 3.094 2.168 4.106-1.577 4.485-3.056 1.563 0.9837 1.822 2.782 5.588-4.121 2.124-1.688 1.26-0.6461 1.193-1.414 0.7887-0.7363 0.3259-0.7479-0.4976-8.262 4.682-1.458-2.925-1.496 0.7363-5.943-12.04 4.895-2.48 7.107-3.713 1.01-4.118-5.099-9.72-2.546 1.327-1.455-5.43 3.16-1.796-3.28-11.41-2.622-8.946-1.467-5.247 3.105-0.8905 6.597-1.441 4.892 15.62 0.7887 2.494 0.812 2.884 0.422 1.769 1.769 6.01 0.5879 0.0901 1.889-1.048 1.787-1.013-0.0641-0.195 0.009-0.1311 4.843-2.794">
<title id="title3093">Penobscot County, ME</title>
</path>
<path id="ME_Franklin" style="stroke-linejoin:bevel;stroke:#000;stroke-width:.2910;fill:#fff" d="m76.55 90.3 3.466 7.476 5.049 10.3 3.265-0.131 2.951-0.8119 0.5762-0.3027 9.633 14.75 1.481 2.337-3.871 5.902-2.532 1.825-0.7596-1.537-1.443-2.177-6.493-0.4598-4.368-5.364-3.329 3.382-4.188-9.848-0.5762-4.159-2.046-4.749-0.02546-1.257-0.02546-1.208 0.3521-7.476 0.3667-2.005 0.2386-0.4744 0.2735-0.55 0.6461-1.167 0.9924-1.822 0.08164-0.1336 0.2851-0.3405">
<title id="title3096">Franklin County, ME</title>
</path>
<path id="ME_Somerset" style="stroke-linejoin:bevel;stroke:#000;stroke-width:.2910;fill:#fff" d="m88.27 51.56 1.557 6.574 3.646 12.5 1.758 1.993 2.177 3.961-1.059 4.525 0.9545 8.029 7.727 15.08 1.784 2.977 2.517-1.26 3.606-2.951 5.943 12.04-4.959 2.555-0.0348-0.5762-0.1861-0.3405-0.3667 0.009-3.62 1.825 0.1311 0.3929 0.3027 0.6286 0.4598 0.4744 0.3521 0.1048 0.8905 0.6548 0.1336 1.641-0.2998 0.3521-5.905 0.486-2.805 0.6694-1.481-2.337-9.633-14.75-0.5762 0.3027-2.951 0.812-3.265 0.131-5.049-10.3-3.466-7.476 0.2125-0.2619 1.458-1.746 3.385-8.183 0.06116-0.6024-0.06116-1.563-0.4074-0.3143-0.4191-0.1951h-1.26l-0.486-1.603-0.422-1.755-0.812-4.709 0.3289-2.546 0.4074-3.056 0.01244-0.0378 0.2851-0.8148 0.2531-0.3929 0.03479-0.02517 0.06976-0.0378 0.8241-0.605 1.455-2.255-0.2997-2.401-0.4453-3.504 7.543-2.124">
<title id="title3099">Somerset County, ME</title>
</path>
<path id="NH_Coos" style="stroke-linejoin:bevel;stroke:#000;stroke-width:.2910;fill:#fff" d="m66.47 106.9 1.01 2.884 5.55 16.74 0.3929 1.26 4.921 15.65-0.3842 1.927-7.488 4.802-1.967-1.283-1.062-1.155-0.7887-0.2096-3.486-0.8265-2.881-0.486-2.695-2.008 0.5617 0.0524 0.841-0.617 0.06682-0.1018 0.3667-0.4744 0.1542-0.2239 0.1075-0.1688 1.298-2.282 0.131-0.224v-0.009l0.3027-0.841 0.3521-3.265-0.681-1.1-0.1164-0.1862-0.6577-0.8149-1.205-1.481-0.9865-0.972-0.2212-0.6257 0.03784-9.211 0.6315-1.298-0.2212-2.229 0.6286-6.781 2.11-2.756 0.291-0.2065 0.5617 0.288 0.2357 0.4686 0.1193 0.1336 0.841 0.4191 1.377 0.0932 1.152-0.2385 0.1716-0.1426 0.6286-2.491">
<title id="title3102">Coos County, NH</title>
</path>
<path id="NH_Grafton" style="stroke-linejoin:bevel;stroke:#000;stroke-width:.2910;fill:#fff" d="m55.83 146.5 1.758-2.282 2.695 2.008 2.881 0.486 3.486 0.8265 0.7887 0.2096 1.062 1.155 1.289 1.86 1.886 2.872 1.088 5.692-5.075 2.203 1.478 3.385 0.5908 1.062 0.9196 2.401-3.134 2.232-0.9837 4.051-1.51 0.486-2.136-1.403-0.7741 1.638-0.6955 1.979-1.723 0.1336-3.012 0.1164-3.056-0.4715-3.254 0.2619 1.665-7.069 0.7217-15.14-0.4453-0.355-0.4889-0.6577-0.8614-3.003v-0.2357l0.09024-0.3812 0.8789-1.586 0.08162-0.0641 0.1367-0.131 1.816-1.129 1.836-1.155">
<title id="title3105">Grafton County, NH</title>
</path>
<path id="NH_Strafford" style="stroke-linejoin:bevel;stroke:#000;stroke-width:.2910;fill:#fff" d="m81.61 171.6 0.6141-1.484 1.062 2.296 2.989-0.9167 0.7363-1.705 0.4569 5.116 0.2006 0.8381 0.2476 0.5268 0.7625 1.059 0.4831 0.2501 1.315 0.6548 3.172 1.892 0.0817 0.0901 1.019 4.092-0.8265 1.615-0.2357 0.3405-5.233 1.353 0.6693-2.378-7.136-3.396 0.1981-0.4714 1.298-3.123-1.298-2.913-1.062-2.558 0.486-1.179">
<title id="title3108">Strafford County, NH</title>
</path>
<path id="NH_Rockingham" style="stroke-linejoin:bevel;stroke:#000;stroke-width:.2910;fill:#fff" d="m98.42 185.8-1.135 7.648-1.932 0.1164-0.7974 0.0524-0.1832 0.0932-0.2155 0.0902h-0.009l-2.529 1.877-1.941 1.653-0.6402 0.55-0.355 0.3696-1.481 2.974-3.096-0.3405-2.61-1.601-0.9196-2.046-0.6548-1.429 0.8148-3.265 1.257-10.68 7.136 3.396-0.6693 2.378 5.233-1.353 0.2357-0.3405 0.8265-1.615 3.67 1.47">
<title id="title3111">Rockingham County, NH</title>
</path>
<path id="NH_Cheshire" style="stroke-linejoin:bevel;stroke:#000;stroke-width:.2910;fill:#fff" d="m51.24 194.2 0.777 0.7974 1.612-0.2734 0.07861-0.9575 0.6955-0.4336 4.458-1.889-0.1336 1.312 0.02915 0.6664 3.737-0.8381 0.4977 4.147 0.5908 2.741 1.496-0.355 3.099 5.247 1.15 2.686-9.519 2.06-4.723 1.01-3-2.413-0.777-1.668-0.1193-0.3783 1.708-5.85-0.7159-4.013-0.0584-0.224-0.8818-1.377">
<title id="title3114">Cheshire County, NH</title>
</path>
<path id="NH_Sullivan" style="stroke-linejoin:bevel;stroke:#000;stroke-width:.2910;fill:#fff" d="m50.4 177.4 3.254-0.2619 3.056 0.4714 3.012-0.1164 1.723-0.1336-1.819 5.064-0.3172 3.504 1.283 2.293 0.9313 1.01 1.182 1.065-0.2126 2.346-3.737 0.8381-0.02911-0.6664 0.1336-1.312-4.458 1.889-0.6955 0.4336-0.07854 0.9575-1.612 0.2734-0.777-0.7974-0.1048-2.768 0.1192-3.28-0.5617-1.47-1.301-5.98 1.01-3.358">
<title id="title3117">Sullivan County, NH</title>
</path>
<path id="NH_Hillsborough" style="stroke-linejoin:bevel;stroke:#000;stroke-width:.2910;fill:#fff" d="m62.71 190.3 2.346-1.365 7.005 0.2998 5.102 2.73 3.571 0.5908-0.8149 3.265 0.6548 1.429 0.9196 2.046 2.61 1.601 3.096 0.3405-0.1747 0.3958-0.6781 1.612-9.054 2.087-0.1164 0.0255-0.4074 0.0902-6.635 1.484-0.8032 0.1804-1.15-2.686-3.099-5.247-1.496 0.355-0.5908-2.741-0.4976-4.147 0.2125-2.346">
<title id="title3120">Hillsborough County, NH</title>
</path>
<path id="NH_Belknap" style="stroke-linejoin:bevel;stroke:#000;stroke-width:.2910;fill:#fff" d="m69.76 165.9 2.308 1.443 6.664 3.699 2.875 0.5122-0.486 1.179 1.062 2.558 1.298 2.913-1.298 3.123-3.53-1.47-6.283-2.468-1.231 1.013-0.3405-0.0406-2.337-1.863-0.4598-0.4336-1.441-1.481 0.9837-4.051 3.134-2.232-0.9196-2.401">
<title id="title3123">Belknap County, NH</title>
</path>
<path id="NH_Merrimack" style="stroke-linejoin:bevel;stroke:#000;stroke-width:.2910;fill:#fff" d="m66.56 174.6 1.441 1.481 0.4598 0.4336 2.337 1.863 0.3405 0.0406 1.231-1.013 6.283 2.468 3.53 1.47-0.1981 0.4714-1.257 10.68-3.571-0.5908-5.102-2.73-7.005-0.2998-2.346 1.365-1.182-1.065-0.9313-1.01-1.283-2.293 0.3172-3.504 1.819-5.064 0.6955-1.979 0.7741-1.638 2.136 1.403 1.51-0.486">
<title id="title3126">Merrimack County, NH</title>
</path>
<path id="NH_Carroll" style="stroke-linejoin:bevel;stroke:#000;stroke-width:.2910;fill:#fff" d="m78.34 143.4 5.361 17.75 3.306 8.617-0.7363 1.705-2.989 0.9167-1.062-2.296-0.6141 1.484-2.875-0.5122-6.664-3.699-2.308-1.443-0.5908-1.062-1.478-3.385 5.075-2.203-1.088-5.692-1.886-2.872-1.289-1.86 1.967 1.283 7.488-4.802 0.3842-1.927">
<title id="title3129">Carroll County, NH</title>
</path>
<path id="RI_Kent" style="stroke-linejoin:bevel;stroke:#000;stroke-width:.2910;fill:#fff" d="m94.13 239.2-0.7479 2.884-1.551 2.401-8.183 2.375-0.4162-1.574-0.8148-3.096 8.879-2.622 0.0787-0.0408 0.2096-0.355-0.0786-0.3783 0.0786-0.3812 0.0817-0.0785 0.8381-0.486 0.3667 0.0668 0.3405 0.2501 0.5384 0.617 0.3812 0.4191">
<title id="title3132">Kent County, RI</title>
</path>
<path id="RI_Providence" style="stroke-linejoin:bevel;stroke:#000;stroke-width:.2910;fill:#fff" d="m87.47 229.4 3.44 0.355 3.737 7.174-0.8905 1.813-0.5384-0.617-0.3405-0.2501-0.3667-0.0668-0.8382 0.486-0.0817 0.0786-0.0786 0.3812 0.0786 0.3783-0.2096 0.355-0.0785 0.0407-8.879 2.622-2.954-10.3 8-2.453">
<title id="title3135">Providence County, RI</title>
</path>
<path id="RI_Bristol" style="stroke-linejoin:bevel;stroke:#000;stroke-width:.2910;fill:#fff" d="m94.13 239.2-0.3812-0.419 0.8905-1.813 3.137 1.746 1.141 1.062-1.141 1.72-0.4191 0.6926-0.0437 0.1456-2.058-0.6315-1.126-2.503">
<title id="title3138">Bristol County, RI</title>
</path>
<path id="RI_Newport" style="stroke-linejoin:bevel;stroke:#000;stroke-width:.2910;fill:#fff" d="m98.92 239.8 3.748 5.943-0.9953 1.283-3.699 1.796-1.074 0.2765-0.4074-0.262-0.0113-0.1687 0.8265-6.271 0.009-0.0378 0.0438-0.1456 0.4191-0.6926 1.141-1.72">
<title id="title3141">Newport County, RI</title>
</path>
<path id="RI_Washington" style="stroke-linejoin:bevel;stroke:#000;stroke-width:.2910;fill:#fff" d="m83.65 246.9 8.183-2.375 1.551-2.401 0.7479 2.311 0.4045 2.753 0.1775 1.182 0.0322 0.4685 0.0254 0.7101-0.0495 0.3812-0.2416 1.507-0.4016 1.522-8.958 4.537-0.7625-0.0641-0.71-10.53">
<title id="title3144">Washington County, RI</title>
</path>
<path id="VT_Essex" style="stroke-linejoin:bevel;stroke:#000;stroke-width:.2910;fill:#fff" d="m48.46 123.1 10.12-2.808-0.6315 1.298-0.03784 9.211 0.2212 0.6257 0.9866 0.972 1.205 1.481 0.6577 0.8148 0.1164 0.1862 0.681 1.1-0.3521 3.265-0.3027 0.841v0.009l-0.1311 0.224-1.298 2.282-0.1076 0.1687-0.1543 0.224-0.3667 0.4744-0.06682 0.1018-0.8411 0.617-0.5617-0.0524-1.758 2.282-2.951-2.412-1.246-7.607 1.141-3.07-3.149-1.205-1.051-0.4074 0.0407-4.709-0.1601-3.908">
<title id="title3147">Essex County, VT</title>
</path>
<path id="VT_Orleans" style="stroke-linejoin:bevel;stroke:#000;stroke-width:.2910;fill:#fff" d="m48.46 123.1 0.1602 3.908-0.0407 4.709 1.051 0.4074-0.9313 2.322-0.6955 0.5501-2.706-1.013-1.045 4.895-0.8643 3.644-3.28-0.7858-0.4831-0.4715-2.27-2.794-0.1747-1.627-4.156-0.9691-1.522-8.539 16.96-4.237">
<title id="title3150">Orleans County, VT</title>
</path>
<path id="VT_Bennington" style="stroke-linejoin:bevel;stroke:#000;stroke-width:.2910;fill:#fff" d="m40.66 193.2-0.8294-0.0668 0.157 2.191 0.6577 3.411-3.466 0.6286 0.131 0.7858 1.286 6.205 2.34-0.4453 1.467 6.938-2.494 0.5238-6.504 1.406-2.008-7.188-2.805-13.71 10.36-2.02 1.708 1.339">
<title id="title3153">Bennington County, VT</title>
</path>
<path id="VT_Grand_Isle" style="stroke-linejoin:bevel;stroke:#000;stroke-width:.2910;fill:#fff" d="m15.07 131.4 1.638 10.83-2.046 6.679-0.4336-0.3667-0.7858-1.47-1.336-7.831-0.9604-6.152 0.04075-0.6432 3.882-1.048">
<title id="title3156">Grand Isle County, VT</title>
</path>
<path id="VT_Washington" style="stroke-linejoin:bevel;stroke:#000;stroke-width:.2910;fill:#fff" d="m39.28 145 6.216 1.586 0.1048 0.0817 0.1981 0.3667-0.04065 0.6024-1.964 7.951-1.496-0.2765-3.868 3.332-0.3842 2.869-0.7363 3.123-1.662-0.2241-6.731-3.449 0.4482-4.563-0.4482-0.1048 0.7887-4.907 0.4453-1.979 4.406 0.9691 4.002-2.072 0.7217-3.306">
<title id="title3159">Washington County, VT</title>
</path>
<path id="VT_Caledonia" style="stroke-linejoin:bevel;stroke:#000;stroke-width:.2910;fill:#fff" d="m49.63 132.2 3.149 1.205-1.141 3.07 1.246 7.607 2.951 2.413-1.836 1.155-1.816 1.129-0.1367 0.1311-0.08167 0.0641-0.8789 1.586-0.0902 0.3812v0.2356l0.8614 3.003 0.4889 0.6577 0.4453 0.355-3.725-0.4482-3.437 1.219-1.833-0.3376 1.964-7.951 0.04065-0.6024-0.1981-0.3667-0.1048-0.0817-6.216-1.586 0.8265-3.227 3.28 0.7857 0.8643-3.644 1.045-4.895 2.706 1.013 0.6955-0.55 0.9313-2.322">
<title id="title3162">Caledonia County, VT</title>
</path>
<path id="VT_Lamoille" style="stroke-linejoin:bevel;stroke:#000;stroke-width:.2910;fill:#fff" d="m33.02 135.9 4.156 0.9691 0.1747 1.627 2.27 2.794 0.4831 0.4715-0.8265 3.227-0.7217 3.306-4.002 2.072-4.406-0.9691-4.735-5.852 1.179-3.318 2.011-3.411 3.355-1.429 1.062 0.5122">
<title id="title3165">Lamoille County, VT</title>
</path>
<path id="VT_Franklin" style="stroke-linejoin:bevel;stroke:#000;stroke-width:.2910;fill:#fff" d="m31.5 127.4 1.522 8.539-1.062-0.5122-3.355 1.429-2.011 3.411-1.179 3.318-8.71-1.339-1.638-10.83 16.43-4.013">
<title id="title3168">Franklin County, VT</title>
</path>
<path id="VT_Chittenden" style="stroke-linejoin:bevel;stroke:#000;stroke-width:.2910;fill:#fff" d="m16.7 142.2 8.71 1.339 4.735 5.852-0.4453 1.979-0.7887 4.907 0.4482 0.1048-0.4482 4.563-1.193-3.123-1.574-0.9691-6.411 2.517-1.417 0.157-0.8789-4.563 0.1455-1.574-0.04075-0.4074-0.01458-0.0224-0.4859-1.313-0.3754-0.8148-1.248-1.508-0.7625-0.4452 2.046-6.679">
<title id="title3171">Chitenden County, VT</title>
</path>
<path id="VT_Addison" style="stroke-linejoin:bevel;stroke:#000;stroke-width:.2910;fill:#fff" d="m18.32 159.6 1.417-0.157 6.411-2.517 1.574 0.9691 1.193 3.123 6.731 3.449-0.6839 2.794-0.55 1.656-1.144 1.088-2.191 1.848 0.4627 0.9982 0.2503 0.4453-2.06-0.2765-3.265 0.9574-1.586 0.6024 0.9545 2.506-3.949 1.47-0.972-1.889-0.4569-0.8265-3.128-7.386-0.05818-0.1281v-0.009l-0.06402-1.248v-1.222l0.01462-3.105 1.1-3.137">
<title id="title3174">Addison County, VT</title>
</path>
<path id="VT_Rutland" style="stroke-linejoin:bevel;stroke:#000;stroke-width:.2910;fill:#fff" d="m21.88 178.5 3.949-1.47-0.9545-2.506 1.586-0.6024 3.265-0.9574 2.06 0.2765 1.932-1.705 2.293 0.5384 0.4686 0.5093 3.399 4.226 0.617 7.936-1.158 3.949-0.3929 3.172-10.36 2.02-1.589-7.386-4.511-0.9953-0.8905-0.3696-0.1048-0.1396-0.2648-2.191 0.1484-1.522 0.5064-2.782">
<title id="title3177">Rutland County, VT</title>
</path>
<path id="VT_Windham" style="stroke-linejoin:bevel;stroke:#000;stroke-width:.2910;fill:#fff" d="m40.66 193.2 3.841 0.3259 3.411-1.377 3.225-0.7072 0.1048 2.768 0.8818 1.377 0.05829 0.2241 0.7159 4.013-1.708 5.849 0.1192 0.3783 0.777 1.668 3 2.413-12.68 2.715-1.467-6.938-2.34 0.4453-1.286-6.205-0.131-0.7858 3.466-0.6286-0.6577-3.411-0.157-2.191 0.8294 0.0668">
<title id="title3180">Windham County, VT</title>
</path>
<path id="VT_Windsor" style="stroke-linejoin:bevel;stroke:#000;stroke-width:.2910;fill:#fff" d="m34.96 167.2 0.1571 0.5791 0.355 0.5646 2.139 0.1832 3.079 0.3667 7.869 0.9051 3.504 0.486-1.665 7.069-1.01 3.358 1.301 5.98 0.5617 1.47-0.1193 3.28-3.225 0.7072-3.411 1.377-3.841-0.3259-1.708-1.339 0.3929-3.172 1.158-3.949-0.617-7.936-3.399-4.226-0.4685-0.5093-2.293-0.5384-1.932 1.705-0.2503-0.4453-0.4627-0.9982 2.191-1.848 1.144-1.088 0.55-1.656">
<title id="title3183">Windsor County, VT</title>
</path>
<path id="VT_Orange" style="stroke-linejoin:bevel;stroke:#000;stroke-width:.2910;fill:#fff" d="m52.79 155.2-0.7217 15.14-3.504-0.486-7.869-0.9051-3.079-0.3667-2.139-0.1832-0.355-0.5646-0.1571-0.5792 0.6839-2.794 1.662 0.224 0.7363-3.123 0.3842-2.869 3.868-3.332 1.496 0.2765 1.833 0.3376 3.437-1.219 3.725 0.4482">
<title id="title3186">Orange County, VT</title>
</path>
<path id="path9425" style="stroke-linejoin:round;stroke:#221e1f;stroke-width:1.455;fill:none" d="m97.28 193.4-1.932 0.1164-0.7974 0.0524-0.1832 0.0932-0.2155 0.0902-2.541 1.877-1.941 1.653-0.6402 0.55-0.355 0.3696-1.481 2.974-0.1747 0.3958-0.6781 1.612-9.054 2.087-0.1164 0.0255-0.4074 0.0902-6.635 1.484-0.8032 0.1805-9.519 2.06-4.723 1.01-12.68 2.715-2.494 0.5238-6.504 1.406-0.2415 9.22-0.4133 16.55 0.6286 1.272 0.2619-0.0641 11.79-2.494 1.208-0.2735 13.48-3.187 10.09-2.389 0.9167-0.1805 1.155-0.2386 7.002-1.665 0.1832 0.55 8-2.453 3.44 0.355 3.737 7.174 3.137 1.746 1.141 1.062 3.748 5.943"/>
<path id="path9419" style="stroke-linejoin:round;stroke:#221e1f;stroke-width:1.455;fill:none" d="m33.4 214.8-2.008-7.188-2.805-13.71-1.589-7.386-4.511-0.9953-0.8905-0.3696-0.1048-0.1397-0.2648-2.191 0.1484-1.522 0.5064-2.782-0.972-1.889-0.4569-0.8265-3.128-7.386-0.05818-0.128-0.06403-1.26v-1.222l0.01462-3.105 1.1-3.137-0.8789-4.563 0.1455-1.574-0.04075-0.4074-0.0146-0.0226-0.486-1.313-0.3754-0.8147-1.248-1.507-0.7625-0.4453-0.4336-0.3667-0.7858-1.47-1.336-7.831-0.9604-6.152 0.04074-0.6431"/>
<path id="path9381" style="stroke-linejoin:round;stroke:#221e1f;stroke-width:1.455;fill:none" d="m98.42 185.8-3.67-1.47-1.019-4.092-0.0817-0.0902-3.172-1.892-1.315-0.6548-0.4831-0.2501-0.7625-1.059-0.2476-0.5268-0.2006-0.8381-0.4569-5.116-3.306-8.617-5.361-17.75-4.921-15.65-0.3929-1.26-5.55-16.74-1.01-2.884"/>
<path id="path9379" style="stroke-linejoin:round;stroke:#221e1f;stroke-width:1.455;fill:none" d="m58.57 120.3-0.6315 1.298-0.03784 9.211 0.2212 0.6257 0.9866 0.972 1.205 1.481 0.6577 0.8148 0.1164 0.1862 0.681 1.1-0.3521 3.265-0.3027 0.841v0.009l-0.1311 0.224-1.298 2.282-0.1076 0.1687-0.1543 0.224-0.3667 0.4744-0.06682 0.1018-0.8411 0.617-0.5617-0.0524-1.758 2.282-1.836 1.155-1.816 1.129-0.1367 0.131-0.08166 0.0641-0.8789 1.586-0.0902 0.3812v0.2357l0.8614 3.003 0.4889 0.6577 0.4453 0.355-0.7217 15.14-1.665 7.069-1.01 3.358 1.301 5.98 0.5617 1.47-0.1193 3.28 0.1048 2.768 0.8818 1.377 0.05822 0.224 0.7159 4.013-1.708 5.849 0.1192 0.3783 0.777 1.668 3 2.413"/>
<path id="path9377" style="stroke-linejoin:round;stroke:#221e1f;stroke-width:1.455;fill:none" d="m33.64 241.8 2.57 14.27 0.8905 5.195 1.024 6.007 0.4598 2.648-0.8905 6.059-0.1747 0.1716-2.043 2.087 2.933 3.775"/>
<path id="path9363" style="stroke-linejoin:round;stroke:#221e1f;stroke-width:1.455;fill:none" d="m79.47 231.9 2.954 10.3 0.8148 3.096 0.4162 1.574 0.7101 10.53"/>
<rect id="box1" style="stroke:#000;stroke-width:.8308;fill:#fff" transform="scale(1,-1)" height="12.92" width="12.92" y="-23.34" x="10.42"/>
<rect id="box2" style="stroke:#000;stroke-width:.8308;fill:#fff" transform="scale(1,-1)" height="12.92" width="12.92" y="-43.34" x="10.42"/>
<text id="label1" style="font-size:6.646px;letter-spacing:0px;word-spacing:0px;font-family:Sans;line-height:125%;fill:#000000" xml:space="preserve" y="19.201012" x="27.627834"><tspan id="tspan3974" x="27.627834" style="font-size:9px;font-family:Verdana" y="19.201012">label1</tspan></text>
<text id="label2" style="font-size:6.646px;letter-spacing:0px;word-spacing:0px;font-family:Sans;line-height:125%;fill:#000000" y="39.737892" x="27.664343" xml:space="preserve"><tspan id="tspan3978" y="39.737892" x="27.664343" style="font-size:9px;font-family:Verdana">label2</tspan></text>
<rect id="box3" style="stroke:#000;stroke-width:.8308;fill:#fff" transform="scale(1,-1)" height="12.92" width="12.92" y="-63.34" x="10.42"/>
<rect id="box4" style="stroke:#000;stroke-width:.8308;fill:#fff" transform="scale(1,-1)" height="12.92" width="12.92" y="-83.34" x="10.42"/>
<rect id="box5" style="stroke:#000;stroke-width:.8308;fill:#fff" transform="scale(1,-1)" height="12.92" width="12.92" y="-103.3" x="10.42"/>
<text id="label3" style="font-size:6.646px;letter-spacing:0px;word-spacing:0px;font-family:Sans;line-height:125%;fill:#000000" y="60.024284" x="27.664343" xml:space="preserve"><tspan id="tspan3384" y="60.024284" x="27.664343" style="font-size:9px;font-family:Verdana">label3</tspan></text>
<text id="label4" style="font-size:6.646px;letter-spacing:0px;word-spacing:0px;font-family:Sans;line-height:125%;fill:#000000" xml:space="preserve" y="78.768204" x="27.627834"><tspan id="tspan3396" x="27.627834" style="font-size:9px;font-family:Verdana" y="78.768204">label4</tspan></text>
<text id="label5" style="font-size:6.646px;letter-spacing:0px;word-spacing:0px;font-family:Sans;line-height:125%;fill:#000000" y="99.305069" x="27.627834" xml:space="preserve"><tspan id="tspan3400" y="99.305069" x="27.627834" style="font-size:9px;font-family:Verdana">label5</tspan></text>
<flowRoot id="flowRoot3402" xml:space="preserve" style="font-size:8px;letter-spacing:0px;word-spacing:0px;font-family:Sans;line-height:125%;fill:#000000" transform="translate(.4154 2.697)"><flowRegion id="flowRegion3404"><rect id="rect3406" y="8.018" width="61.69" x="7.639" height="100.5"/></flowRegion><flowPara id="flowPara3408"/></flowRoot>
<flowRoot id="flowRoot3410" xml:space="preserve" style="font-size:8px;letter-spacing:0px;word-spacing:0px;font-family:Sans;line-height:125%;fill:#000000" transform="translate(.4154 2.697)"><flowRegion id="flowRegion3412"><rect id="rect3414" y="8.4" width="55" x="8.594" height="17"/></flowRegion><flowPara id="flowPara3416"/></flowRoot>
<flowRoot id="flowRoot3418" xml:space="preserve" style="font-size:8px;letter-spacing:0px;word-spacing:0px;font-family:Sans;line-height:125%;fill:#000000" transform="translate(.4154 2.697)"><flowRegion id="flowRegion3420"><rect id="rect3422" y="28.84" width="68.56" x="7.257" height="15.85"/></flowRegion><flowPara id="flowPara3424"/></flowRoot>
<flowRoot id="flowRoot3426" xml:space="preserve" style="font-size:8px;letter-spacing:0px;word-spacing:0px;font-family:Sans;line-height:125%;fill:#000000" transform="translate(.4154 2.697)"><flowRegion id="flowRegion3428"><rect id="rect3430" y="47.36" width="57.87" x="8.403" height="20.24"/></flowRegion><flowPara id="flowPara3432"/></flowRoot>
<flowRoot id="flowRoot3434" xml:space="preserve" style="font-size:8px;letter-spacing:0px;word-spacing:0px;font-family:Sans;line-height:125%;fill:#000000" transform="translate(.4154 2.697)"><flowRegion id="flowRegion3436"><rect id="rect3438" y="68.37" width="47.55" x="7.448" height="15.66"/></flowRegion><flowPara id="flowPara3440"/></flowRoot>
</svg>
