<?xml version="1.0" encoding="UTF-8" standalone="no"?>
<!-- Created with Inkscape (http://www.inkscape.org/) -->

<svg
   xmlns:dc="http://purl.org/dc/elements/1.1/"
   xmlns:cc="http://creativecommons.org/ns#"
   xmlns:rdf="http://www.w3.org/1999/02/22-rdf-syntax-ns#"
   xmlns:svg="http://www.w3.org/2000/svg"
   xmlns="http://www.w3.org/2000/svg"
   xmlns:sodipodi="http://sodipodi.sourceforge.net/DTD/sodipodi-0.dtd"
   xmlns:inkscape="http://www.inkscape.org/namespaces/inkscape"
   version="1.0"
   width="220"
   height="344.65625"
   id="svg9559"
   sodipodi:version="0.32"
   inkscape:version="0.48.0 r9654"
   sodipodi:docname="new-england-counties.svg"
   inkscape:output_extension="org.inkscape.output.svg.inkscape">
  <metadata
     id="metadata3671">
    <rdf:RDF>
      <cc:Work
         rdf:about="">
        <dc:format>image/svg+xml</dc:format>
        <dc:type
           rdf:resource="http://purl.org/dc/dcmitype/StillImage" />
        <dc:title />
      </cc:Work>
    </rdf:RDF>
  </metadata>
  <sodipodi:namedview
     inkscape:window-height="878"
     inkscape:window-width="911"
     inkscape:pageshadow="2"
     inkscape:pageopacity="0.0"
     guidetolerance="10.0"
     gridtolerance="10.0"
     objecttolerance="10.0"
     borderopacity="1.0"
     bordercolor="#666666"
     pagecolor="#ffffff"
     id="base"
     inkscape:zoom="5.6568542"
     inkscape:cx="105.14883"
     inkscape:cy="63.074346"
     inkscape:window-x="209"
     inkscape:window-y="0"
     inkscape:current-layer="svg9559"
     showguides="true"
     inkscape:guide-bbox="true"
     showgrid="false"
     inkscape:window-maximized="0"
     fit-margin-top="10"
     fit-margin-left="10"
     fit-margin-right="10"
     fit-margin-bottom="10" />
  <defs
     id="defs9561" />
  <path
     style="font-size:12px;fill:none;fill-opacity:1;fill-rule:nonzero;stroke:#000000;stroke-width:0.35030233999999999;stroke-linecap:butt;stroke-linejoin:bevel;stroke-miterlimit:4;stroke-opacity:1;stroke-dasharray:none;marker-start:none"
     d="m 53.612196,282.39542 16.229513,-3.83581 1.516813,3.7097 6.217885,13.26245 0.112115,0.24867 0.189083,1.04392 -1.625397,1.26457 -1.972201,-2.46261 -3.919892,1.29612 -2.665792,1.26107 -0.711126,2.46263 -8.193568,-0.80569 -2.826943,-6.73983 2.119334,-0.90026 0.185677,-7.8643 -4.546928,1.43623 -0.108627,-3.37691"
     id="09003"
     inkscape:label="Hartford, CT"
     inkscape:connector-curvature="0">
    <title
       id="title3184">Hartford County, CT</title>
  </path>
  <path
     style="font-size:12px;fill:none;fill-rule:nonzero;stroke:#000000;stroke-width:0.35030233999999999;stroke-linecap:butt;stroke-linejoin:bevel;stroke-miterlimit:4;stroke-opacity:1;stroke-dasharray:none;marker-start:none"
     d="m 52.158445,282.72471 1.453751,-0.32926 0.108628,3.37693 4.546928,-1.43625 -0.185705,7.86428 -2.119337,0.90028 2.826946,6.73982 -3.489022,4.35777 -6.032191,4.26318 -0.108546,0.60251 0.07362,0.37483 0.287142,0.28717 0.427363,0.26621 -0.06299,0.0946 -0.472893,0.0109 -1.804081,-0.48343 -2.651796,-0.91778 -0.294356,-0.51845 -0.634055,-1.0439 -1.769024,-3.7132 -0.283698,-0.32929 -0.917799,-0.18903 -3.093117,-17.17836 14.194258,-3.0021"
     id="09005"
     inkscape:label="Litchfield, CT"
     inkscape:connector-curvature="0">
    <title>Litchfield County, CT</title>
  </path>
  <path
     style="font-size:12px;fill:none;fill-opacity:1;fill-rule:nonzero;stroke:#000000;stroke-width:0.35030233999999999;stroke-linecap:butt;stroke-linejoin:bevel;stroke-miterlimit:4;stroke-opacity:1;stroke-dasharray:none;marker-start:none"
     d="m 42.129296,309.15853 -1.071934,-6.25291 0.917782,0.18903 0.283701,0.32932 1.769043,3.71319 0.634046,1.04392 0.294297,0.51844 2.651799,0.91779 1.804067,0.48342 0.472909,-0.0109 0.06296,-0.0947 1.229568,0.45891 2.655283,0.86874 5.871065,4.15459 -0.112169,2.1929 -0.409855,0.94581 -0.08043,0.36432 0.0983,2.15085 0.09462,0.21369 0.539472,0.3364 -2.276962,0.61652 -5.716949,4.32275 -7.843257,6.65924 -0.192707,0.36782 -0.09833,0.48691 -3.531038,-4.54342 2.459136,-2.51167 0.210307,-0.20658 1.071929,-7.2933 -0.553484,-3.18774 -1.23305,-7.23025"
     id="09001"
     inkscape:label="Fairfield, CT"
     inkscape:connector-curvature="0">
    <title
       id="title3266">Fairfield County, CT</title>
  </path>
  <path
     style="font-size:12px;fill:none;fill-opacity:1;fill-rule:nonzero;stroke:#000000;stroke-width:0.35030233999999999;stroke-linecap:butt;stroke-linejoin:bevel;stroke-miterlimit:4;stroke-opacity:1;stroke-dasharray:none;marker-start:none"
     d="m 66.983246,300.64617 1.152493,3.52056 2.399578,2.48011 1.219046,-0.6025 0.472911,0.30104 1.467772,1.65695 3.944402,4.89722 -1.737485,-0.0946 -1.10346,0.26622 -4.546933,1.37669 -2.840942,1.19454 -1.548353,0.22404 -0.72862,-0.90028 -0.266215,0.10858 -3.853323,4.48737 -0.521954,0.72864 -0.616525,1.16651 -0.0419,0.17171 0,0.049 -0.539472,-0.33641 -0.09454,-0.21369 -0.09825,-2.15084 0.08043,-0.36432 0.409863,-0.94581 0.112142,-2.19291 -5.871059,-4.15458 -2.655298,-0.86874 -1.229559,-0.45891 -0.427377,-0.26622 -0.287166,-0.28716 -0.07359,-0.37485 0.108546,-0.60252 6.032196,-4.26317 3.48902,-4.35776 8.19357,0.80568"
     id="09009"
     inkscape:label="New Haven, CT"
     inkscape:connector-curvature="0">
    <title>New Haven County, CT</title>
  </path>
  <path
     style="font-size:12px;fill:none;fill-rule:nonzero;stroke:#000000;stroke-width:0.35030233999999999;stroke-linecap:butt;stroke-linejoin:bevel;stroke-miterlimit:4;stroke-opacity:1;stroke-dasharray:none;marker-start:none"
     d="m 76.252249,298.08897 7.626084,12.23607 -6.238885,2.57472 -3.944402,-4.89723 -1.467772,-1.65694 -0.472911,-0.30104 -1.219046,0.60251 -2.399578,-2.48013 -1.152493,-3.52054 0.711132,-2.46263 2.665781,-1.26109 3.919886,-1.29612 1.972204,2.46264"
     id="09007"
     inkscape:label="Middlesex, CT"
     inkscape:connector-curvature="0">
    <title>Middlesex County, CT</title>
  </path>
  <path
     style="font-size:12px;fill:none;fill-rule:nonzero;stroke:#000000;stroke-width:0.35030233999999999;stroke-linecap:butt;stroke-linejoin:bevel;stroke-miterlimit:4;stroke-opacity:1;stroke-dasharray:none;marker-start:none"
     d="m 98.163667,291.85358 0.85474,12.67745 -4.182609,1.17001 -8.512349,3.94441 -1.783036,0.69709 -0.332833,0.0455 -0.329154,-0.063 -7.626082,-12.23608 1.625395,-1.26456 4.308713,-6.36152 2.14737,1.22957 1.152493,0.57099 6.946495,-0.6971 2.953054,-1.21205 2.276954,-0.39585 0.500934,1.89515"
     id="09011"
     inkscape:label="New London, CT"
     inkscape:connector-curvature="0">
    <title>New London County, CT</title>
  </path>
  <path
     style="font-size:12px;fill:none;fill-rule:nonzero;stroke:#000000;stroke-width:0.35030233999999999;stroke-linecap:butt;stroke-linejoin:bevel;stroke-miterlimit:4;stroke-opacity:1;stroke-dasharray:none;marker-start:none"
     d="m 83.086648,275.46643 0.879268,3.04415 -3.117708,0.78817 -0.679574,0.22049 1.355684,5.43321 1.548312,0.88276 1.355681,2.19639 -0.959819,1.13497 -1.282124,1.29613 -4.308719,6.36151 -0.189083,-1.04391 -0.112115,-0.24867 -6.217863,-13.26245 -1.516824,-3.70969 12.141489,-2.87599 1.103436,-0.21726"
     id="09013"
     inkscape:label="Tolland, CT"
     inkscape:connector-curvature="0">
    <title>Tolland County, CT</title>
  </path>
  <path
     style="font-size:12px;fill:none;fill-rule:nonzero;stroke:#000000;stroke-width:0.35030233999999999;stroke-linecap:butt;stroke-linejoin:bevel;stroke-miterlimit:4;stroke-opacity:1;stroke-dasharray:none;marker-start:none"
     d="m 93.126311,273.83753 3.555578,12.3937 0.980839,3.72722 -2.27696,0.39584 -2.953062,1.21205 -6.946481,0.6971 -1.15249,-0.57098 -2.147367,-1.22957 1.282124,-1.29612 0.959819,-1.13498 -1.355681,-2.1964 -1.548312,-0.88276 -1.355684,-5.4332 0.679574,-0.2205 3.117708,-0.78817 -0.879268,-3.04413 1.390692,-0.28717 8.428294,-2.00373 0.220497,0.66207"
     id="09015"
     inkscape:label="Windham, CT"
     inkscape:connector-curvature="0">
    <title>Windham County, CT</title>
  </path>
  <path
     style="font-size:12px;fill:none;fill-rule:nonzero;stroke:#000000;stroke-width:0.35030233999999999;stroke-linecap:butt;stroke-linejoin:bevel;stroke-miterlimit:4;stroke-opacity:1;stroke-dasharray:none;marker-start:none"
     d="m 81.888608,243.74655 0.140069,0.3153 2.431106,2.47663 1.628906,-0.37832 0.52546,-0.47292 2.630765,0.3293 1.292614,0.15775 4.81666,1.95819 0.507939,0.93529 0.2348,2.46264 0.126119,2.52218 -0.392336,1.28209 -1.01237,1.98973 2.241933,5.65036 0.882755,0.82322 1.04391,0.34323 2.809422,0.44488 0.95982,6.29844 -9.629814,2.95306 -0.220497,-0.66208 -8.428273,2.00372 -1.390692,0.28717 -1.103449,0.21723 -1.453765,-5.79401 -2.115819,0.56751 -2.304985,-0.48693 -0.154209,-0.57099 0.0109,-0.34324 0.833717,-2.13334 -4.11607,-3.55208 -0.584996,-2.3225 -0.189084,-3.86735 0.392336,-2.35053 -0.690096,-3.75874 -2.15086,-4.62748 11.458405,-2.48014 0.966824,-0.21717"
     id="25027"
     inkscape:label="Worcester, MA"
     inkscape:connector-curvature="0">
    <title>Worcester County, MA</title>
  </path>
  <path
     style="font-size:12px;fill:none;fill-rule:nonzero;stroke:#000000;stroke-width:0.35030233999999999;stroke-linecap:butt;stroke-linejoin:bevel;stroke-miterlimit:4;stroke-opacity:1;stroke-dasharray:none;marker-start:none"
     d="m 102.22015,237.36755 1.2541,3.01611 3.21927,2.16136 3.66068,2.17888 2.62026,3.33138 -0.18909,1.21555 -0.75665,1.70245 -1.29612,1.20506 -1.35568,0.86524 0.17173,3.55207 -1.59388,-1.24708 -0.0946,-0.063 -0.80569,-0.0771 -0.54999,0.0771 -1.755,1.18401 0.41335,0.64805 0.77067,1.00887 0.44487,0.94932 -0.77766,2.44861 -1.6219,1.45026 -2.18237,1.6114 -2.80944,-0.44489 -1.043904,-0.34324 -0.882756,-0.82321 -2.241927,-5.65036 1.012367,-1.98972 0.392337,-1.28211 -0.126088,-2.52218 -0.234664,-2.46262 -0.507942,-0.93531 -4.816652,-1.95819 -1.292621,-0.15775 -2.630758,-0.3293 -0.525471,0.47291 -1.628906,0.37833 -2.431084,-2.47663 -0.140068,-0.3153 7.986906,-1.78654 0.490419,-0.10857 0.140069,-0.0307 10.897913,-2.51168 0.81618,-1.94067"
     id="25017"
     inkscape:label="Middlesex, MA"
     inkscape:connector-curvature="0">
    <title>Middlesex County, MA</title>
  </path>
  <path
     style="font-size:12px;fill:none;fill-rule:nonzero;stroke:#000000;stroke-width:0.35030233999999999;stroke-linecap:butt;stroke-linejoin:bevel;stroke-miterlimit:4;stroke-opacity:1;stroke-dasharray:none;marker-start:none"
     d="m 156.91288,290.08456 0.29796,-0.15775 0.52545,-0.60253 0.37833,-0.70761 0.25229,-0.9178 -0.15416,-0.91429 -0.17892,-0.3153 -0.34674,-0.31886 -0.31886,-0.25226 -0.18565,-0.15781 -0.0306,-0.17175 0.58501,0.12612 0.69357,0.61304 2.9986,3.39792 0.17892,0.63056 -0.0193,0.4729 -0.0109,0.0945 -0.23851,0.31531 -0.77417,0.58499 -0.42737,0.18906 -2.67981,0.61652 -0.72513,0.14007 -1.86711,-0.12612 -3.17375,-0.63054 -0.42385,-0.18905 -0.30105,-0.25227 -0.17511,-0.36431 0.49042,-0.12612 0.42738,0.0945 0.18908,0.063 1.65693,-0.063 2.35053,-0.61302 1.01237,-0.45891"
     id="25019"
     inkscape:label="Nantucket, MA"
     inkscape:connector-curvature="0">
    <title>Nantucket County, MA</title>
  </path>
  <path
     style="font-size:12px;fill:none;fill-rule:nonzero;stroke:#000000;stroke-width:0.35030233999999999;stroke-linecap:butt;stroke-linejoin:bevel;stroke-miterlimit:4;stroke-opacity:1;stroke-dasharray:none;marker-start:none"
     d="m 136.24854,271.58159 0.22049,0.23461 0.66558,0.47291 0.95983,0.53596 0.86873,0.3503 2.11934,0.2205 1.2716,-0.0804 3.3804,-0.34675 4.56445,-2.80942 1.68846,-1.13849 1.10696,-0.99134 0.33979,-0.74265 0.0702,-0.38183 -0.39585,-1.31013 -0.61653,-1.61141 -0.28368,-0.63052 -1.04038,-1.48179 -3.37341,-3.94791 -0.52546,-0.36432 -0.58501,-0.22049 -0.93181,-0.2205 -0.23466,0.049 -0.44139,0.24867 -0.2415,0.22404 -0.18906,0.33281 -0.10857,0.54996 0.0306,0.23856 -1.86361,-0.72513 -0.10852,-0.12952 0.12612,-0.45541 0.33281,-0.36431 0.56749,-0.31532 0.54999,-0.17519 0.97383,-0.0946 1.56585,0.0804 1.23659,0.2696 0.94229,0.40983 1.09295,0.75667 1.0404,1.04039 1.31013,1.51681 1.04389,1.49929 1.56236,2.70084 0.74615,1.48528 1.07193,2.91802 0.62353,2.16486 0.11217,0.99487 -0.51843,4.31222 -0.31528,0.31179 -0.10849,-2.9986 -0.0772,-0.25229 -0.16085,-0.28367 -0.83724,-0.39584 -0.39233,-0.0946 -0.23853,0.0489 -10.04315,4.48036 -0.42387,0.19282 -7.31432,6.32995 -1.1665,1.51681 -1.22956,-0.12609 -0.72863,-8.79259 2.30849,-5.00584"
     id="25001"
     inkscape:label="Barnstable, MA"
     inkscape:connector-curvature="0">
    <title>Barnstable County, MA</title>
  </path>
  <path
     style="font-size:12px;fill:none;fill-rule:nonzero;stroke:#000000;stroke-width:0.35030233999999999;stroke-linecap:butt;stroke-linejoin:bevel;stroke-miterlimit:4;stroke-opacity:1;stroke-dasharray:none;marker-start:none"
     d="m 112.97446,248.05528 1.59736,0.63404 0.73914,5.30359 -5.76246,2.60274 -0.1717,-3.55207 1.35566,-0.86524 1.29613,-1.20506 0.75664,-1.70245 0.18906,-1.21555"
     id="25025"
     inkscape:label="Suffolk, MA"
     inkscape:connector-curvature="0">
    <title>Suffolk County, MA</title>
  </path>
  <path
     style="font-size:12px;fill:none;fill-rule:nonzero;stroke:#000000;stroke-width:0.35030233999999999;stroke-linecap:butt;stroke-linejoin:bevel;stroke-miterlimit:4;stroke-opacity:1;stroke-dasharray:none;marker-start:none"
     d="m 106.8967,271.31185 8.43177,-7.45092 2.5397,5.53827 2.83045,5.14945 3.35939,1.31012 1.4993,1.04041 3.52054,5.41918 -0.59901,-0.0351 -1.4993,0.2205 -0.61303,0.80568 -0.36782,0.47642 -0.0596,0.10852 0.10852,1.46777 0.15416,0.53596 0.50793,1.04391 -2.90402,2.71484 -2.74986,0.82323 -4.51188,-7.15316 -1.37318,-1.27861 -3.77627,-2.10182 -4.49787,-8.63497"
     id="25005"
     inkscape:label="Bristol, MA"
     inkscape:connector-curvature="0">
    <title>Bristol County, MA</title>
  </path>
  <path
     style="font-size:12px;fill:none;fill-rule:nonzero;stroke:#000000;stroke-width:0.35030233999999999;stroke-linecap:butt;stroke-linejoin:bevel;stroke-miterlimit:4;stroke-opacity:1;stroke-dasharray:none;marker-start:none"
     d="m 118.45668,255.11387 3.07566,-0.94932 1.61139,0.2348 0.31885,0.0351 0.26616,0.17518 1.79355,1.19804 4.06351,4.5154 5.88509,7.7662 0.56749,1.29611 0.21036,2.19641 -2.30849,5.00583 -4.86221,5.73096 -3.52054,-5.41917 -1.49929,-1.04042 -3.35941,-1.31012 -2.83043,-5.14945 -2.53971,-5.53828 3.12821,-8.74705"
     id="25023"
     inkscape:label="Plymouth, MA"
     inkscape:connector-curvature="0">
    <title>Plymouth County, MA</title>
  </path>
  <path
     style="font-size:12px;fill:none;fill-rule:nonzero;stroke:#000000;stroke-width:0.35030233999999999;stroke-linecap:butt;stroke-linejoin:bevel;stroke-miterlimit:4;stroke-opacity:1;stroke-dasharray:none;marker-start:none"
     d="m 115.31096,253.99291 3.14572,1.12096 -3.12821,8.74706 -8.43177,7.45092 -4.14056,-0.42736 -0.95984,-6.29844 2.18238,-1.61139 1.6219,-1.45025 0.77767,-2.44863 -0.44489,-0.94931 -0.77065,-1.00888 -0.41336,-0.64805 1.755,-1.18401 0.54999,-0.0771 0.80569,0.0771 0.0946,0.063 1.59388,1.24709 5.76247,-2.60274"
     id="25021"
     inkscape:label="Norfolk, MA"
     inkscape:connector-curvature="0">
    <title>Norfolk County, MA</title>
  </path>
  <path
     style="font-size:12px;fill:none;fill-rule:nonzero;stroke:#000000;stroke-width:0.35030233999999999;stroke-linecap:butt;stroke-linejoin:bevel;stroke-miterlimit:4;stroke-opacity:1;stroke-dasharray:none;marker-start:none"
     d="m 114.57182,227.53105 0.23483,0.94581 1.21555,2.90403 1.89163,3.63261 1.95819,0.86877 -3.15623,6.55066 -2.14386,6.25639 -1.59736,-0.63404 -2.62027,-3.33138 -3.66064,-2.17888 -3.21929,-2.16136 -1.25409,-3.01611 0.21036,-0.47642 1.78305,-3.58009 0.42737,-0.44486 0.77066,-0.66209 2.33651,-1.98972 3.04413,-2.25945 0.0109,0 0.25935,-0.1086 0.22049,-0.11217 0.95983,-0.063 2.326,-0.14007"
     id="25009"
     inkscape:label="Essex, MA"
     inkscape:connector-curvature="0">
    <title>Essex County, MA</title>
  </path>
  <path
     style="font-size:12px;fill:none;fill-rule:nonzero;stroke:#000000;stroke-width:0.35030233999999999;stroke-linecap:butt;stroke-linejoin:bevel;stroke-miterlimit:4;stroke-opacity:1;stroke-dasharray:none;marker-start:none"
     d="m 76.802227,266.92258 -0.833725,2.13333 -0.0109,0.34323 0.154181,0.57101 2.30499,0.48691 2.11583,-0.56749 1.45376,5.79401 -12.141474,2.87598 -16.229526,3.8358 -1.453754,0.32927 -1.233058,-2.22443 -0.157723,-0.40986 -0.37833,-2.00722 1.233069,-0.0771 -0.09825,-5.00583 -0.630556,-2.71485 1.170012,-1.76901 1.905641,-0.31521 0.430872,0.2696 0.882764,2.93553 -0.504429,0.94582 1.373173,0.69711 3.061659,0.45889 3.240286,-0.049 2.697334,-2.00373 5.888586,-2.4346 5.762342,-2.0983"
     id="25013"
     inkscape:label="Hampden, MA"
     inkscape:connector-curvature="0">
    <title>Hampden County, MA</title>
  </path>
  <path
     style="font-size:12px;fill:none;fill-rule:nonzero;stroke:#000000;stroke-width:0.35030233999999999;stroke-linecap:butt;stroke-linejoin:bevel;stroke-miterlimit:4;stroke-opacity:1;stroke-dasharray:none;marker-start:none"
     d="m 72.686174,263.37048 4.116053,3.5521 -5.76247,2.09829 -5.888592,2.43459 -2.69732,2.00374 -3.240305,0.049 -3.061646,-0.45889 -1.373186,-0.69711 0.504434,-0.94582 -0.882758,-2.93553 -0.430878,-0.26951 -1.905638,0.3153 -1.170009,1.76901 -0.108573,0.37834 -0.711107,0.0306 -1.373195,-0.63054 -0.742647,-2.24196 0,-0.39582 1.846101,-0.0307 -0.140068,-4.025 -0.220497,-3.3804 -0.399341,-0.64456 4.158085,2.33652 5.50326,0.14007 5.660877,-0.26957 1.667442,-0.72511 3.839319,-0.34674 2.812931,2.88999"
     id="25015"
     inkscape:label="Hampshire, MA"
     inkscape:connector-curvature="0">
    <title>Hampshire County, MA</title>
  </path>
  <path
     style="font-size:12px;fill:none;fill-rule:nonzero;stroke:#000000;stroke-width:0.35030233999999999;stroke-linecap:butt;stroke-linejoin:bevel;stroke-miterlimit:4;stroke-opacity:1;stroke-dasharray:none;marker-start:none"
     d="m 37.680451,253.25027 7.829256,-1.69197 3.534558,7.78722 0.399333,0.64455 0.220497,3.38041 0.140068,4.02499 -1.846098,0.0307 0,0.39583 0.742657,2.24195 1.373179,0.63054 0.711102,-0.0306 0.108545,-0.37831 0.630557,2.71484 0.09827,5.00582 -1.233056,0.0771 0.378311,2.00723 0.157723,0.40985 1.233072,2.22443 -14.19425,3.00208 -0.315278,0.0771 -0.756653,-1.53081 0.497421,-19.9252 0.290722,-11.09759"
     id="25003"
     inkscape:label="Berkshire, MA"
     inkscape:connector-curvature="0">
    <title>Berkshire County, MA</title>
  </path>
  <path
     style="font-size:12px;fill:none;fill-rule:nonzero;stroke:#000000;stroke-width:0.35030233999999999;stroke-linecap:butt;stroke-linejoin:bevel;stroke-miterlimit:4;stroke-opacity:1;stroke-dasharray:none;marker-start:none"
     d="m 63.777976,247.65943 5.685426,-1.21554 2.150843,4.6275 0.690098,3.75874 -0.392347,2.35052 0.189083,3.86734 0.584997,2.32249 -2.812934,-2.88998 -3.839308,0.34674 -1.667445,0.72513 -5.660877,0.26948 -5.503244,-0.14007 -4.158082,-2.33651 -3.534555,-7.78723 3.002085,-0.63053 15.266184,-3.26834"
     id="25011"
     inkscape:label="Franklin, MA"
     inkscape:connector-curvature="0">
    <title>Franklin County, MA</title>
  </path>
  <path
     id="25007"
     style="font-size:12px;fill:none;fill-rule:nonzero;stroke:#000000;stroke-width:0.35030233999999999;stroke-linecap:butt;stroke-linejoin:bevel;stroke-miterlimit:4;stroke-opacity:1;stroke-dasharray:none;marker-start:none"
     d="m 138.4099,286.97387 5.35614,0.94581 0.42385,1.02639 0.4554,1.89514 -0.0307,0.26949 -9.42315,3.43996 -0.98083,-0.83372 1.2786,-4.01096 0.3503,-0.585 0.97734,-1.20155 1.22606,-1.33815 0.19276,0.0109 0.17524,0.37832 m -2.51165,-1.46776 -2.69734,3.41194 -0.79169,0.89677 -2.21041,1.73749 -1.1525,0.36434 -0.31178,-0.063 1.52732,-1.56236 2.97056,-3.26834 1.43624,-1.64291 1.22957,0.12612"
     inkscape:label="Dukes, MA"
     inkscape:connector-curvature="0">
    <title>Dukes County, MA</title>
  </path>
  <path
     style="font-size:12px;fill:none;fill-rule:nonzero;stroke:#000000;stroke-width:0.35030233999999999;stroke-linecap:butt;stroke-linejoin:bevel;stroke-miterlimit:4;stroke-opacity:1;stroke-dasharray:none;marker-start:none"
     d="m 133.06079,56.65003 -2.34003,-7.60856 -26.99429,7.73467 -9.079847,2.55721 -0.679585,-5.3351 -0.01498,-0.14011 0.03504,-0.11217 0.81971,-2.4311 2.301491,-6.75733 4.455851,-12.94718 6.00067,-17.36799 2.4451,-0.20317 2.90751,-0.0631 0.4414,0.12612 0.53246,0.72512 0.11214,0.19266 -0.2205,0.2978 -0.0306,0.0491 -0.0631,1.05441 1.57985,5.08639 0.45889,0.40986 0.2523,0.11208 4.72207,1.54484 1.21205,-1.05441 3.28583,-3.1282 3.62914,-3.29984 5.59082,-4.87972 0.77417,-0.44138 1.46777,-0.45889 1.37319,-0.12615 0.55347,0.11209 2.52568,0.85123 7.35636,3.14222 6.61722,4.1686 0.0946,0.2206 10.53008,33.64655 6.17584,19.95674 -0.49392,0.73913 -0.0307,0.42737 0.99486,4.46987 0.53597,0.44137 -6.79937,3.99346 -5.82904,3.36289 -0.0109,0.15782 0.0771,0.23473 -2.15178,1.21901 -2.27347,1.26106 -0.70761,-0.10853 -2.13046,-7.23377 -0.50796,-2.12984 -0.97734,-3.4715 -0.94932,-3.00208 -5.88859,-18.80075 -7.94135,1.73401 -3.73772,1.07192"
     id="23003"
     inkscape:label="Aroostook, ME"
     inkscape:connector-curvature="0">
    <title>Aroostook County, ME</title>
  </path>
  <path
     style="font-size:12px;fill:none;fill-rule:nonzero;stroke:#000000;stroke-width:0.35030233999999999;stroke-linecap:butt;stroke-linejoin:bevel;stroke-miterlimit:4;stroke-opacity:1;stroke-dasharray:none;marker-start:none"
     d="m 133.06079,56.65003 1.76552,6.31595 3.15624,10.7683 3.94789,13.73886 -3.80428,2.16138 1.75151,6.53663 3.06516,-1.59738 6.13729,11.70011 -1.21554,4.95678 -8.5544,4.46986 -5.89208,2.98457 -4.34025,3.55206 -3.03012,1.51682 -2.14735,-3.5836 -9.30053,-18.15617 -1.14899,-9.66485 1.27511,-5.44721 -2.62028,-4.7676 -2.11581,-2.39956 -4.3893,-15.04551 -1.87411,-7.91333 26.99429,-7.73467 2.34003,7.60856"
     id="23021"
     inkscape:label="Piscataquis, ME"
     inkscape:connector-curvature="0">
    <title>Piscataquis County, ME</title>
  </path>
  <path
     id="23013"
     style="font-size:12px;fill:none;fill-rule:nonzero;stroke:#000000;stroke-width:0.35030233999999999;stroke-linecap:butt;stroke-linejoin:bevel;stroke-miterlimit:4;stroke-opacity:1;stroke-dasharray:none;marker-start:none"
     d="m 163.95396,157.86991 -0.44138,0.98086 -0.29796,0.26962 -1.29613,0.70762 -0.34675,0.0804 -0.5815,-0.17524 -2.65177,-2.85498 -0.084,-0.12603 0.0665,-0.85473 0.33281,-0.93183 1.73399,-2.14734 0.64458,-0.34673 0.25232,0.18903 2.76739,4.01096 0.1681,0.36431 -0.1296,0.59551 -0.13667,0.23851 m -22.85723,-6.29844 0.28367,-0.75665 3.59761,-2.0843 7.18469,2.96706 1.59388,0.83723 -0.29798,3.15973 -0.0237,0.18565 0.0237,0.19268 0.50094,1.68846 0.4729,1.1525 1.156,0.96332 -3.3629,5.1004 -2.48015,1.57637 -3.03362,0.53946 0.21033,-2.60624 1.32414,-2.11583 -1.41873,-3.25082 -2.02475,-3.01959 -1.02638,0.4764 -1.10345,0.0804 -1.0404,-0.45889 -0.96684,-1.40821 -0.69358,-2.22442 0.31885,-0.5815 0.8057,-0.41337"
     inkscape:label="Knox, ME"
     inkscape:connector-curvature="0">
    <title>Knox County, ME</title>
  </path>
  <path
     style="font-size:12px;fill:none;fill-rule:nonzero;stroke:#000000;stroke-width:0.35030233999999999;stroke-linecap:butt;stroke-linejoin:bevel;stroke-miterlimit:4;stroke-opacity:1;stroke-dasharray:none;marker-start:none"
     d="m 132.58438,162.88976 3.38041,-0.15413 -1.57985,-4.50139 -0.17525,-2.41708 3.41196,-0.0911 0.26621,-0.25229 0.31887,-0.83721 -0.31887,-2.82695 3.20877,-0.23848 -0.80569,0.41335 -0.31885,0.58151 0.69359,2.22442 0.96684,1.4082 1.04038,0.45892 1.10346,-0.0804 1.0264,-0.47642 2.02474,3.01961 1.41872,3.25081 -1.32413,2.11583 -0.21037,2.60625 -0.81969,-0.0945 -0.63054,-0.0804 -0.48693,0.63054 -0.13663,0.15775 -0.0237,1.06142 0.2205,1.7515 -0.54996,3.2508 -0.26962,0.37834 -4.1686,1.86359 -0.99488,0.31526 -0.74262,0 -5.52427,-13.43759"
     id="23015"
     inkscape:label="Lincoln, ME"
     inkscape:connector-curvature="0">
    <title>Lincoln County, ME</title>
  </path>
  <path
     style="font-size:12px;fill:none;fill-rule:nonzero;stroke:#000000;stroke-width:0.35030233999999999;stroke-linecap:butt;stroke-linejoin:bevel;stroke-miterlimit:4;stroke-opacity:1;stroke-dasharray:none;marker-start:none"
     d="m 132.58438,162.88976 5.52427,13.43759 -5.10042,3.50653 -0.70759,-3.37692 -1.62541,-3.00209 -0.6971,0.88274 -1.82857,-0.0109 -1.45726,-0.85473 -0.70762,-1.00886 -0.9283,-6.73982 2.39607,-0.15781 1.07543,-0.84073 0.0771,-1.07192 0.063,-0.3153 0.28367,-0.52193 0.23475,-0.29799 3.06164,-0.17522 0.24148,0.30105 0.0946,0.24864"
     id="23023"
     inkscape:label="Sagadahoc, ME"
     inkscape:connector-curvature="0">
    <title>Sagadahoc County, ME</title>
  </path>
  <path
     style="font-size:12px;fill:none;fill-rule:nonzero;stroke:#000000;stroke-width:0.35030233999999999;stroke-linecap:butt;stroke-linejoin:bevel;stroke-miterlimit:4;stroke-opacity:1;stroke-dasharray:none;marker-start:none"
     d="m 111.35255,173.88224 -0.0193,0.0946 0.0947,0.14007 1.17001,0.47291 1.78655,0.28719 9.88202,1.30665 0.85122,-1.16651 0.86877,-2.5572 0.7076,1.00887 1.45726,0.85471 1.82857,0.0109 0.6971,-0.88276 1.62542,3.00211 0.7076,3.37691 -2.0983,1.02637 -1.63942,-0.99486 -0.80569,-2.32249 -0.30469,-0.21728 -0.28367,0.10857 -3.06166,4.00746 -1.24357,2.16488 -0.85473,3.52053 0,0.30105 0.63055,0.66207 0.17518,4.48387 -2.2139,1.89514 -1.40123,-0.47291 -3.82179,-1.43974 0.64455,-1.84609 -3.78326,-2.4136 -8.49834,-2.29097 0.36432,-7.04108 2.02125,-5.30357 0.51844,0.8197 0.85474,0.79168 0.2205,0.10857 1.23305,0.189 1.69196,-1.68846"
     id="23005"
     inkscape:label="Cumberland, ME"
     inkscape:connector-curvature="0">
    <title>Cumberland County, ME</title>
  </path>
  <path
     style="font-size:12px;fill:none;fill-rule:nonzero;stroke:#000000;stroke-width:0.35030233999999999;stroke-linecap:butt;stroke-linejoin:bevel;stroke-miterlimit:4;stroke-opacity:1;stroke-dasharray:none;marker-start:none"
     d="m 104.44809,186.00621 8.49834,2.29098 3.78326,2.41358 -0.64455,1.84609 3.82178,1.43974 1.40122,0.47292 -0.14006,3.14221 -3.80779,17.76033 -0.42387,1.91265 -0.15772,0.31533 -0.84072,0.72512 -4.41733,-1.76903 -1.22605,-4.92525 -0.0983,-0.10846 -3.8183,-2.277 -1.58336,-0.78816 -0.58151,-0.30105 -0.91779,-1.27509 -0.29798,-0.63404 -0.24148,-1.00888 -0.54999,-6.15832 -3.979433,-10.37246 6.221383,-2.70082"
     id="23031"
     inkscape:label="York, ME"
     inkscape:connector-curvature="0">
    <title>York County, ME</title>
  </path>
  <path
     style="font-size:12px;fill:none;fill-rule:nonzero;stroke:#000000;stroke-width:0.35030233999999999;stroke-linecap:butt;stroke-linejoin:bevel;stroke-miterlimit:4;stroke-opacity:1;stroke-dasharray:none;marker-start:none"
     d="m 113.71709,153.16887 3.04763,-2.19641 2.11583,4.18262 2.98106,7.60855 3.19477,2.95657 0.9283,6.73981 -0.86875,2.55723 -0.85123,1.16648 -9.88203,-1.30664 -1.78654,-0.28717 -1.17002,-0.47289 -0.0945,-0.14007 0.0193,-0.0945 -0.50793,-1.20154 2.904,-7.86079 0.29805,-1.34516 0,-5.90609 -1.0404,-2.15787 -0.17517,-1.15599 0.88626,-1.08594"
     id="23001"
     inkscape:label="Androscoggin, ME"
     inkscape:connector-curvature="0">
    <title>Androscoggin County, ME</title>
  </path>
  <path
     style="font-size:12px;fill:none;fill-rule:nonzero;stroke:#000000;stroke-width:0.35030233999999999;stroke-linecap:butt;stroke-linejoin:bevel;stroke-miterlimit:4;stroke-opacity:1;stroke-dasharray:none;marker-start:none"
     d="m 85.787475,123.18297 2.462626,5.71693 0.693599,5.00583 5.04086,11.85423 4.007458,-4.0705 5.258042,6.45607 7.81524,0.55347 1.7375,2.62026 0.91429,1.84961 -0.88626,1.08593 0.17521,1.15601 1.0404,2.15786 0,5.90609 -0.29799,1.34516 -2.904,7.86078 0.50794,1.20154 -1.69197,1.68847 -1.23305,-0.18898 -0.22049,-0.10857 -0.85474,-0.7917 -0.51844,-0.81971 -2.02125,5.30358 -0.36432,7.04109 -6.221365,2.70082 -6.452563,-21.36143 -5.923624,-18.83575 -0.472909,-1.51682 -6.680256,-20.14588 -1.215555,-3.4715 2.164864,-1.21555 4.35776,2.41358 0.441389,0.22049 0.917783,0.0109 0.0109,0 0.37831,-0.34674 0.06651,-0.17172 -0.03504,-1.10696"
     id="23017"
     inkscape:label="Oxford, ME"
     inkscape:connector-curvature="0">
    <title>Oxford County, ME</title>
  </path>
  <path
     style="font-size:12px;fill:none;fill-rule:nonzero;stroke:#000000;stroke-width:0.35030233999999999;stroke-linecap:butt;stroke-linejoin:bevel;stroke-miterlimit:4;stroke-opacity:1;stroke-dasharray:none;marker-start:none"
     d="m 121.42374,143.86833 3.37691,-0.80571 7.10765,-0.58498 0.3608,-0.42387 -0.16085,-1.97571 -1.07193,-0.78818 -0.42387,-0.12607 -0.55348,-0.571 -0.36431,-0.75666 -0.15772,-0.4729 4.35776,-2.1964 0.44138,-0.0109 0.2241,0.40985 0.0419,0.69362 0.95634,1.89513 2.14034,-0.29805 1.83559,4.02498 0.36431,3.96193 -1.61489,0.15778 -0.39584,5.81152 0.31884,2.82694 -0.31884,0.83724 -0.26619,0.25224 -3.41195,0.0911 0.17522,2.41708 1.57986,4.50139 -3.38041,0.15415 -0.0947,-0.24861 -0.24153,-0.30105 -3.06164,0.17527 -0.23478,0.29795 -0.2837,0.52195 -0.063,0.3153 -0.0772,1.07192 -1.07542,0.84073 -2.39607,0.15775 -3.19475,-2.95671 -2.98107,-7.60857 -2.11584,-4.18261 4.65902,-7.10413"
     id="23011"
     inkscape:label="Kennebec, ME"
     inkscape:connector-curvature="0">
    <title>Kennebec County, ME</title>
  </path>
  <path
     style="font-size:12px;fill:none;fill-rule:nonzero;stroke:#000000;stroke-width:0.35030233999999999;stroke-linecap:butt;stroke-linejoin:bevel;stroke-miterlimit:4;stroke-opacity:1;stroke-dasharray:none;marker-start:none"
     d="m 140.57127,133.1806 1.80056,-0.88626 1.75501,3.52053 9.94508,-5.63636 0.90029,0.59903 -0.22415,2.81291 0.0665,0.25227 0.19971,0.28367 0.82672,0.51844 1.06142,0.93531 1.18051,3.12471 0.17173,0.86874 0.0307,0.25224 -0.39235,0.23477 -3.39092,2.41709 -1.40822,0.99486 -0.1122,0.57098 0.42388,0.72514 0.30468,0.40984 0.42386,0.11214 0.26962,0.2205 0.64809,0.70762 0.20306,1.43624 0,0.45888 -1.4993,4.42083 -1.59387,-0.83724 -7.1847,-2.96705 -3.59761,2.0843 -0.28365,0.75666 -3.20878,0.23851 0.39586,-5.81151 1.61489,-0.15775 -0.36432,-3.96192 -1.83558,-4.02496 -2.14035,0.29798 -0.95632,-1.89513 5.96914,-3.07566"
     id="23027"
     inkscape:label="Waldo, ME"
     inkscape:connector-curvature="0">
    <title>Waldo County, ME</title>
  </path>
  <path
     id="23009"
     style="font-size:12px;fill:none;fill-rule:nonzero;stroke:#000000;stroke-width:0.35030233999999999;stroke-linecap:butt;stroke-linejoin:bevel;stroke-miterlimit:4;stroke-opacity:1;stroke-dasharray:none;marker-start:none"
     d="m 164.31827,147.10512 0.15775,-0.0631 0.26967,0.0771 1.65695,0.49043 0.50793,0.36431 0.36081,0.54998 0.23477,2.27345 -0.43788,1.24709 -0.65156,1.08943 -0.0947,0.0946 -0.2205,0.015 -1.3872,-0.74264 -0.20657,-0.25229 -0.72513,-2.16136 -0.0455,-0.17525 0.0596,-0.25229 0.20658,-0.0804 0.28367,-0.33283 0.26962,-1.4012 0,-0.31886 -0.0804,-0.28014 -0.15775,-0.14356 m 8.63845,-6.88343 1.67794,-1.27861 1.41172,-0.8057 1.8356,-0.17524 0.0307,0.0306 0.61302,0.63056 0.63405,1.01236 0.23466,0.64806 -0.26619,1.07192 -0.0147,0.049 -0.12609,0.12606 -0.91429,1.04039 -1.29611,0.37833 -0.37834,0.35031 -0.17172,0.40986 0.10127,0.42385 0.0875,0.14007 0.0947,0.0351 0.31527,0.5675 -0.53596,1.22954 -0.65158,0.30106 -2.30148,-0.70762 -0.85473,-0.79168 -0.66207,-0.94583 -0.17173,-0.60251 0.20309,-1.29262 0.78817,-1.40471 0.31887,-0.44139 m -17.9846,-9.44399 0.88627,-0.39234 1.70246,-0.94932 0.77767,-1.43623 2.03175,-1.51682 4.96029,-2.55722 -3.3489,-6.7258 -1.18403,-2.19288 3.6782,-1.88113 1.89862,-5.39816 -2.60974,-4.94277 7.12164,-3.72371 2.80942,5.28605 2.33653,4.97431 0.53946,2.25944 -3.07915,1.60789 3.9479,7.12164 2.25595,3.41195 0.96333,2.43109 0.14007,1.38721 1.94068,3.475 0.93529,1.65692 0.86877,1.35919 0.40984,0.44137 0.063,0.77417 -0.3643,0.67959 -0.2205,0.0596 -0.1717,-0.15773 -0.3503,-0.29799 -0.39233,0.58152 -0.12612,0.87225 -0.11217,0.61303 -0.0456,0.80569 -0.015,0.25226 0,0.36431 -0.36079,0.049 -0.0147,0 -0.23851,-0.0945 -1.77954,-1.80056 -0.49392,-0.63405 -0.80218,-1.82858 -0.17524,-0.61653 0.0307,-0.39584 -0.17521,-0.2837 -0.2205,-0.12609 -0.90029,0.11214 -1.22605,0.25229 -1.09645,0.2205 -1.11747,0.48692 -0.17525,1.59387 -1.18403,1.17003 -1.05792,0.72862 -0.71112,0.63055 -0.53595,1.0404 -0.14007,0.11222 -0.21028,0.0455 -0.23464,-0.15772 -0.28369,-1.08943 -0.0736,-0.58151 -0.41685,-0.28717 -0.2837,0.015 -0.18565,0.14007 -0.11566,0.2385 -0.0281,0.31527 0.4554,1.12097 0.38182,1.37319 -0.12606,0.1122 -0.39934,0.0771 -0.2837,-0.39232 -0.0419,-0.42737 -0.80571,-0.55348 -0.85472,1.02989 -0.47993,1.24708 0.51144,2.53969 0.0772,0.18906 0.12606,0.18903 0.33282,0.25229 0.571,-0.12604 0.3292,0.34671 0.71111,0.98085 0.049,0.2205 0.20308,1.08944 0.049,0.37832 -0.31183,0 -0.60601,-0.1577 -0.0281,-0.0804 -0.47643,-0.31526 -1.60788,-0.77066 -0.98086,-0.25581 -3.40492,-0.66207 -1.40822,0.4589 -0.56749,0.77066 -1.06493,0.11217 -0.0911,-0.18909 -0.98085,-4.07403 -0.0307,-0.88274 0.084,-0.11212 0.2523,-0.31529 0.12257,-1.34166 -0.0596,-0.50443 -0.3678,0.2205 -0.0307,-0.25224 -0.17172,-0.86877 -1.18053,-3.12468 -1.06141,-0.93531 -0.82672,-0.51845 -0.19971,-0.2837 -0.0665,-0.25229 0.22406,-2.81293"
     inkscape:label="Hancock, ME"
     inkscape:connector-curvature="0">
    <title>Hancock County, ME</title>
  </path>
  <path
     style="font-size:12px;fill:none;fill-rule:nonzero;stroke:#000000;stroke-width:0.35030233999999999;stroke-linecap:butt;stroke-linejoin:bevel;stroke-miterlimit:4;stroke-opacity:1;stroke-dasharray:none;marker-start:none"
     d="m 172.89018,78.36179 10.62818,0.49041 0.36431,-0.25574 0.63055,-0.22058 0.20309,0.0306 1.04389,0.78819 0.15781,0.28373 2.62027,8.29164 0.25224,1.5939 -0.36082,2.14735 -0.12944,0.22054 -0.52547,0.44139 0.0388,0.4764 1.2751,1.35566 2.83044,2.84097 1.86011,0.98084 0.063,0.0306 0.11217,0.0489 0.32919,0.0772 0.15786,-0.0306 0.79168,-1.15251 -0.12607,-0.74262 0,-1.24709 0.15772,-0.25228 0.39234,-0.0805 3.72722,0.17528 0.015,0 1.3872,1.01238 0.77767,0.69359 6.67677,8.13053 0.69359,1.35918 0.83723,2.00372 0.0631,0.31527 -0.83374,2.02124 -2.76387,5.69942 -0.72863,1.35918 -2.09832,2.30497 -1.18752,0.25227 -4.32274,2.06677 -10.35493,11.38483 -1.25058,0.64806 -1.05792,0.47291 -0.28367,0.0946 -0.40997,-0.44136 -0.86875,-1.3593 -0.9353,-1.65694 -1.94069,-3.47501 -0.14007,-1.38719 -0.96327,-2.43096 -2.25595,-3.41195 -3.94799,-7.12163 3.07915,-1.60788 -0.5397,-2.25942 -2.33652,-4.97429 -2.80942,-5.28608 0.88626,-0.34674 2.52218,-1.26458 -1.62541,-3.5836 -6.57867,-11.51094 6.79937,-3.99344"
     id="23029"
     inkscape:label="Washington, ME"
     inkscape:connector-curvature="0">
    <title>Washington County, ME</title>
  </path>
  <path
     style="font-size:12px;fill:none;fill-rule:nonzero;stroke:#000000;stroke-width:0.35030233999999999;stroke-linecap:butt;stroke-linejoin:bevel;stroke-miterlimit:4;stroke-opacity:1;stroke-dasharray:none;marker-start:none"
     d="m 166.09082,82.35523 6.57866,11.51093 1.62541,3.5836 -2.52218,1.26459 -0.88626,0.34673 -7.12165,3.72372 2.60976,4.94277 -1.89865,5.39816 -3.67818,1.88114 1.18403,2.19289 3.34889,6.72579 -4.96028,2.55721 -2.03176,1.51683 -0.77768,1.43622 -1.70245,0.94932 -0.88627,0.39234 -0.90029,-0.59902 -9.94508,5.63636 -1.75501,-3.52053 -1.80056,0.88627 -7.15317,-14.49551 5.89208,-2.98459 8.5544,-4.46986 1.21554,-4.95677 -6.13729,-11.70012 -3.06516,1.5974 -1.75151,-6.53665 3.80428,-2.16136 -3.94789,-13.73887 -3.15624,-10.76829 -1.76552,-6.31596 3.73772,-1.07191 7.94136,-1.73401 5.88859,18.80074 0.94932,3.00209 0.97735,3.47149 0.50793,2.12984 2.12984,7.23375 0.70761,0.1085 2.27346,-1.26108 2.15085,-1.21906 -0.0771,-0.23473 0.0109,-0.15784 5.82903,-3.3629"
     id="23019"
     inkscape:label="Penobscot, ME"
     inkscape:connector-curvature="0">
    <title>Penobscot County, ME</title>
  </path>
  <path
     style="font-size:12px;fill:none;fill-rule:nonzero;stroke:#000000;stroke-width:0.35030233999999999;stroke-linecap:butt;stroke-linejoin:bevel;stroke-miterlimit:4;stroke-opacity:1;stroke-dasharray:none;marker-start:none"
     d="m 89.619784,103.40139 4.172105,8.99929 6.077756,12.39368 3.930385,-0.15772 3.55206,-0.97734 0.69362,-0.36432 11.595,17.76035 1.78303,2.81292 -4.65902,7.10413 -3.04763,2.1964 -0.91429,-1.8496 -1.7375,-2.62027 -7.81524,-0.55347 -5.258042,-6.45609 -4.007458,4.07053 -5.04086,-11.85423 -0.693599,-5.00583 -2.462626,-5.71693 -0.03065,-1.5133 -0.03065,-1.45378 0.423853,-8.99925 0.441389,-2.41358 0.287169,-0.571 0.329225,-0.66206 0.77766,-1.40472 1.194536,-2.1929 0.09827,-0.16087 0.343232,-0.40986"
     id="23007"
     inkscape:label="Franklin, ME"
     inkscape:connector-curvature="0">
    <title>Franklin County, ME</title>
  </path>
  <path
     style="font-size:12px;fill:none;fill-rule:nonzero;stroke:#000000;stroke-width:0.35030233999999999;stroke-linecap:butt;stroke-linejoin:bevel;stroke-miterlimit:4;stroke-opacity:1;stroke-dasharray:none;marker-start:none"
     d="m 103.72647,56.77614 1.87411,7.91333 4.3893,15.04551 2.11581,2.39956 2.62028,4.7676 -1.27511,5.44721 1.14899,9.66485 9.30053,18.15617 2.14735,3.5836 3.03012,-1.51682 4.34025,-3.55206 7.15317,14.49551 -5.96916,3.07567 -0.0419,-0.69361 -0.22404,-0.40985 -0.4414,0.0109 -4.35777,2.19639 0.15776,0.47291 0.36432,0.75667 0.55347,0.57098 0.42387,0.12612 1.07192,0.78818 0.16086,1.9757 -0.36081,0.42387 -7.10764,0.585 -3.37692,0.8057 -1.78304,-2.81292 -11.59501,-17.76034 -0.6936,0.36431 -3.55206,0.97735 -3.930389,0.15772 -6.077751,-12.39369 -4.172097,-8.99927 0.255807,-0.31529 1.755008,-2.10182 4.074025,-9.85051 0.07362,-0.72511 -0.07362,-1.88114 -0.490442,-0.37832 -0.504421,-0.23481 -1.516813,0 -0.584956,-1.92967 -0.507938,-2.11232 -0.977349,-5.66789 0.395845,-3.06515 0.490417,-3.67818 0.01498,-0.0455 0.343235,-0.98083 0.304715,-0.47291 0.04188,-0.0303 0.08397,-0.0455 0.991923,-0.72819 1.751614,-2.71465 -0.360704,-2.88979 -0.535955,-4.21764 9.079826,-2.55722"
     id="23025"
     inkscape:label="Somerset, ME"
     inkscape:connector-curvature="0">
    <title>Somerset County, ME</title>
  </path>
  <path
     style="font-size:12px;fill:none;fill-rule:nonzero;stroke:#000000;stroke-width:0.35030233999999999;stroke-linecap:butt;stroke-linejoin:bevel;stroke-miterlimit:4;stroke-opacity:1;stroke-dasharray:none;marker-start:none"
     d="m 77.481811,123.37562 1.215561,3.47151 6.680256,20.1459 0.472901,1.51681 5.923621,18.83576 -0.462406,2.319 -9.013275,5.77997 -2.368058,-1.54481 -1.278593,-1.3907 -0.949324,-0.25226 -4.196602,-0.99486 -3.467997,-0.58501 -3.243811,-2.41707 0.676097,0.0631 1.012348,-0.74264 0.08043,-0.1226 0.441367,-0.57098 0.185623,-0.26954 0.129443,-0.20317 1.562356,-2.74636 0.157724,-0.26962 0,-0.0109 0.364306,-1.01237 0.423867,-3.9304 -0.819712,-1.32413 -0.140069,-0.22409 -0.791691,-0.98085 -1.450245,-1.78304 -1.187514,-1.17 -0.266215,-0.75315 0.04555,-11.08709 0.760174,-1.56234 -0.266215,-2.68331 0.756654,-8.16205 2.539686,-3.31738 0.350303,-0.24861 0.676086,0.34672 0.28367,0.564 0.143584,0.16085 1.012376,0.50444 1.656922,0.11214 1.387207,-0.28711 0.206575,-0.1717 0.756645,-2.99859"
     id="33007"
     inkscape:label="Coos, NH"
     inkscape:connector-curvature="0">
    <title>Coos County, NH</title>
  </path>
  <path
     style="font-size:12px;fill:none;fill-rule:nonzero;stroke:#000000;stroke-width:0.35030233999999999;stroke-linecap:butt;stroke-linejoin:bevel;stroke-miterlimit:4;stroke-opacity:1;stroke-dasharray:none;marker-start:none"
     d="m 64.678259,171.00627 2.115825,-2.74638 3.243811,2.41708 3.467997,0.58501 4.196602,0.99485 0.949324,0.25229 1.278593,1.39069 1.551851,2.23844 2.269972,3.45749 1.310121,6.85192 -6.109276,2.65179 1.779546,4.07401 0.711115,1.2786 1.106942,2.88999 -3.772745,2.68684 -1.184035,4.87619 -1.818069,0.58501 -2.57122,-1.68846 -0.931801,1.97221 -0.837212,2.38206 -2.073802,0.16086 -3.625628,0.14007 -3.678179,-0.5675 -3.916377,0.3153 2.003721,-8.50885 0.868763,-18.21923 -0.535961,-0.42737 -0.588508,-0.79169 -1.036905,-3.61511 0,-0.2837 0.108627,-0.4589 1.057903,-1.90914 0.09825,-0.0771 0.164535,-0.15775 2.185889,-1.35918 2.210413,-1.39069"
     id="33009"
     inkscape:label="Grafton, NH"
     inkscape:connector-curvature="0">
    <title>Grafton County, NH</title>
  </path>
  <path
     style="font-size:12px;fill:none;fill-rule:nonzero;stroke:#000000;stroke-width:0.35030233999999999;stroke-linecap:butt;stroke-linejoin:bevel;stroke-miterlimit:4;stroke-opacity:1;stroke-dasharray:none;marker-start:none"
     d="m 95.704537,201.25837 0.739148,-1.78654 1.278604,2.76388 3.597611,-1.10345 0.88624,-2.05276 0.55,6.15831 0.24147,1.00887 0.29805,0.63405 0.91779,1.27511 0.5815,0.30104 1.58336,0.78818 3.8183,2.27699 0.0983,0.10846 1.22605,4.92525 -0.99485,1.94418 -0.2837,0.40986 -6.29843,1.62889 0.80569,-2.86196 -8.58943,-4.08801 0.238506,-0.56749 1.56236,-3.75874 -1.56236,-3.50653 -1.278598,-3.07917 0.584999,-1.41872"
     id="33017"
     inkscape:label="Strafford, NH"
     inkscape:connector-curvature="0">
    <title>Strafford County, NH</title>
  </path>
  <path
     style="font-size:12px;fill:none;fill-rule:nonzero;stroke:#000000;stroke-width:0.35030233999999999;stroke-linecap:butt;stroke-linejoin:bevel;stroke-miterlimit:4;stroke-opacity:1;stroke-dasharray:none;marker-start:none"
     d="m 115.93801,218.3251 -1.36619,9.20595 -2.32599,0.14007 -0.95984,0.0631 -0.22049,0.11214 -0.25935,0.10857 -0.0109,0 -3.04413,2.25945 -2.33652,1.98971 -0.77066,0.66209 -0.42737,0.44487 -1.78305,3.5801 -3.727207,-0.40984 -3.142207,-1.92667 -1.106953,-2.46263 -0.788193,-1.71998 0.98084,-3.9304 1.513317,-12.8526 8.589403,4.08803 -0.80568,2.86198 6.29843,-1.6289 0.2837,-0.40987 0.99486,-1.94418 4.41731,1.76903"
     id="33015"
     inkscape:label="Rockingham, NH"
     inkscape:connector-curvature="0">
    <title>Rockingham County, NH</title>
  </path>
  <path
     style="font-size:12px;fill:none;fill-rule:nonzero;stroke:#000000;stroke-width:0.35030233999999999;stroke-linecap:butt;stroke-linejoin:bevel;stroke-miterlimit:4;stroke-opacity:1;stroke-dasharray:none;marker-start:none"
     d="m 59.150481,228.49438 0.935306,0.95983 1.940676,-0.32912 0.09462,-1.1525 0.837234,-0.52195 5.366636,-2.27347 -0.160857,1.57987 0.03509,0.80218 4.497878,-1.00886 0.599028,4.99181 0.711105,3.29984 1.800555,-0.42736 3.730719,6.31595 1.383714,3.23329 -11.458404,2.48014 -5.68542,1.21555 -3.611608,-2.90401 -0.935304,-2.00724 -0.143583,-0.45539 2.056277,-7.04108 -0.861752,-4.83066 -0.07029,-0.26962 -1.061406,-1.65693"
     id="33005"
     inkscape:label="Cheshire, NH"
     inkscape:connector-curvature="0">
    <title>Cheshire County, NH</title>
  </path>
  <path
     style="font-size:12px;fill:none;fill-rule:nonzero;stroke:#000000;stroke-width:0.35030233999999999;stroke-linecap:butt;stroke-linejoin:bevel;stroke-miterlimit:4;stroke-opacity:1;stroke-dasharray:none;marker-start:none"
     d="m 58.141614,208.20488 3.916377,-0.3153 3.678179,0.56749 3.625628,-0.14007 2.073802,-0.16085 -2.189404,6.09525 -0.381814,4.21764 1.544824,2.76039 1.12096,1.21555 1.422239,1.2821 -0.255862,2.82344 -4.497891,1.00887 -0.03504,-0.80219 0.160857,-1.57986 -5.36663,2.27346 -0.837221,0.52195 -0.09454,1.1525 -1.940684,0.32909 -0.935299,-0.95982 -0.126119,-3.33139 0.143475,-3.9479 -0.676075,-1.76902 -1.565853,-7.19871 1.215545,-4.0425"
     id="33019"
     inkscape:label="Sullivan, NH"
     inkscape:connector-curvature="0">
    <title>Sullivan County, NH</title>
  </path>
  <path
     style="font-size:12px;fill:none;fill-rule:nonzero;stroke:#000000;stroke-width:0.35030233999999999;stroke-linecap:butt;stroke-linejoin:bevel;stroke-miterlimit:4;stroke-opacity:1;stroke-dasharray:none;marker-start:none"
     d="m 72.952405,223.72677 2.823428,-1.64291 8.431774,0.36081 6.140805,3.28584 4.298211,0.71111 -0.980842,3.93039 0.788179,1.71998 1.106966,2.46264 3.142216,1.92667 3.727218,0.40983 -0.21031,0.47642 -0.8162,1.94068 -10.89791,2.51168 -0.140069,0.0307 -0.49043,0.1086 -7.986887,1.78655 -0.966835,0.2172 -1.383693,-3.2333 -3.730716,-6.31594 -1.800552,0.42735 -0.711113,-3.29983 -0.599023,-4.99182 0.255835,-2.82344"
     id="33011"
     inkscape:label="Hillsborough, NH"
     inkscape:connector-curvature="0">
    <title>Hillsborough County, NH</title>
  </path>
  <path
     style="font-size:12px;fill:none;fill-rule:nonzero;stroke:#000000;stroke-width:0.35030233999999999;stroke-linecap:butt;stroke-linejoin:bevel;stroke-miterlimit:4;stroke-opacity:1;stroke-dasharray:none;marker-start:none"
     d="m 81.44374,194.452 2.777882,1.7375 8.021941,4.45234 3.460974,0.61653 -0.584989,1.41873 1.278599,3.07916 1.562343,3.50652 -1.562343,3.75875 -4.249182,-1.76903 -7.563028,-2.97057 -1.481765,1.21907 -0.409858,-0.0489 -2.812928,-2.24193 -0.553479,-0.52195 -1.734005,-1.78305 1.184035,-4.87619 3.772745,-2.68683 -1.106942,-2.89"
     id="33001"
     inkscape:label="Belknap, NH"
     inkscape:connector-curvature="0">
    <title>Belknap County, NH</title>
  </path>
  <path
     style="font-size:12px;fill:none;fill-rule:nonzero;stroke:#000000;stroke-width:0.35030233999999999;stroke-linecap:butt;stroke-linejoin:bevel;stroke-miterlimit:4;stroke-opacity:1;stroke-dasharray:none;marker-start:none"
     d="m 77.593902,204.90502 1.734005,1.78305 0.553479,0.52195 2.812928,2.24193 0.409858,0.0489 1.481765,-1.21904 7.563028,2.97057 4.249182,1.76902 -0.238452,0.56748 -1.513307,12.85261 -4.298207,-0.71112 -6.1408,-3.28583 -8.431787,-0.36082 -2.82344,1.64291 -1.422228,-1.28209 -1.12096,-1.21556 -1.54484,-2.76038 0.381833,-4.21765 2.189401,-6.09525 0.837212,-2.38206 0.931806,-1.9722 2.571216,1.68845 1.818065,-0.585"
     id="33013"
     inkscape:label="Merrimack, NH"
     inkscape:connector-curvature="0">
    <title>Merrimack County, NH</title>
  </path>
  <path
     style="font-size:12px;fill:none;fill-rule:nonzero;stroke:#000000;stroke-width:0.35030233999999999;stroke-linecap:butt;stroke-linejoin:bevel;stroke-miterlimit:4;stroke-opacity:1;stroke-dasharray:none;marker-start:none"
     d="m 91.77415,167.3456 6.452566,21.36144 3.979424,10.37246 -0.88624,2.05276 -3.597611,1.10345 -1.278604,-2.76388 -0.739148,1.78654 -3.460974,-0.61653 -8.021941,-4.45234 -2.777882,-1.7375 -0.711115,-1.27862 -1.779546,-4.07399 6.109276,-2.6518 -1.310121,-6.85191 -2.269972,-3.45749 -1.551851,-2.23843 2.368058,1.54481 9.013275,-5.77997 0.462406,-2.319"
     id="33003"
     inkscape:label="Carroll, NH"
     inkscape:connector-curvature="0">
    <title>Carroll County, NH</title>
  </path>
  <path
     style="font-size:12px;fill:none;fill-rule:nonzero;stroke:#000000;stroke-width:0.35030233999999999;stroke-linecap:butt;stroke-linejoin:bevel;stroke-miterlimit:4;stroke-opacity:1;stroke-dasharray:none;marker-start:none"
     d="m 110.78155,282.63362 -0.90028,3.47151 -1.8671,2.89 -9.850503,2.85845 -0.500939,-1.89513 -0.980839,-3.72722 10.687721,-3.15622 0.0947,-0.0491 0.25226,-0.42734 -0.0946,-0.45539 0.0946,-0.45891 0.0984,-0.0945 1.00887,-0.58501 0.44137,0.0804 0.40985,0.30105 0.64807,0.74266 0.4589,0.50443"
     id="44003"
     inkscape:label="Kent, RI"
     inkscape:connector-curvature="0">
    <title>Kent County, RI</title>
  </path>
  <path
     style="font-size:12px;fill:none;fill-rule:nonzero;stroke:#000000;stroke-width:0.35030233999999999;stroke-linecap:butt;stroke-linejoin:bevel;stroke-miterlimit:4;stroke-opacity:1;stroke-dasharray:none;marker-start:none"
     d="m 102.75614,270.88449 4.14056,0.42736 4.49789,8.63495 -1.07193,2.1824 -0.64806,-0.74264 -0.40986,-0.30105 -0.44137,-0.0804 -1.00888,0.58501 -0.0984,0.0946 -0.0946,0.4589 0.0946,0.45538 -0.25232,0.42737 -0.0945,0.049 -10.687731,3.15621 -3.555569,-12.39369 9.62983,-2.95304"
     id="44007"
     inkscape:label="Providence, RI"
     inkscape:connector-curvature="0">
    <title>Providence County, RI</title>
  </path>
  <path
     style="font-size:12px;fill:none;fill-rule:nonzero;stroke:#000000;stroke-width:0.35030233999999999;stroke-linecap:butt;stroke-linejoin:bevel;stroke-miterlimit:4;stroke-opacity:1;stroke-dasharray:none;marker-start:none"
     d="m 110.78155,282.63362 -0.45889,-0.50442 1.07193,-2.1824 3.77626,2.10183 1.37317,1.27858 -1.37317,2.07031 -0.50444,0.83371 -0.0526,0.17527 -2.47663,-0.76017 -1.35568,-3.0126"
     id="44001"
     inkscape:label="Bristol, RI"
     inkscape:connector-curvature="0">
    <title>Bristol County, RI</title>
  </path>
  <path
     style="font-size:12px;fill:none;fill-rule:nonzero;stroke:#000000;stroke-width:0.35030233999999999;stroke-linecap:butt;stroke-linejoin:bevel;stroke-miterlimit:4;stroke-opacity:1;stroke-dasharray:none;marker-start:none"
     d="m 116.54402,283.32721 4.51191,7.15319 -1.19803,1.54484 -4.45236,2.16136 -1.2926,0.33282 -0.49044,-0.31532 -0.0136,-0.20312 0.99486,-7.54902 0.0109,-0.0455 0.0527,-0.17519 0.50443,-0.83371 1.37319,-2.0703"
     id="44005"
     inkscape:label="Newport, RI"
     inkscape:connector-curvature="0">
    <title>Newport County, RI</title>
  </path>
  <path
     style="font-size:12px;fill:none;fill-rule:nonzero;stroke:#000000;stroke-width:0.35030233999999999;stroke-linecap:butt;stroke-linejoin:bevel;stroke-miterlimit:4;stroke-opacity:1;stroke-dasharray:none;marker-start:none"
     d="m 98.163667,291.85358 9.850503,-2.85845 1.8671,-2.89 0.90028,2.7814 0.48693,3.31385 0.21365,1.42223 0.0388,0.56399 0.0306,0.85473 -0.0596,0.45891 -0.29082,1.81457 -0.48341,1.83207 -10.782314,5.46121 -0.917785,-0.0771 -0.854702,-12.67743"
     id="44009"
     inkscape:label="Washington, RI"
     inkscape:connector-curvature="0">
    <title>Washington County, RI</title>
  </path>
  <path
     style="font-size:12px;fill:none;fill-rule:nonzero;stroke:#000000;stroke-width:0.35030233999999999;stroke-linecap:butt;stroke-linejoin:bevel;stroke-miterlimit:4;stroke-opacity:1;stroke-dasharray:none;marker-start:none"
     d="m 55.801598,142.93653 12.176519,-3.38041 -0.760163,1.56234 -0.04555,11.08707 0.266214,0.75315 1.187529,1.17002 1.450236,1.78303 0.791699,0.98083 0.140069,0.22415 0.819707,1.32414 -0.423867,3.93039 -0.364304,1.01236 0,0.0109 -0.157778,0.26962 -1.56234,2.7464 -0.129579,0.20311 -0.185705,0.26962 -0.44138,0.57099 -0.08043,0.12257 -1.012392,0.74265 -0.676067,-0.0631 -2.115841,2.74637 -3.55206,-2.90394 -1.499306,-9.1569 1.373195,-3.69569 -3.790269,-1.45025 -1.264589,-0.49042 0.04899,-5.6679 -0.19268,-4.70455"
     id="50009"
     inkscape:label="Essex, VT"
     inkscape:connector-curvature="0">
    <title>Essex County, VT</title>
  </path>
  <path
     style="font-size:12px;fill:none;fill-rule:nonzero;stroke:#000000;stroke-width:0.35030233999999999;stroke-linecap:butt;stroke-linejoin:bevel;stroke-miterlimit:4;stroke-opacity:1;stroke-dasharray:none;marker-start:none"
     d="m 55.801598,142.93653 0.192788,4.70455 -0.04899,5.66789 1.264594,0.49043 -1.120976,2.7954 -0.837223,0.66211 -3.257786,-1.21908 -1.257595,5.89209 -1.040422,4.38579 -3.94793,-0.94581 -0.581485,-0.56749 -2.732358,-3.3629 -0.210334,-1.9582 -5.002297,-1.16652 -1.83208,-10.27786 20.412129,-5.1004"
     id="50019"
     inkscape:label="Orleans, VT"
     inkscape:connector-curvature="0">
    <title>Orleans County, VT</title>
  </path>
  <path
     style="font-size:12px;fill:none;fill-rule:nonzero;stroke:#000000;stroke-width:0.35030233999999999;stroke-linecap:butt;stroke-linejoin:bevel;stroke-miterlimit:4;stroke-opacity:1;stroke-dasharray:none;marker-start:none"
     d="m 46.413494,227.27885 -0.998358,-0.0804 0.188974,2.63776 0.79168,4.10555 -4.172097,0.75666 0.157724,0.94582 1.548336,7.46844 2.816429,-0.53598 1.76552,8.35123 -3.00209,0.63053 -7.829248,1.69197 -2.417088,-8.65246 -3.376916,-16.49925 12.470767,-2.4311 2.056277,1.61139"
     id="50003"
     inkscape:label="Bennington, VT"
     inkscape:connector-curvature="0">
    <title>Bennington County, VT</title>
  </path>
  <path
     style="font-size:12px;fill:none;fill-rule:nonzero;stroke:#000000;stroke-width:0.35030233999999999;stroke-linecap:butt;stroke-linejoin:bevel;stroke-miterlimit:4;stroke-opacity:1;stroke-dasharray:none;marker-start:none"
     d="m 15.607895,152.86759 1.972202,13.03826 -2.462625,8.03944 -0.521952,-0.44139 -0.945815,-1.76901 -1.607888,-9.42664 -1.155997,-7.40539 0.04905,-0.77416 4.673034,-1.26111"
     id="50013"
     inkscape:label="Grand Isle, VT"
     inkscape:connector-curvature="0">
    <title>Grand Isle County, VT</title>
  </path>
  <path
     style="font-size:12px;fill:none;fill-rule:nonzero;stroke:#000000;stroke-width:0.35030233999999999;stroke-linecap:butt;stroke-linejoin:bevel;stroke-miterlimit:4;stroke-opacity:1;stroke-dasharray:none;marker-start:none"
     d="m 44.753065,169.25474 7.482455,1.90915 0.126146,0.0983 0.238479,0.44137 -0.04893,0.72513 -2.364545,9.57026 -1.800539,-0.33282 -4.655528,4.01096 -0.462414,3.45397 -0.886271,3.75875 -2.000264,-0.26973 -8.102504,-4.15106 0.539466,-5.49275 -0.539466,-0.12612 0.94932,-5.9061 0.535963,-2.38206 5.303577,1.1665 4.81666,-2.49415 0.868752,-3.97942"
     id="50023"
     inkscape:label="Washington, VT"
     inkscape:connector-curvature="0">
    <title>Washington County, VT</title>
  </path>
  <path
     style="font-size:12px;fill:none;fill-rule:nonzero;stroke:#000000;stroke-width:0.35030233999999999;stroke-linecap:butt;stroke-linejoin:bevel;stroke-miterlimit:4;stroke-opacity:1;stroke-dasharray:none;marker-start:none"
     d="m 57.209811,153.7994 3.790274,1.45025 -1.373183,3.69571 1.49928,9.15688 3.552077,2.90403 -2.210407,1.39068 -2.185884,1.35918 -0.164562,0.1578 -0.0983,0.0772 -1.057913,1.90914 -0.108573,0.4589 0,0.28361 1.036907,3.61512 0.588512,0.79168 0.535954,0.42737 -4.483871,-0.53947 -4.137062,1.46777 -2.206914,-0.40634 2.364542,-9.57027 0.04893,-0.72513 -0.238424,-0.44137 -0.126092,-0.0983 -7.48245,-1.90913 0.994844,-3.88485 3.947905,0.9458 1.040404,-4.38578 1.257589,-5.89209 3.257813,1.21907 0.837213,-0.66209 1.120987,-2.7954"
     id="50005"
     inkscape:label="Caledonia, VT"
     inkscape:connector-curvature="0">
    <title>Caledonia County, VT</title>
  </path>
  <path
     style="font-size:12px;fill:none;fill-rule:nonzero;stroke:#000000;stroke-width:0.35030233999999999;stroke-linecap:butt;stroke-linejoin:bevel;stroke-miterlimit:4;stroke-opacity:1;stroke-dasharray:none;marker-start:none"
     d="m 37.221552,158.31479 5.002321,1.16652 0.21028,1.9582 2.732366,3.3629 0.581506,0.56749 -0.994862,3.88484 -0.868747,3.97943 -4.816651,2.49415 -5.30359,-1.16649 -5.69942,-7.04458 1.418724,-3.99346 2.42059,-4.10553 4.038985,-1.71999 1.278607,0.61652"
     id="50015"
     inkscape:label="Lamoille, VT"
     inkscape:connector-curvature="0">
    <title>Lamoille County, VT</title>
  </path>
  <path
     style="font-size:12px;fill:none;fill-rule:nonzero;stroke:#000000;stroke-width:0.35030233999999999;stroke-linecap:butt;stroke-linejoin:bevel;stroke-miterlimit:4;stroke-opacity:1;stroke-dasharray:none;marker-start:none"
     d="m 35.389474,148.03693 1.832078,10.27786 -1.278596,-0.61652 -4.038991,1.71999 -2.420591,4.10553 -1.418724,3.99346 -10.484553,-1.6114 -1.972202,-13.03826 19.781579,-4.83066"
     id="50011"
     inkscape:label="Franklin, VT"
     inkscape:connector-curvature="0">
    <title>Franklin County, VT</title>
  </path>
  <path
     style="font-size:12px;fill:none;fill-rule:nonzero;stroke:#000000;stroke-width:0.35030233999999999;stroke-linecap:butt;stroke-linejoin:bevel;stroke-miterlimit:4;stroke-opacity:1;stroke-dasharray:none;marker-start:none"
     d="m 17.580097,165.90585 10.484553,1.6114 5.699419,7.04458 -0.535963,2.38206 -0.949317,5.90609 0.539464,0.12612 -0.539464,5.49277 -1.436242,-3.75875 -1.895135,-1.1665 -7.717162,3.03012 -1.705973,0.18903 -1.057915,-5.49273 0.175147,-1.89515 -0.04905,-0.4904 -0.01755,-0.0269 -0.584915,-1.581 -0.451892,-0.98084 -1.502798,-1.81459 -0.917793,-0.53595 2.462627,-8.03945"
     id="50007"
     inkscape:label="Chittenden, VT"
     inkscape:connector-curvature="0">
    <title>Chitenden County, VT</title>
  </path>
  <path
     style="font-size:12px;fill:none;fill-rule:nonzero;stroke:#000000;stroke-width:0.35030233999999999;stroke-linecap:butt;stroke-linejoin:bevel;stroke-miterlimit:4;stroke-opacity:1;stroke-dasharray:none;marker-start:none"
     d="m 19.524277,186.76286 1.705973,-0.18901 7.717162,-3.03013 1.895135,1.16652 1.436242,3.75874 8.102495,4.15109 -0.823211,3.36289 -0.662077,1.99324 -1.37669,1.31012 -2.637771,2.22444 0.556981,1.20152 0.301274,0.53596 -2.480148,-0.33283 -3.930393,1.15248 -1.909148,0.72513 1.148993,3.0161 -4.753604,1.76901 -1.170009,-2.27347 -0.549973,-0.99487 -3.765753,-8.89066 -0.07003,-0.15416 0,-0.0109 -0.07706,-1.50278 0,-1.47128 0.0176,-3.73773 1.324144,-3.77626"
     id="50001"
     inkscape:label="Addison, VT"
     inkscape:connector-curvature="0">
    <title>Addison County, VT</title>
  </path>
  <path
     style="font-size:12px;fill:none;fill-rule:nonzero;stroke:#000000;stroke-width:0.35030233999999999;stroke-linecap:butt;stroke-linejoin:bevel;stroke-miterlimit:4;stroke-opacity:1;stroke-dasharray:none;marker-start:none"
     d="m 23.815481,209.57805 4.753605,-1.76902 -1.148994,-3.0161 1.90915,-0.72513 3.930392,-1.15249 2.480142,0.33282 2.326012,-2.05277 2.760377,0.64806 0.563999,0.61303 4.091521,5.08639 0.742642,9.55275 -1.394204,4.75361 -0.472909,3.81828 -12.470765,2.4311 -1.912651,-8.89066 -5.429687,-1.19805 -1.071927,-0.44489 -0.1261,-0.16807 -0.318775,-2.63778 0.178648,-1.83207 0.609526,-3.34889"
     id="50021"
     inkscape:label="Rutland, VT"
     inkscape:connector-curvature="0">
    <title>Rutland County, VT</title>
  </path>
  <path
     style="font-size:12px;fill:none;fill-rule:nonzero;stroke:#000000;stroke-width:0.35030233999999999;stroke-linecap:butt;stroke-linejoin:bevel;stroke-miterlimit:4;stroke-opacity:1;stroke-dasharray:none;marker-start:none"
     d="m 46.413494,227.27885 4.623983,0.39233 4.105556,-1.65693 3.881356,-0.85124 0.126119,3.33137 1.061442,1.65693 0.07016,0.26973 0.86175,4.83068 -2.056275,7.04107 0.143501,0.45541 0.935318,2.00723 3.611608,2.904 -15.266184,3.26833 -1.765507,-8.35122 -2.81644,0.53597 -1.548323,-7.46844 -0.157723,-0.94582 4.1721,-0.75665 -0.791683,-4.10555 -0.188974,-2.63778 0.998355,0.0804"
     id="50025"
     inkscape:label="Windham, VT"
     inkscape:connector-curvature="0">
    <title>Windham County, VT</title>
  </path>
  <path
     style="font-size:12px;fill:none;fill-rule:nonzero;stroke:#000000;stroke-width:0.35030233999999999;stroke-linecap:butt;stroke-linejoin:bevel;stroke-miterlimit:4;stroke-opacity:1;stroke-dasharray:none;marker-start:none"
     d="m 39.558073,195.98282 0.189137,0.69711 0.427366,0.67957 2.574727,0.2205 3.70619,0.44137 9.472188,1.08944 4.217632,0.585 -2.003721,8.50886 -1.215556,4.04249 1.565866,7.1987 0.676073,1.76903 -0.143556,3.9479 -3.881353,0.85124 -4.105564,1.65694 -4.623994,-0.39231 -2.056272,-1.61141 0.472909,-3.81829 1.394212,-4.7536 -0.742691,-9.55272 -4.09154,-5.08639 -0.563982,-0.61302 -2.760383,-0.64806 -2.326012,2.05278 -0.301266,-0.53596 -0.556978,-1.20153 2.637776,-2.22443 1.37669,-1.31013 0.662074,-1.99323"
     id="50027"
     inkscape:label="Windsor, VT"
     inkscape:connector-curvature="0">
    <title>Windsor County, VT</title>
  </path>
  <path
     style="font-size:12px;fill:none;fill-rule:nonzero;stroke:#000000;stroke-width:0.35030233999999999;stroke-linecap:butt;stroke-linejoin:bevel;stroke-miterlimit:4;stroke-opacity:1;stroke-dasharray:none;marker-start:none"
     d="m 61.014098,181.4768 -0.868763,18.21922 -4.217632,-0.585 -9.472186,-1.08944 -3.706187,-0.44138 -2.574733,-0.2205 -0.427357,-0.67958 -0.189138,-0.69712 0.823209,-3.36289 2.000234,0.26962 0.886251,-3.75875 0.462417,-3.45398 4.655512,-4.01098 1.800555,0.33283 2.206903,0.40635 4.137079,-1.46777 4.483868,0.53947"
     id="50017"
     inkscape:label="Orange, VT"
     inkscape:connector-curvature="0">
    <title>Orange County, VT</title>
  </path>
  <path
     style="fill:none;stroke:#221e1f;stroke-width:1.75151169000000007;stroke-linecap:butt;stroke-linejoin:round;stroke-miterlimit:4"
     d="m 114.57182,227.53105 -2.32599,0.14007 -0.95984,0.0631 -0.22049,0.11214 -0.25935,0.10857 -3.05814,2.25945 -2.33654,1.98971 -0.77066,0.66209 -0.42736,0.44487 -1.78303,3.5801 -0.21033,0.47641 -0.8162,1.94067 -10.897907,2.51168 -0.140068,0.0307 -0.490425,0.10852 -7.986893,1.78655 -0.966838,0.21728 -11.458377,2.48013 -5.68542,1.21556 -15.266175,3.26832 -3.002091,0.63053 -7.829261,1.69197 -0.290722,11.09757 -0.497433,19.9252 0.756657,1.53083 0.31528,-0.0771 14.194258,-3.0021 1.453749,-0.32923 16.229512,-3.83582 12.141487,-2.87598 1.103444,-0.21726 1.390697,-0.28716 8.428289,-2.00374 0.220497,0.66207 9.62982,-2.95304 4.14057,0.42737 4.49789,8.63496 3.77626,2.1018 1.37317,1.2786 4.51191,7.15319"
     id="path9425"
     inkscape:connector-curvature="0" />
  <path
     style="fill:none;stroke:#221e1f;stroke-width:1.75151169000000007;stroke-linecap:butt;stroke-linejoin:round;stroke-miterlimit:4"
     d="m 37.680451,253.25027 -2.417091,-8.65247 -3.376911,-16.49925 -1.912651,-8.89067 -5.429687,-1.19804 -1.071927,-0.44489 -0.126107,-0.16812 -0.318773,-2.63778 0.178652,-1.83208 0.609525,-3.3489 -1.17001,-2.27346 -0.549975,-0.99486 -3.765752,-8.89066 -0.07003,-0.15413 -0.07708,-1.51681 0,-1.47127 0.0176,-3.73773 1.324122,-3.77624 -1.057915,-5.49274 0.17515,-1.89514 -0.04905,-0.49042 -0.01757,-0.0272 -0.585012,-1.58091 -0.451894,-0.98063 -1.502797,-1.81456 -0.917792,-0.53597 -0.521952,-0.44139 -0.945815,-1.76902 -1.607888,-9.42663 -1.155997,-7.4054 0.04904,-0.77416"
     id="path9419"
     inkscape:connector-curvature="0" />
  <path
     style="fill:none;stroke:#221e1f;stroke-width:1.75151169000000007;stroke-linecap:butt;stroke-linejoin:round;stroke-miterlimit:4"
     d="m 115.93801,218.3251 -4.41732,-1.76902 -1.22605,-4.92525 -0.0984,-0.1086 -3.8183,-2.27697 -1.58336,-0.78818 -0.58151,-0.30105 -0.91779,-1.2751 -0.29799,-0.63405 -0.24147,-1.00886 -0.54996,-6.15832 -3.97944,-10.37244 -6.452549,-21.36146 -5.92361,-18.83577 -0.472915,-1.51683 -6.680269,-20.14587 -1.215544,-3.47151"
     id="path9381"
     inkscape:connector-curvature="0" />
  <path
     style="fill:none;stroke:#221e1f;stroke-width:1.75151169000000007;stroke-linecap:butt;stroke-linejoin:round;stroke-miterlimit:4"
     d="m 67.978117,139.55612 -0.760163,1.56234 -0.04555,11.08707 0.266214,0.75315 1.187529,1.17002 1.450236,1.78303 0.791699,0.98083 0.140069,0.22415 0.819707,1.32414 -0.423867,3.93039 -0.364304,1.01236 0,0.0109 -0.157778,0.26962 -1.56234,2.7464 -0.129579,0.20311 -0.185705,0.26962 -0.44138,0.57099 -0.08043,0.12257 -1.012392,0.74265 -0.676067,-0.0631 -2.115841,2.74637 -2.21041,1.39069 -2.185876,1.35917 -0.164562,0.15772 -0.0983,0.0771 -1.057898,1.90914 -0.108573,0.45891 0,0.28367 1.036892,3.61512 0.5885,0.79167 0.535974,0.42737 -0.868766,18.21924 -2.003721,8.50885 -1.215536,4.04249 1.565838,7.19871 0.676089,1.76903 -0.143583,3.9479 0.126092,3.33138 1.061412,1.65693 0.07008,0.26962 0.86175,4.83067 -2.056278,7.04107 0.143475,0.4554 0.935306,2.00723 3.611624,2.90401"
     id="path9379"
     inkscape:connector-curvature="0" />
  <path
     style="fill:none;stroke:#221e1f;stroke-width:1.75151169000000007;stroke-linecap:butt;stroke-linejoin:round;stroke-miterlimit:4"
     d="m 37.964196,285.7268 3.093166,17.17882 1.071934,6.25291 1.233063,7.23024 0.553474,3.18775 -1.071926,7.2933 -0.210307,0.20657 -2.459131,2.51167 3.531043,4.54343"
     id="path9377"
     inkscape:connector-curvature="0" />
  <path
     style="fill:none;stroke:#221e1f;stroke-width:1.75151169000000007;stroke-linecap:butt;stroke-linejoin:round;stroke-miterlimit:4"
     d="m 93.126311,273.83753 3.555578,12.3937 0.980839,3.72722 0.500939,1.89513 0.85474,12.67745"
     id="path9363"
     inkscape:connector-curvature="0" />
</svg>
