<?xml version="1.0" encoding="UTF-8" standalone="no"?>
<svg
   xmlns:dc="http://purl.org/dc/elements/1.1/"
   xmlns:cc="http://creativecommons.org/ns#"
   xmlns:rdf="http://www.w3.org/1999/02/22-rdf-syntax-ns#"
   xmlns:svg="http://www.w3.org/2000/svg"
   xmlns="http://www.w3.org/2000/svg"
   xmlns:sodipodi="http://sodipodi.sourceforge.net/DTD/sodipodi-0.dtd"
   xmlns:inkscape="http://www.inkscape.org/namespaces/inkscape"
   id="svg8"
   version="1.1"
   viewBox="0 0 121.14471 21.081226"
   height="21.081226mm"
   width="121.14471mm"
   sodipodi:docname="gobotany-logo.svg"
   inkscape:version="0.92.2 5c3e80d, 2017-08-06">
  <sodipodi:namedview
     pagecolor="#ffffff"
     bordercolor="#666666"
     borderopacity="1"
     objecttolerance="10"
     gridtolerance="10"
     guidetolerance="10"
     inkscape:pageopacity="0"
     inkscape:pageshadow="2"
     inkscape:window-width="1299"
     inkscape:window-height="812"
     id="namedview1408"
     showgrid="false"
     inkscape:zoom="1.3346141"
     inkscape:cx="276.59383"
     inkscape:cy="-65.682063"
     inkscape:window-x="33"
     inkscape:window-y="3"
     inkscape:window-maximized="0"
     inkscape:current-layer="svg8" />
  <defs
     id="defs2">
    <clipPath
       id="clip1">
      <path
         d="M 21,736.48047 H 318 V 767 H 21 Z m 0,0"
         id="path1239" />
    </clipPath>
    <clipPath
       id="clip2">
      <path
         d="m 302,783 h 41.40234 v 58 H 302 Z m 0,0"
         id="path1242" />
    </clipPath>
  </defs>
  <metadata
     id="metadata5">
    <rdf:RDF>
      <cc:Work
         rdf:about="">
        <dc:format>image/svg+xml</dc:format>
        <dc:type
           rdf:resource="http://purl.org/dc/dcmitype/StillImage" />
        <dc:title />
      </cc:Work>
    </rdf:RDF>
  </metadata>
  <g
     transform="translate(0.130821,-0.086705)"
     id="layer1">
    <g
       transform="translate(-21.07136,-48.51958)"
       id="g1331">
      <path
         style="fill:#f8f0d7;fill-opacity:1;fill-rule:nonzero;stroke:none;stroke-width:0.35277778"
         d="m 26.968078,58.711439 h 6.537413 v 3.808896 c 0,5.877334 -3.658691,7.167177 -6.206684,7.167177 -2.549371,0 -6.358268,-1.050064 -6.358268,-7.197492 v -6.927398 c 0,-5.547984 3.569119,-6.956337 6.358268,-6.956337 2.188325,0 6.296257,0.928797 6.206684,7.346322 l -4.55855,-0.08957 c 0.03032,-2.039496 -0.719336,-2.45842 -1.588878,-2.45842 -0.77997,0 -1.619195,0.449242 -1.619195,1.91823 v 7.648112 c 0,1.43867 0.749652,1.978861 1.649512,1.978861 0.839225,0 1.558561,-0.450617 1.558561,-1.710143 v -0.418924 h -1.978863 v -4.10931"
         id="path1251" />
      <path
         style="fill:#f8f0d7;fill-opacity:1;fill-rule:nonzero;stroke:none;stroke-width:0.35277778"
         d="m 43.700217,55.412416 c 0,-1.349099 -0.719336,-1.88929 -1.588878,-1.88929 -0.869542,0 -1.588878,0.540191 -1.588878,1.88929 v 7.528221 c 0,1.318783 0.719336,1.858974 1.588878,1.858974 0.869542,0 1.588878,-0.540191 1.588878,-1.858974 z m -7.976085,-0.118512 c 0,-4.708758 3.088184,-6.687619 6.387207,-6.687619 3.299024,0 6.387207,1.978861 6.387207,6.657301 v 7.736308 c 0,4.798328 -3.088183,6.687618 -6.387207,6.687618 -3.299023,0 -6.387207,-1.799717 -6.387207,-6.657301 v -7.736307"
         id="path1253" />
      <path
         style="fill:#f8f0d7;fill-opacity:1;fill-rule:nonzero;stroke:none;stroke-width:0.35277778"
         d="m 61.872405,61.021029 v 3.689008 h 0.928801 c 1.080382,0 1.649511,-0.749653 1.649511,-1.799717 0,-1.139638 -0.569129,-1.889291 -1.739085,-1.889291 z m 0,-3.928787 h 0.629765 c 1.198894,0 1.739085,-0.660079 1.739085,-1.739082 0,-1.10932 -0.509873,-1.708767 -1.590255,-1.708767 h -0.778595 z m -4.76801,11.995823 V 49.205732 h 5.757443 c 4.227822,0 6.027539,2.488735 6.027539,5.097361 0,2.579687 -1.649511,4.018361 -2.579687,4.499295 v 0.14883 c 1.679829,0.540191 2.939355,2.399164 2.939355,4.468975 0,3.268708 -1.889291,5.667872 -5.968284,5.667872 h -6.176366"
         id="path1255" />
      <path
         style="fill:#f8f0d7;fill-opacity:1;fill-rule:nonzero;stroke:none;stroke-width:0.35277778"
         d="m 79.084105,55.412416 c 0,-1.349099 -0.719339,-1.88929 -1.58888,-1.88929 -0.87092,0 -1.590255,0.540191 -1.590255,1.88929 v 7.528221 c 0,1.318783 0.719335,1.858974 1.590255,1.858974 0.869541,0 1.58888,-0.540191 1.58888,-1.858974 z m -7.977466,-0.118512 c 0,-4.708758 3.089564,-6.687619 6.388586,-6.687619 3.297647,0 6.387208,1.978861 6.387208,6.657301 v 7.736308 c 0,4.798328 -3.089561,6.687618 -6.387208,6.687618 -3.299022,0 -6.388586,-1.799717 -6.388586,-6.657301 v -7.736307"
         id="path1257" />
      <path
         style="fill:#f8f0d7;fill-opacity:1;fill-rule:nonzero;stroke:none;stroke-width:0.35277778"
         d="m 85.290788,49.205732 h 11.695409 v 4.648123 h -3.388596 v 15.23421 h -4.798328 v -15.23421 h -3.508485 v -4.648123"
         id="path1259" />
      <path
         style="fill:#f8f0d7;fill-opacity:1;fill-rule:nonzero;stroke:none;stroke-width:0.35277778"
         d="m 103.7937,55.202955 -1.01974,6.027536 h 2.18832 l -0.98943,-6.027536 z m -2.61,-5.997223 h 5.5783 l 4.55855,19.882333 h -4.91822 l -0.6904,-3.689007 h -3.74826 l -0.68902,3.689007 H 96.505262 L 101.1837,49.205732"
         id="path1261" />
      <path
         style="fill:#f8f0d7;fill-opacity:1;fill-rule:nonzero;stroke:none;stroke-width:0.35277778"
         d="m 117.58649,58.831327 h -0.18052 v 10.256738 h -4.4676 V 49.205732 h 5.06842 l 3.56774,9.265927 h 0.18053 v -9.265927 h 4.43866 v 19.882333 h -4.85897 l -3.74826,-10.256738"
         id="path1263" />
      <g
         style="clip-rule:nonzero"
         clip-path="url(#clip2)"
         id="g1267"
         transform="matrix(0.35277777,0,0,0.35277777,20.940539,-227.35137)">
        <path
           style="fill:#f8f0d7;fill-opacity:1;fill-rule:nonzero;stroke:none"
           d="m 329.80078,818.87891 v 21.42187 h -13.60156 v -21.42187 l -13.42969,-34.9375 h 14.28125 l 6.03516,18.87109 h 0.51172 l 6.03515,-18.87109 h 13.76953 l -13.60156,34.9375"
           id="path1265" />
      </g>
    </g>
  </g>
  <path
     style="fill:#21555c;fill-opacity:1;stroke:none;stroke-width:0.5451014;stroke-miterlimit:4;stroke-dasharray:none;stroke-opacity:1"
     d="M 16.974546,78.7973 C 8.7600372,76.621844 4.0564764,72.04972 1.4968808,63.752138 0.0973324,59.215149 -0.14325261,54.85859 0.0294732,37.180056 0.21244246,18.453097 0.31032371,17.607654 2.927308,12.15019 6.6244566,4.4401484 14.220926,0.09765304 23.979344,0.11586747 34.458452,0.13542706 41.84986,4.8800729 45.318931,13.814041 c 1.143413,2.944659 2.182859,8.701171 2.186575,12.109404 l 0.0022,2.024434 -4.5545,-0.244894 C 40.448242,27.568294 36.595094,27.458092 34.390668,27.458092 H 30.38262 l -0.23147,-2.478761 c -0.439537,-4.706895 -2.18602,-6.699922 -5.871121,-6.699922 -2.369101,0 -3.566312,0.613307 -5.034494,2.579069 -0.750682,1.005096 -0.775318,1.52654 -0.87505,18.52154 l -0.102621,17.487325 0.851901,1.677309 c 1.106536,2.178659 2.728915,3.112731 5.406465,3.112731 3.37966,0 5.304341,-1.933619 5.643079,-5.669283 l 0.209028,-2.305198 H 26.579903 22.781468 V 46.002779 38.322656 H 35.180062 47.578655 L 47.424033,48.5316 c -0.178223,11.767308 -0.507562,13.805118 -3.106999,19.224662 -1.324544,2.761536 -2.115551,3.855186 -4.233253,5.852917 -2.941828,2.775173 -6.348228,4.58144 -10.166613,5.390921 -3.512973,0.744732 -9.73274,0.647277 -12.942622,-0.2028 z"
     id="path5643"
     inkscape:connector-curvature="0"
     transform="scale(0.26458333)" />
  <path
     style="fill:#21555c;fill-opacity:1;stroke:none;stroke-width:1.09020281;stroke-miterlimit:4;stroke-dasharray:none;stroke-opacity:1"
     d="M 71.271042,78.352713 C 63.984725,75.984006 58.487768,69.996455 56.882021,62.679503 56.32671,60.149102 56.119913,51.582682 56.282323,37.837421 56.512206,18.381757 56.644837,16.60985 58.107942,13.447745 63.027461,2.8155363 74.889126,-2.2610064 87.071239,1.0520632 93.977373,2.9302681 98.207372,6.3473963 101.23224,12.491771 l 2.50263,5.083571 v 22.494164 c 0,21.291299 -0.0844,22.676502 -1.57772,25.903992 -2.227012,4.813072 -5.904009,8.727733 -10.343312,11.011839 -3.119673,1.605138 -5.041276,2.004077 -10.557374,2.191794 -4.353356,0.148148 -7.892578,-0.144056 -9.985422,-0.824418 z m 12.3788,-18.721289 2.102303,-1.808326 V 39.709296 21.595492 l -1.768888,-1.432359 c -2.617615,-2.119616 -6.392521,-1.872923 -8.292012,0.541889 -1.468526,1.866927 -1.552944,2.908241 -1.552944,19.155905 0,17.891728 0.269952,19.630302 3.233423,20.824312 2.686563,1.082442 4.063217,0.851363 6.278118,-1.053815 z"
     id="path5661"
     inkscape:connector-curvature="0"
     transform="scale(0.26458333)" />
  <path
     style="fill:#21555c;fill-opacity:1;stroke:none;stroke-width:1.09020281;stroke-miterlimit:4;stroke-dasharray:none;stroke-opacity:1"
     d="M 136.32856,39.642865 V 2.1110956 l 14.79829,0.2663652 c 13.507,0.2431223 15.12519,0.415994 18.54469,1.9811289 9.38782,4.2968992 13.40978,13.0558173 10.53533,22.9435813 -0.95271,3.277201 -2.13845,5.206846 -4.89088,7.959275 l -3.63328,3.63328 2.51332,1.482893 c 10.19673,6.01622 11.07977,23.847718 1.5835,31.97617 -4.81376,4.120403 -8.44265,4.820846 -24.976,4.820846 h -14.47497 z m 25.7219,20.110134 c 2.81689,-2.059761 2.83383,-9.53996 0.0263,-11.592912 -0.71958,-0.526165 -2.59258,-0.956663 -4.16223,-0.956663 h -2.85391 v 6.743522 6.743523 h 2.85391 c 1.56965,0 3.43084,-0.421862 4.13598,-0.93747 z m -0.15344,-29.492483 c 0.99403,-0.899582 1.40563,-2.301101 1.40563,-4.78622 0,-4.139362 -1.44303,-5.836264 -5.52667,-6.498947 l -2.71541,-0.440651 v 6.939598 6.939598 l 2.71541,-0.440651 c 1.49348,-0.242358 3.34795,-1.013085 4.12104,-1.712727 z"
     id="path5663"
     inkscape:connector-curvature="0"
     transform="scale(0.26458333)" />
  <path
     style="fill:#21555c;fill-opacity:1;stroke:none;stroke-width:1.09020281;stroke-miterlimit:4;stroke-dasharray:none;stroke-opacity:1"
     d="M 206.01163,78.763693 C 198.87715,76.426074 193.50315,71.380486 191.23854,64.8934 190.07487,61.560016 189.9021,58.25605 189.9021,39.335981 V 17.606853 l 1.9354,-4.125601 c 2.45533,-5.2339125 5.93854,-8.7171205 11.17245,-11.1724475 5.71712,-2.68201157 15.75811,-2.77948742 21.35905,-0.2073493 7.91662,3.6355847 11.94292,9.7902708 13.23167,20.2262328 1.1547,9.350491 0.391,36.853398 -1.16092,41.807748 -1.77375,5.662514 -5.65781,10.292997 -10.70517,12.762437 -3.57217,1.747704 -5.39937,2.125304 -11.06427,2.286496 -3.73201,0.106196 -7.62842,-0.08311 -8.65868,-0.420676 z m 12.1758,-19.686743 c 1.1679,-1.380218 1.31124,-3.480617 1.31124,-19.213725 0,-17.104912 -0.0516,-17.719005 -1.62917,-19.398279 -2.97017,-3.1616 -8.08884,-2.029395 -9.53122,2.108222 -1.20277,3.450283 -1.09092,32.683867 0.13432,35.105413 1.95568,3.865163 7.01169,4.592934 9.71483,1.398369 z"
     id="path5665"
     inkscape:connector-curvature="0"
     transform="scale(0.26458333)" />
  <path
     style="fill:#21555c;fill-opacity:1;stroke:none;stroke-width:1.09020281;stroke-miterlimit:4;stroke-dasharray:none;stroke-opacity:1"
     d="m 256.21341,48.327344 v -28.84729 h -6.36889 -6.36888 V 10.863331 2.2466078 h 22.10377 22.10377 v 8.6167232 8.616723 h -6.36888 -6.36889 v 28.84729 28.847291 h -9.366 -9.366 z"
     id="path5667"
     inkscape:connector-curvature="0"
     transform="scale(0.26458333)" />
  <path
     style="fill:#21555c;fill-opacity:1;stroke:none;stroke-width:1.09020281;stroke-miterlimit:4;stroke-dasharray:none;stroke-opacity:1"
     d="m 286.29105,74.387302 c 0.38928,-1.557748 4.35186,-18.342371 8.80573,-37.299162 l 8.09796,-34.466892 10.58218,-0.2077744 c 10.47248,-0.2056207 10.58633,-0.1900875 10.98279,1.4985605 0.22033,0.9384842 3.9457,17.2164369 8.27859,36.1732269 4.3329,18.956791 8.0616,35.056951 8.28602,35.778133 0.37359,1.200579 -0.38163,1.311241 -8.94894,1.311241 h -9.35696 l -0.40588,-2.060521 c -0.22323,-1.133286 -0.80195,-4.179524 -1.28603,-6.769418 l -0.88016,-4.708897 -7.20048,0.213215 -7.20049,0.213216 -1.1292,6.368882 -1.12919,6.368883 -9.10186,0.209791 -9.10186,0.209783 z m 31.35613,-26.621918 c -0.004,-0.103026 -0.84366,-5.076374 -1.86599,-11.051884 -1.02234,-5.97551 -1.86204,-11.173642 -1.866,-11.551404 -0.004,-0.377762 -0.18946,-0.504587 -0.41221,-0.281832 -0.34232,0.342323 -4.06216,20.848242 -4.08347,22.51048 -0.004,0.309078 1.84726,0.56196 4.11384,0.56196 2.26657,0 4.1178,-0.08429 4.11383,-0.18732 z"
     id="path5669"
     inkscape:connector-curvature="0"
     transform="scale(0.26458333)" />
  <path
     style="fill:#21555c;fill-opacity:1;stroke:none;stroke-width:1.09020281;stroke-miterlimit:4;stroke-dasharray:none;stroke-opacity:1"
     d="M 347.6256,39.710621 V 2.2466078 h 9.62797 9.62796 l 6.59424,17.2334462 c 3.62683,9.478395 6.88071,17.233446 7.23084,17.233446 0.35013,0 0.6366,-7.755051 0.6366,-17.233446 V 2.2466078 h 8.24208 8.24209 V 39.710621 77.174635 h -9.23554 -9.23555 l -7.0613,-19.293967 -7.0613,-19.293967 -0.19997,19.293967 -0.19997,19.293967 h -8.60408 -8.60407 z"
     id="path5671"
     inkscape:connector-curvature="0"
     transform="scale(0.26458333)" />
  <path
     style="fill:#21555c;fill-opacity:1;stroke:none;stroke-width:1.09020281;stroke-miterlimit:4;stroke-dasharray:none;stroke-opacity:1"
     d="M 421.80435,63.290406 V 49.406178 l -8.70473,-22.643185 c -4.7876,-12.453751 -8.87377,-23.0750275 -9.08037,-23.6028356 -0.29597,-0.7560864 1.66101,-0.9150265 9.22561,-0.7492803 l 9.60126,0.2103709 4.04837,12.700468 c 2.53591,7.955591 4.25607,12.294506 4.60432,11.613844 0.30577,-0.597643 2.21142,-6.391297 4.23478,-12.874787 l 3.67884,-11.7881642 9.25885,-0.013 c 7.11576,-0.00999 9.1702,0.2037888 8.87585,0.9235998 -0.21066,0.5151301 -4.29284,10.9743454 -9.07153,23.2427024 l -8.68853,22.306101 v 14.221312 14.221311 h -8.99136 -8.99136 z"
     id="path5673"
     inkscape:connector-curvature="0"
     transform="scale(0.26458333)" />
</svg>
