<?xml version="1.0" encoding="UTF-8" standalone="no"?>
<!-- Created with Inkscape (http://www.inkscape.org/) -->

<svg
   xmlns:dc="http://purl.org/dc/elements/1.1/"
   xmlns:cc="http://creativecommons.org/ns#"
   xmlns:rdf="http://www.w3.org/1999/02/22-rdf-syntax-ns#"
   xmlns:svg="http://www.w3.org/2000/svg"
   xmlns="http://www.w3.org/2000/svg"
   xmlns:sodipodi="http://sodipodi.sourceforge.net/DTD/sodipodi-0.dtd"
   xmlns:inkscape="http://www.inkscape.org/namespaces/inkscape"
   width="128.46985mm"
   height="67.883507mm"
   viewBox="0 0 128.46985 67.883507"
   version="1.1"
   id="svg8"
   inkscape:version="0.92.2 5c3e80d, 2017-08-06"
   sodipodi:docname="npt-logo-stacked.svg">
  <defs
     id="defs2">
    <clipPath
       id="clipPath4083"
       clipPathUnits="userSpaceOnUse">
      <path
         inkscape:connector-curvature="0"
         id="path4081"
         d="M 0,194.001 H 364.167 V 0 H 0 Z" />
    </clipPath>
  </defs>
  <sodipodi:namedview
     id="base"
     pagecolor="#ffffff"
     bordercolor="#666666"
     borderopacity="1.0"
     inkscape:pageopacity="0.0"
     inkscape:pageshadow="2"
     inkscape:zoom="1.3495796"
     inkscape:cx="176.41648"
     inkscape:cy="82.3323"
     inkscape:document-units="mm"
     inkscape:current-layer="layer1"
     showgrid="false"
     inkscape:window-width="1436"
     inkscape:window-height="855"
     inkscape:window-x="4"
     inkscape:window-y="1"
     inkscape:window-maximized="1"
     fit-margin-top="0"
     fit-margin-left="0"
     fit-margin-right="0"
     fit-margin-bottom="0" />
  <metadata
     id="metadata5">
    <rdf:RDF>
      <cc:Work
         rdf:about="">
        <dc:format>image/svg+xml</dc:format>
        <dc:type
           rdf:resource="http://purl.org/dc/dcmitype/StillImage" />
        <dc:title></dc:title>
      </cc:Work>
    </rdf:RDF>
  </metadata>
  <g
     inkscape:label="Layer 1"
     inkscape:groupmode="layer"
     id="layer1"
     transform="translate(-0.09140545,-0.07419389)">
    <g
       transform="matrix(0.35277777,0,0,-0.35277777,0.09133489,68.074261)"
       inkscape:label="NPT_logo_stacked_screen_RGB green"
       id="g4075">
      <g
         id="g4077">
        <g
           clip-path="url(#clipPath4083)"
           id="g4079">
          <g
             transform="translate(205.2565,63.0403)"
             id="g4085">
            <path
               inkscape:connector-curvature="0"
               id="path4087"
               style="fill:#028676;fill-opacity:1;fill-rule:nonzero;stroke:none"
               d="m 0,0 h -14.145 v -50.596 c 0,-2.402 -0.6,-4.564 -1.801,-6.486 -1.201,-1.923 -2.854,-3.364 -4.956,-4.325 v -0.18 H 6.667 v 0.18 c -2.042,0.961 -3.664,2.402 -4.865,4.325 C 0.601,-55.16 0,-52.998 0,-50.596 Z" />
          </g>
          <g
             transform="translate(189.0954,139.7845)"
             id="g4089">
            <path
               inkscape:connector-curvature="0"
               id="path4091"
               style="fill:#028676;fill-opacity:1;fill-rule:nonzero;stroke:none"
               d="m 0,0 v 24.268 c 0,3.139 -0.951,5.689 -2.853,7.65 -1.901,1.963 -4.934,2.944 -9.1,2.944 -3.984,0 -8.874,-0.513 -14.669,-1.54 l -7.515,-10.051 0.181,-0.181 c 7.727,6.882 13.19,10.323 16.39,10.323 1.629,0 2.912,-0.664 3.848,-1.992 0.935,-1.328 1.403,-2.988 1.403,-4.981 0,-2.534 -0.815,-4.633 -2.445,-6.293 -1.63,-1.66 -4.769,-3.878 -9.417,-6.655 -4.407,-2.596 -7.485,-4.829 -9.236,-6.7 -1.751,-1.872 -2.626,-4.377 -2.626,-7.516 0,-2.777 0.981,-5.267 2.943,-7.471 1.962,-2.203 4.814,-3.305 8.557,-3.305 3.259,0 7.213,1.962 11.862,5.886 v -5.433 H 4.799 v 0.181 C 2.687,-9.779 1.358,-8.421 0.814,-6.791 0.271,-5.161 0,-2.897 0,0 m -17.748,-7.062 c -1.509,0 -2.912,0.89 -4.21,2.67 -1.299,1.781 -1.948,3.97 -1.948,6.565 v 0.996 c 0.122,4.105 1.057,7.274 2.807,9.508 1.027,1.268 3.834,3.773 8.422,7.515 V -0.905 c 0,-1.871 -0.483,-3.366 -1.449,-4.483 -0.966,-1.116 -2.173,-1.674 -3.622,-1.674" />
          </g>
          <g
             transform="translate(139.0388,190.6429)"
             id="g4093">
            <path
               inkscape:connector-curvature="0"
               id="path4095"
               style="fill:#028676;fill-opacity:1;fill-rule:nonzero;stroke:none"
               d="M 0,0 V -0.181 C 2.113,-1.147 3.773,-2.596 4.98,-4.528 6.187,-6.46 6.792,-8.633 6.792,-11.047 V -39.358 L -26.712,0 h -19.106 v -0.181 c 2.113,-0.966 3.773,-2.415 4.981,-4.347 1.207,-1.932 1.81,-4.105 1.81,-6.519 v -39.811 c 0,-2.415 -0.603,-4.588 -1.81,-6.519 -1.208,-1.933 -2.868,-3.381 -4.981,-4.347 v -0.181 h 14.941 v 0.181 c -2.113,0.966 -3.773,2.414 -4.98,4.347 -1.207,1.931 -1.811,4.104 -1.811,6.519 V -9.417 L 7.878,-63.173 H 8.15 v 52.126 c 0,2.414 0.603,4.587 1.81,6.519 1.207,1.932 2.868,3.381 4.98,4.347 V 0 Z" />
          </g>
          <g
             transform="translate(269.5641,174.0125)"
             id="g4097">
            <path
               inkscape:connector-curvature="0"
               id="path4099"
               style="fill:#028676;fill-opacity:1;fill-rule:nonzero;stroke:none"
               d="M 0,0 V -0.181 C 2.295,-0.966 3.668,-2.234 4.121,-3.984 4.573,-5.735 4.256,-7.848 3.17,-10.323 l -6.882,-18.019 -7.244,18.654 c -1.087,2.292 -1.449,4.24 -1.087,5.839 0.362,1.6 1.751,2.822 4.166,3.668 V 0 h -21.642 v -0.181 c 1.389,-1.027 3.38,-4.648 5.977,-10.866 l 14.216,-34.228 h 0.181 l 13.311,34.137 c 2.414,6.158 4.225,9.81 5.433,10.957 V 0 Z m 32.875,-35.948 c -3.562,0 -6.746,1.404 -9.554,4.211 -2.806,2.806 -4.3,7.107 -4.482,12.902 h 26.983 c -0.361,6.037 -2.203,10.821 -5.522,14.353 -3.321,3.531 -7.365,5.297 -12.134,5.297 -2.475,0 -4.92,-0.498 -7.334,-1.494 -2.415,-0.997 -4.634,-2.43 -6.655,-4.301 -2.024,-1.872 -3.668,-4.347 -4.936,-7.426 -1.267,-3.078 -1.901,-6.519 -1.901,-10.322 0,-7.485 1.992,-13.251 5.976,-17.295 3.985,-4.044 8.572,-6.066 13.763,-6.066 4.407,0 8.18,1.584 11.319,4.753 3.139,3.169 5.373,6.867 6.701,11.092 l -0.182,0.091 c -3.983,-3.864 -7.998,-5.795 -12.042,-5.795 m -6.61,35.676 c 2.112,0 3.879,-1.6 5.297,-4.799 1.417,-3.2 2.218,-7.365 2.399,-12.495 H 18.839 c 0,5.613 0.785,9.899 2.354,12.857 1.57,2.958 3.26,4.437 5.072,4.437" />
          </g>
          <g
             transform="translate(31.6022,124.1546)"
             id="g4101">
            <path
               inkscape:connector-curvature="0"
               id="path4103"
               style="fill:#028676;fill-opacity:1;fill-rule:nonzero;stroke:none"
               d="m 0,0 h -31.602 v -0.181 c 2.113,-0.965 3.773,-2.415 4.98,-4.346 1.207,-1.932 1.811,-4.105 1.811,-6.52 v -39.81 c 0,-2.415 -0.604,-4.589 -1.811,-6.52 -1.207,-1.932 -2.867,-3.381 -4.98,-4.347 v -0.18 h 27.708 v 0.18 c -2.052,0.966 -3.682,2.415 -4.889,4.347 -1.208,1.931 -1.812,4.105 -1.812,6.52 v 17.083 c 2.235,-0.302 4.679,-0.454 7.335,-0.454 7.485,0 13.115,1.54 16.888,4.619 3.773,3.078 5.659,7.213 5.659,12.405 0,5.372 -1.902,9.583 -5.704,12.632 C 9.779,-1.523 5.252,0 0,0 m -6.701,-32.688 c -1.328,0 -2.626,0.09 -3.894,0.272 v 31.148 h 0.635 c 4.165,0 7.621,-1.599 10.367,-4.798 2.747,-3.201 4.12,-7.214 4.12,-12.043 0,-5.011 -1.01,-8.694 -3.033,-11.048 -2.022,-2.354 -4.754,-3.531 -8.195,-3.531" />
          </g>
          <g
             transform="translate(109.7404,73.2972)"
             id="g4105">
            <path
               inkscape:connector-curvature="0"
               id="path4107"
               style="fill:#028676;fill-opacity:1;fill-rule:nonzero;stroke:none"
               d="m 0,0 v 24.268 c 0,3.138 -0.95,5.689 -2.852,7.65 -1.901,1.962 -4.935,2.943 -9.1,2.943 -3.985,0 -8.874,-0.512 -14.67,-1.54 l -7.515,-10.05 0.181,-0.181 c 7.727,6.882 13.19,10.322 16.39,10.322 1.629,0 2.913,-0.664 3.848,-1.991 0.936,-1.328 1.404,-2.989 1.404,-4.981 0,-2.535 -0.815,-4.633 -2.445,-6.294 -1.631,-1.659 -4.769,-3.877 -9.417,-6.655 -4.407,-2.595 -7.486,-4.829 -9.237,-6.7 -1.751,-1.871 -2.626,-4.377 -2.626,-7.516 0,-2.776 0.981,-5.267 2.943,-7.47 1.962,-2.203 4.815,-3.305 8.557,-3.305 3.26,0 7.214,1.962 11.862,5.886 v -5.433 H 4.799 v 0.181 C 2.687,-9.779 1.358,-8.421 0.815,-6.792 0.272,-5.161 0,-2.898 0,0 m -17.747,-7.062 c -1.509,0 -2.913,0.889 -4.211,2.67 -1.298,1.781 -1.947,3.969 -1.947,6.565 v 0.996 c 0.121,4.104 1.057,7.273 2.807,9.508 1.026,1.267 3.833,3.772 8.421,7.515 V -0.905 c 0,-1.872 -0.483,-3.366 -1.449,-4.483 -0.966,-1.117 -2.173,-1.674 -3.621,-1.674" />
          </g>
          <g
             transform="translate(50.4387,62.2503)"
             id="g4109">
            <path
               inkscape:connector-curvature="0"
               id="path4111"
               style="fill:#028676;fill-opacity:1;fill-rule:nonzero;stroke:none"
               d="m 0,0 h 22.456 v 0.181 c -2.112,1.086 -3.44,2.444 -3.984,4.074 -0.543,1.631 -0.815,3.894 -0.815,6.792 V 61.904 H 0 V 61.723 C 2.113,60.637 3.441,59.278 3.984,57.648 4.527,56.019 4.799,53.756 4.799,50.857 V 11.047 C 4.799,8.149 4.527,5.886 3.984,4.255 3.441,2.625 2.113,1.267 0,0.181 Z" />
          </g>
          <g
             transform="translate(187.0759,62.4241)"
             id="g4113">
            <path
               inkscape:connector-curvature="0"
               id="path4115"
               style="fill:#028676;fill-opacity:1;fill-rule:nonzero;stroke:none"
               d="m 0,0 v 0.18 c -4.625,1.922 -7.538,3.889 -8.739,5.901 -1.201,2.012 -1.802,5 -1.802,8.965 v 28.74 h 7.929 v 1.261 h -7.929 v 15.137 h -0.18 c -2.163,-4.205 -4.91,-7.78 -8.244,-10.722 -3.333,-2.943 -6.501,-4.475 -9.505,-4.596 v -1.08 h 5.136 v -27.209 -0.27 c 0,-3.424 0.135,-5.902 0.405,-7.433 0.27,-1.531 1.096,-3.198 2.478,-5 C -19.07,2.071 -16.728,0.9 -13.424,0.359 -10.12,-0.181 -5.646,-0.301 0,0" />
          </g>
          <g
             transform="translate(252.7302,35.2278)"
             id="g4117">
            <path
               inkscape:connector-curvature="0"
               id="path4119"
               style="fill:#028676;fill-opacity:1;fill-rule:nonzero;stroke:none"
               d="m 0,0 c -0.604,4.347 -2.098,7.35 -4.483,9.01 -2.384,1.66 -5.478,2.49 -9.282,2.49 h -21.006 v -0.181 c 2.113,-1.087 3.441,-2.445 3.984,-4.075 0.543,-1.63 0.815,-3.893 0.815,-6.791 v -23.181 c 0,-2.897 -0.272,-5.161 -0.815,-6.792 -0.543,-1.628 -1.871,-2.987 -3.984,-4.074 v -0.18 h 22.457 v 0.18 c -2.114,1.087 -3.442,2.446 -3.985,4.074 -0.544,1.631 -0.815,3.895 -0.815,6.792 v 33.142 h 0.18 c 2.114,0 3.713,-1.586 4.8,-4.755 1.086,-3.169 1.509,-7.048 1.268,-11.635 z m -29.712,11.65 h 0.181" />
          </g>
          <g
             transform="translate(293.4675,12.4134)"
             id="g4121">
            <path
               inkscape:connector-curvature="0"
               id="path4123"
               style="fill:#028676;fill-opacity:1;fill-rule:nonzero;stroke:none"
               d="m 0,0 v 34.229 h -16.843 v -0.183 c 1.691,-0.965 2.778,-2.293 3.26,-3.984 0.483,-1.69 0.725,-3.984 0.725,-6.881 V -5.07 c -2.113,-1.389 -4.256,-2.083 -6.429,-2.083 -2.776,0 -4.166,1.751 -4.166,5.252 v 36.13 H -41.11 v -0.183 c 2.113,-1.086 3.441,-2.443 3.984,-4.074 0.544,-1.63 0.815,-3.894 0.815,-6.791 V -4.074 c 0,-2.234 0.634,-4.045 1.902,-5.434 1.267,-1.388 3.35,-2.082 6.248,-2.082 4.467,0 9.568,1.721 15.303,5.161 v -4.618 H 4.799 v 0.181 C 2.746,-9.779 1.434,-8.421 0.86,-6.791 0.286,-5.161 0,-2.897 0,0" />
          </g>
          <g
             transform="translate(318.4421,0.3304)"
             id="g4125">
            <path
               inkscape:connector-curvature="0"
               id="path4127"
               style="fill:#028676;fill-opacity:1;fill-rule:nonzero;stroke:none"
               d="m 0,0 c 4.528,0 8.437,1.177 11.727,3.531 3.29,2.355 4.934,5.976 4.934,10.865 0,4.106 -1.253,7.321 -3.757,9.644 -2.506,2.324 -6.294,4.332 -11.364,6.022 -2.415,0.845 -4.166,1.479 -5.252,1.902 -1.087,0.422 -2.354,0.995 -3.804,1.72 -1.448,0.724 -2.444,1.494 -2.987,2.309 -0.544,0.815 -0.815,1.736 -0.815,2.762 0,2.052 0.815,3.758 2.444,5.116 1.631,1.358 3.592,2.037 5.887,2.037 3.44,0 6.428,-1.312 8.964,-3.938 2.536,-2.626 5.282,-6.747 8.24,-12.361 h 0.18 l -0.724,14.85 c -6.64,1.751 -11.771,2.626 -15.393,2.626 -4.648,0 -8.633,-1.191 -11.953,-3.576 -3.319,-2.385 -4.98,-5.901 -4.98,-10.55 0,-3.38 0.966,-6.157 2.898,-8.33 1.932,-2.173 5.493,-4.165 10.685,-5.976 1.931,-0.665 3.259,-1.132 3.984,-1.403 0.725,-0.272 1.826,-0.695 3.305,-1.269 1.479,-0.573 2.52,-1.056 3.124,-1.448 0.603,-0.392 1.298,-0.906 2.082,-1.54 C 8.21,12.359 8.738,11.711 9.01,11.047 9.281,10.383 9.418,9.658 9.418,8.874 9.418,6.218 8.588,4.271 6.928,3.033 5.267,1.796 3.261,1.177 0.906,1.177 c -1.992,0 -3.924,0.498 -5.796,1.494 -1.871,0.996 -3.41,2.112 -4.617,3.35 -1.208,1.238 -2.475,2.943 -3.804,5.117 -1.328,2.173 -2.278,3.817 -2.851,4.934 -0.574,1.116 -1.314,2.701 -2.219,4.754 h -0.091 L -17.385,2.534 C -9.114,0.845 -3.319,0 0,0" />
          </g>
          <g
             transform="translate(364.1667,1.3265)"
             id="g4129">
            <path
               inkscape:connector-curvature="0"
               id="path4131"
               style="fill:#028676;fill-opacity:1;fill-rule:nonzero;stroke:none"
               d="m 0,0 v 0.181 c -4.647,1.931 -7.576,3.909 -8.783,5.93 -1.207,2.023 -1.812,5.027 -1.812,9.01 v 28.885 h 7.969 v 1.268 h -7.969 v 15.213 h -0.18 c -2.173,-4.226 -4.935,-7.818 -8.286,-10.776 -3.35,-2.958 -6.535,-4.497 -9.553,-4.617 v -1.088 h 5.162 V 16.66 16.39 c 0,-3.442 0.136,-5.932 0.407,-7.471 0.273,-1.54 1.102,-3.215 2.49,-5.026 1.389,-1.811 3.743,-2.988 7.064,-3.532 C -10.172,-0.182 -5.675,-0.302 0,0" />
          </g>
          <g
             transform="translate(155.4318,73.2972)"
             id="g4133">
            <path
               inkscape:connector-curvature="0"
               id="path4135"
               style="fill:#028676;fill-opacity:1;fill-rule:nonzero;stroke:none"
               d="m 0,0 v 27.255 c 0,2.233 -0.649,4.045 -1.947,5.433 -1.297,1.388 -3.365,2.083 -6.202,2.083 -4.649,0 -9.779,-1.75 -15.394,-5.252 v 4.709 H -41.2 v -0.181 c 2.113,-1.088 3.441,-2.445 3.984,-4.075 0.543,-1.63 0.815,-3.894 0.815,-6.792 V 0 c 0,-2.898 -0.272,-5.161 -0.815,-6.792 -0.543,-1.629 -1.871,-2.987 -3.984,-4.074 v -0.181 h 21.641 v 0.181 c -1.69,0.966 -2.776,2.294 -3.259,3.984 -0.483,1.691 -0.725,3.984 -0.725,6.882 v 28.251 c 2.173,1.389 4.377,2.083 6.61,2.083 2.717,0 4.076,-1.872 4.076,-5.614 V 0 c 0,-2.777 -0.272,-5.041 -0.816,-6.792 -0.543,-1.75 -1.629,-3.108 -3.26,-4.074 v -0.181 H 4.799 v 0.181 C 2.687,-9.779 1.358,-8.421 0.815,-6.792 0.272,-5.161 0,-2.898 0,0" />
          </g>
          <g
             transform="translate(220.2077,128.7376)"
             id="g4137">
            <path
               inkscape:connector-curvature="0"
               id="path4139"
               style="fill:#028676;fill-opacity:1;fill-rule:nonzero;stroke:none"
               d="m 0,0 v 0.181 c -4.647,1.932 -7.576,3.909 -8.783,5.931 -1.207,2.022 -1.812,5.026 -1.812,9.01 v 28.885 h 7.969 v 1.268 h -7.969 v 15.212 h -0.18 c -2.173,-4.226 -4.935,-7.818 -8.286,-10.776 -3.35,-2.957 -6.535,-4.497 -9.552,-4.617 v -1.087 h 5.161 V 16.661 16.39 c 0,-3.441 0.136,-5.932 0.407,-7.471 0.272,-1.539 1.102,-3.214 2.49,-5.025 1.389,-1.811 3.743,-2.989 7.064,-3.532 C -10.172,-0.181 -5.675,-0.302 0,0" />
          </g>
          <g
             transform="translate(230.4841,178.9021)"
             id="g4141">
            <path
               inkscape:connector-curvature="0"
               id="path4143"
               style="fill:#028676;fill-opacity:1;fill-rule:nonzero;stroke:none"
               d="m 0,0 c 1.991,0 3.697,0.679 5.115,2.038 1.419,1.357 2.128,3.003 2.128,4.934 0,1.872 -0.709,3.486 -2.128,4.844 -1.418,1.358 -3.124,2.038 -5.115,2.038 -1.992,0 -3.698,-0.68 -5.116,-2.038 -1.419,-1.358 -2.128,-2.972 -2.128,-4.844 0,-1.931 0.709,-3.577 2.128,-4.934 C -3.698,0.679 -1.992,0 0,0 M -10.866,-50.165 H 11.59 v 0.181 c -2.113,1.088 -3.441,2.445 -3.985,4.075 -0.543,1.63 -0.814,3.894 -0.814,6.792 V -4.89 h -17.657 v -0.181 c 2.113,-1.086 3.441,-2.445 3.984,-4.075 0.543,-1.63 0.815,-3.893 0.815,-6.791 v -23.18 c 0,-2.898 -0.272,-5.162 -0.815,-6.792 -0.543,-1.63 -1.871,-2.987 -3.984,-4.075 z" />
          </g>
          <g
             transform="translate(209.1823,63.0403)"
             id="g4145">
            <path
               inkscape:connector-curvature="0"
               id="path4147"
               style="fill:#028676;fill-opacity:1;fill-rule:nonzero;stroke:none"
               d="m 0,0 v -0.174 c 3.288,-0.807 6.114,-2.408 8.479,-4.802 2.366,-2.393 4.158,-5.373 6.289,-10.09 h 0.303 L 14.007,0 Z" />
          </g>
        </g>
      </g>
    </g>
  </g>
</svg>
