<?xml version="1.0" encoding="UTF-8" standalone="no"?>
<!DOCTYPE svg PUBLIC "-//W3C//DTD SVG 1.1//EN" "http://www.w3.org/Graphics/SVG/1.1/DTD/svg11.dtd">
<svg width="100%" height="100%" viewBox="0 0 1434 442" version="1.1" xmlns="http://www.w3.org/2000/svg" xmlns:xlink="http://www.w3.org/1999/xlink" xml:space="preserve" xmlns:serif="http://www.serif.com/" style="fill-rule:evenodd;clip-rule:evenodd;stroke-linejoin:round;stroke-miterlimit:1.41421;">
    <g transform="matrix(4.16667,0,0,4.16667,0,-313.804)">
        <path d="M41.835,76.083L41.835,76.165C43.773,77.031 44.928,78.927 44.928,81.112L44.928,93.316L30.415,76.083L21.469,76.083L21.469,76.165C23.366,77.031 24.561,78.927 24.561,81.112L24.561,99.912C24.561,102.097 23.366,103.994 21.469,104.859L21.469,104.942L29.467,104.942L29.467,104.859C27.571,103.994 26.375,102.097 26.375,99.912L26.375,81.483L46.577,105.519L46.701,105.519L46.701,81.112C46.701,78.927 47.896,77.031 49.792,76.165L49.792,76.083L41.835,76.083ZM66.325,99.912L66.325,88.863C66.325,86.266 64.964,84.04 60.883,84.04C58.45,84.04 56.059,84.411 54.204,84.74L50.782,89.317L50.865,89.399C53.379,87.75 56.389,85.524 58.286,85.524C59.852,85.524 60.594,86.719 60.594,88.121C60.594,90.347 58.863,91.46 55.317,93.522C51.73,95.542 49.916,96.903 49.916,100.077C49.916,102.262 51.483,105.148 55.152,105.148C57.172,105.148 59.275,103.705 60.553,102.633L60.553,104.942L68.51,104.942L68.51,104.859C66.407,103.747 66.325,102.097 66.325,99.912M58.244,102.427C56.843,102.427 55.441,100.902 55.441,98.758C55.441,95.542 56.513,94.759 60.553,91.502L60.553,99.417C60.553,101.397 59.605,102.427 58.244,102.427M81.208,104.942L81.208,104.859C76.879,102.757 76.384,101.273 76.384,98.057L76.384,85.73L80.013,85.73L80.013,84.328L76.384,84.328L76.384,77.402L76.302,77.402C74.323,81.236 71.107,84.081 68.18,84.452L68.18,85.73L70.53,85.73L70.53,97.356C70.53,102.386 70.448,105.478 81.208,104.942M86.073,82.102C87.887,82.102 89.371,80.7 89.371,78.927C89.371,77.196 87.887,75.794 86.073,75.794C84.258,75.794 82.774,77.196 82.774,78.927C82.774,80.7 84.258,82.102 86.073,82.102M81.126,104.942L91.35,104.942L91.35,104.859C89.247,103.747 89.165,102.097 89.165,99.912L89.165,84.328L81.126,84.328L81.126,84.411C83.228,85.524 83.31,87.173 83.31,89.358L83.31,99.912C83.31,102.097 83.228,103.747 81.126,104.859L81.126,104.942ZM103.965,84.328L103.965,84.411C106.191,85.153 106.109,86.678 105.285,88.987L102.316,96.82L99.183,88.74C98.358,86.596 98.235,85.235 100.584,84.411L100.584,84.328L90.731,84.328L90.731,84.411C91.597,85.07 92.586,87.296 93.452,89.358L99.925,104.942L100.584,104.942L106.645,89.399C107.758,86.554 108.418,85.07 109.119,84.411L109.119,84.328L103.965,84.328ZM120.333,100.696C117.653,100.696 114.602,98.799 114.19,93.522L126.229,93.522C126.022,87.296 122.436,83.957 118.23,83.957C113.86,83.957 108.707,87.502 108.707,94.676C108.707,101.974 113.448,105.313 117.694,105.313C122.064,105.313 124.868,101.437 125.898,98.098L125.816,98.057C124.125,99.706 122.064,100.696 120.333,100.696M117.406,85.111C119.096,85.111 120.498,87.956 120.786,92.12L114.148,92.12C114.19,87.255 116.045,85.111 117.406,85.111M149.109,76.083L134.721,76.083L134.721,76.165C136.617,77.031 137.813,78.927 137.813,81.112L137.813,99.912C137.813,102.097 136.617,103.994 134.721,104.859L134.721,104.942L147.336,104.942L147.336,104.859C145.44,103.994 144.286,102.097 144.286,99.912L144.286,91.46C145.192,91.584 146.347,91.667 147.625,91.667C154.716,91.667 157.891,88.451 157.891,83.916C157.891,78.721 153.521,76.083 149.109,76.083M146.059,90.1C145.44,90.1 144.863,90.059 144.286,89.977L144.286,77.443L144.574,77.443C148.367,77.443 151.17,80.329 151.17,84.328C151.17,88.575 148.985,90.1 146.059,90.1M158.385,104.942L168.61,104.942L168.61,104.859C166.507,103.747 166.424,102.097 166.424,99.912L166.424,76.083L158.385,76.083L158.385,76.165C160.488,77.278 160.57,78.927 160.57,81.112L160.57,99.912C160.57,102.097 160.488,103.747 158.385,104.859L158.385,104.942ZM185.842,99.912L185.842,88.863C185.842,86.266 184.482,84.04 180.401,84.04C177.968,84.04 175.577,84.411 173.722,84.74L170.3,89.317L170.382,89.399C172.897,87.75 175.907,85.524 177.803,85.524C179.37,85.524 180.112,86.719 180.112,88.121C180.112,90.347 178.38,91.46 174.834,93.522C171.249,95.542 169.434,96.903 169.434,100.077C169.434,102.262 171,105.148 174.67,105.148C176.69,105.148 178.792,103.705 180.071,102.633L180.071,104.942L188.028,104.942L188.028,104.859C185.925,103.747 185.842,102.097 185.842,99.912M177.762,102.427C176.36,102.427 174.958,100.902 174.958,98.758C174.958,95.542 176.031,94.759 180.071,91.502L180.071,99.417C180.071,101.397 179.123,102.427 177.762,102.427M207.075,99.912L207.075,87.502C207.075,85.688 206.126,84.081 203.364,84.081C200.725,84.081 198.004,85.441 196.355,86.472L196.355,84.328L188.316,84.328L188.316,84.411C190.418,85.524 190.5,87.173 190.5,89.358L190.5,99.912C190.5,102.097 190.418,103.747 188.316,104.859L188.316,104.942L198.169,104.942L198.169,104.859C196.479,103.87 196.355,102.097 196.355,99.912L196.355,87.792C197.633,86.884 198.623,86.596 199.365,86.596C200.725,86.596 201.22,87.874 201.22,89.193L201.22,99.912C201.22,102.097 201.014,103.87 199.365,104.859L199.365,104.942L209.259,104.942L209.259,104.859C207.157,103.747 207.075,102.097 207.075,99.912M222.288,104.942L222.288,104.859C217.958,102.757 217.463,101.273 217.463,98.057L217.463,85.73L221.092,85.73L221.092,84.328L217.463,84.328L217.463,77.402L217.382,77.402C215.403,81.236 212.187,84.081 209.259,84.452L209.259,85.73L211.61,85.73L211.61,97.356C211.61,102.386 211.528,105.478 222.288,104.942M234.78,104.942L247.395,104.942L247.395,104.859C245.499,103.994 244.344,102.097 244.344,99.912L244.344,77.608L246.859,77.608C250.158,77.608 252.095,79.381 253.992,83.586L254.074,83.586L253.374,76.083L228.801,76.083L228.142,83.586L228.224,83.586C230.121,79.381 232.058,77.608 235.316,77.608L237.872,77.608L237.872,99.912C237.872,102.097 236.676,103.994 234.78,104.859L234.78,104.942ZM265.454,89.564C264.835,85.317 262.279,84.328 259.187,84.328L249.622,84.328L249.622,84.411C251.724,85.524 251.807,87.173 251.807,89.358L251.807,99.912C251.807,102.097 251.724,103.747 249.622,104.859L249.622,104.942L259.846,104.942L259.846,104.859C257.744,103.747 257.662,102.097 257.662,99.912L257.662,85.482L257.744,85.482C259.723,85.482 260.671,88.492 260.506,92.285L265.454,89.564ZM284.253,99.912L284.253,84.328L276.584,84.328L276.584,84.411C278.275,85.4 278.399,87.173 278.399,89.358L278.399,101.479C277.163,102.303 276.172,102.551 275.43,102.551C274.07,102.551 273.576,101.479 273.576,100.16L273.576,84.328L265.536,84.328L265.536,84.411C267.638,85.524 267.721,87.173 267.721,89.358L267.721,101.768C267.721,103.582 268.628,105.189 271.431,105.189C273.988,105.189 276.75,103.829 278.399,102.839L278.399,104.942L286.438,104.942L286.438,104.859C284.377,103.747 284.253,102.097 284.253,99.912M296.292,105.396C299.836,105.396 303.877,103.705 303.877,98.84C303.877,94.841 301.156,93.11 296.992,91.708C293.612,90.554 291.55,89.894 291.55,88.08C291.55,86.472 293.076,85.4 294.931,85.4C298.064,85.4 300.332,87.833 302.764,91.914L302.846,91.914L302.517,85.153C300.167,84.534 297.693,83.957 295.508,83.957C291.715,83.957 287.798,85.854 287.798,90.389C287.798,93.316 289.077,95.171 293.983,96.861C297.693,98.14 300.167,98.964 300.167,100.984C300.167,103.045 298.559,103.911 296.704,103.911C292.044,103.911 289.324,98.675 287.922,95.913L287.88,95.913L288.375,104.241C290.396,104.653 293.406,105.396 296.292,105.396M317.77,104.942L317.77,104.859C313.442,102.757 312.947,101.273 312.947,98.057L312.947,85.73L316.575,85.73L316.575,84.328L312.947,84.328L312.947,77.402L312.865,77.402C310.885,81.236 307.669,84.081 304.743,84.452L304.743,85.73L307.092,85.73L307.092,97.356C307.092,102.386 307.01,105.478 317.77,104.942" style="fill:rgb(29,43,47);fill-rule:nonzero;"/>
    </g>
    <g transform="matrix(4.16667,0,0,4.16667,0,192.671)">
        <path d="M17.086,28.647L35.618,28.647L35.618,39.443C35.618,56.104 25.247,59.759 18.021,59.759C10.796,59.759 0,56.784 0,39.358L0,19.721C0,3.995 10.116,0 18.021,0C24.227,0 35.873,2.635 35.618,20.826L22.697,20.571C22.782,14.791 20.657,13.601 18.192,13.601C15.981,13.601 13.601,14.876 13.601,19.041L13.601,40.718C13.601,44.798 15.727,46.328 18.277,46.328C20.657,46.328 22.697,45.053 22.697,41.483L22.697,40.293L17.086,40.293L17.086,28.647" style="fill:rgb(249,247,233);fill-rule:nonzero;"/>
    </g>
    <g transform="matrix(4.16667,0,0,4.16667,0,192.671)">
        <path d="M64.517,19.296C64.517,15.471 62.477,13.941 60.011,13.941C57.546,13.941 55.506,15.471 55.506,19.296L55.506,40.633C55.506,44.373 57.546,45.903 60.011,45.903C62.477,45.903 64.517,44.373 64.517,40.633L64.517,19.296ZM41.905,18.956C41.905,5.61 50.661,0 60.011,0C69.362,0 78.118,5.61 78.118,18.871L78.118,40.803C78.118,54.404 69.362,59.759 60.011,59.759C50.661,59.759 41.905,54.659 41.905,40.888L41.905,18.956" style="fill:rgb(247,247,237);fill-rule:nonzero;"/>
    </g>
    <g transform="matrix(4.16667,0,0,4.16667,0,192.671)">
        <path d="M116.026,35.193L116.026,45.648L118.661,45.648C121.721,45.648 123.336,43.523 123.336,40.548C123.336,37.318 121.721,35.193 118.406,35.193L116.026,35.193ZM116.026,24.056L117.811,24.056C121.211,24.056 122.741,22.186 122.741,19.126C122.741,15.981 121.296,14.281 118.236,14.281L116.026,14.281L116.026,24.056ZM102.51,58.059L102.51,1.7L118.831,1.7C130.817,1.7 135.917,8.756 135.917,16.151C135.917,23.462 131.242,27.542 128.606,28.902L128.606,29.327C133.367,30.857 136.937,36.128 136.937,41.993C136.937,51.259 131.582,58.059 120.021,58.059L102.51,58.059" style="fill:rgb(247,247,237);fill-rule:nonzero;"/>
    </g>
    <g transform="matrix(4.16667,0,0,4.16667,0,192.671)">
        <path d="M164.816,19.296C164.816,15.471 162.776,13.941 160.311,13.941C157.845,13.941 155.805,15.471 155.805,19.296L155.805,40.633C155.805,44.373 157.845,45.903 160.311,45.903C162.776,45.903 164.816,44.373 164.816,40.633L164.816,19.296ZM142.205,18.956C142.205,5.61 150.96,0 160.311,0C169.662,0 178.417,5.61 178.417,18.871L178.417,40.803C178.417,54.404 169.662,59.759 160.311,59.759C150.96,59.759 142.205,54.659 142.205,40.888L142.205,18.956" style="fill:rgb(247,247,237);fill-rule:nonzero;"/>
    </g>
    <g transform="matrix(4.16667,0,0,4.16667,0,192.671)">
        <path d="M182.411,1.7L215.563,1.7L215.563,14.876L205.958,14.876L205.958,58.059L192.356,58.059L192.356,14.876L182.411,14.876L182.411,1.7" style="fill:rgb(247,247,237);fill-rule:nonzero;"/>
    </g>
    <g transform="matrix(4.16667,0,0,4.16667,0,192.671)">
        <path d="M234.858,18.701L231.967,35.787L238.172,35.787L235.368,18.701L234.858,18.701ZM227.462,1.7L243.273,1.7L256.194,58.059L242.253,58.059L240.298,47.603L229.672,47.603L227.717,58.059L214.201,58.059L227.462,1.7" style="fill:rgb(247,247,237);fill-rule:nonzero;"/>
    </g>
    <g transform="matrix(4.16667,0,0,4.16667,0,192.671)">
        <path d="M273.958,28.987L273.447,28.987L273.447,58.059L260.781,58.059L260.781,1.7L275.147,1.7L285.263,27.967L285.773,27.967L285.773,1.7L298.354,1.7L298.354,58.059L284.583,58.059L273.958,28.987" style="fill:rgb(247,247,237);fill-rule:nonzero;"/>
    </g>
    <g transform="matrix(4.16667,0,0,4.16667,0,192.671)">
        <path d="M329.802,36.637L329.802,58.059L316.201,58.059L316.201,36.637L302.77,1.7L317.051,1.7L323.086,20.571L323.597,20.571L329.632,1.7L343.404,1.7L329.802,36.637" style="fill:rgb(247,247,237);fill-rule:nonzero;"/>
    </g>
</svg>
