<?xml version="1.0" encoding="UTF-8" standalone="no"?>
<!-- Generator: Adobe Illustrator 12.0.1, SVG Export Plug-In . SVG Version: 6.00 Build 51448)  -->

<svg
   xmlns:dc="http://purl.org/dc/elements/1.1/"
   xmlns:cc="http://creativecommons.org/ns#"
   xmlns:rdf="http://www.w3.org/1999/02/22-rdf-syntax-ns#"
   xmlns:svg="http://www.w3.org/2000/svg"
   xmlns="http://www.w3.org/2000/svg"
   xmlns:sodipodi="http://sodipodi.sourceforge.net/DTD/sodipodi-0.dtd"
   xmlns:inkscape="http://www.inkscape.org/namespaces/inkscape"
   version="1.1"
   id="Layer_1"
   width="46.044998"
   height="87.088997"
   viewBox="0 0 46.045 87.088999"
   overflow="visible"
   enable-background="new 0 0 563.217 185.12"
   xml:space="preserve"
   inkscape:version="0.48.0 r9654"
   sodipodi:docname="screen-smartphone.svg"
   style="overflow:visible"><metadata
   id="metadata29"><rdf:RDF><cc:Work
       rdf:about=""><dc:format>image/svg+xml</dc:format><dc:type
         rdf:resource="http://purl.org/dc/dcmitype/StillImage" /><dc:title></dc:title></cc:Work></rdf:RDF></metadata><defs
   id="defs27" /><sodipodi:namedview
   pagecolor="#ffffff"
   bordercolor="#666666"
   borderopacity="1"
   objecttolerance="10"
   gridtolerance="10"
   guidetolerance="10"
   inkscape:pageopacity="0"
   inkscape:pageshadow="2"
   inkscape:window-width="960"
   inkscape:window-height="630"
   id="namedview25"
   showgrid="false"
   inkscape:zoom="1.2593521"
   inkscape:cx="-235.56349"
   inkscape:cy="90.059997"
   inkscape:window-x="0"
   inkscape:window-y="0"
   inkscape:window-maximized="0"
   inkscape:current-layer="Layer_1"
   fit-margin-top="0"
   fit-margin-left="0"
   fit-margin-right="0"
   fit-margin-bottom="0" />


<g
   id="g13"
   transform="translate(-517.172,-95.531001)">
	<g
   id="g15">
		<rect
   x="519.672"
   y="98.030998"
   width="41.044998"
   height="82.088997"
   id="rect17"
   style="fill:none" />
		<path
   d="m 560.717,177.62 c -13.682,0 -27.363,0 -41.045,0 0.833,0.833 1.667,1.667 2.5,2.5 0,-27.363 0,-54.726 0,-82.089 -0.833,0.833 -1.667,1.667 -2.5,2.5 13.682,0 27.363,0 41.045,0 -0.833,-0.833 -1.667,-1.667 -2.5,-2.5 0,27.363 0,54.726 0,82.089 0,3.224 5,3.224 5,0 0,-27.363 0,-54.726 0,-82.089 0,-1.363 -1.137,-2.5 -2.5,-2.5 -13.682,0 -27.363,0 -41.045,0 -1.363,0 -2.5,1.137 -2.5,2.5 0,27.363 0,54.726 0,82.089 0,1.363 1.137,2.5 2.5,2.5 13.682,0 27.363,0 41.045,0 3.224,0 3.224,-5 0,-5 z"
   id="path19"
   inkscape:connector-curvature="0" />
	</g>
</g>
<rect
   x="3.7369967"
   y="73.159996"
   width="39.807999"
   height="10.943"
   id="rect21"
   style="stroke:#000000" />
<rect
   x="2.9009981"
   y="1.8019993"
   width="39.807999"
   height="10.942"
   id="rect23"
   style="stroke:#000000" />
</svg>
