<?xml version="1.0" encoding="UTF-8" standalone="no"?>
<!-- Generator: Adobe Illustrator 12.0.1, SVG Export Plug-In . SVG Version: 6.00 Build 51448)  -->

<svg
   xmlns:dc="http://purl.org/dc/elements/1.1/"
   xmlns:cc="http://creativecommons.org/ns#"
   xmlns:rdf="http://www.w3.org/1999/02/22-rdf-syntax-ns#"
   xmlns:svg="http://www.w3.org/2000/svg"
   xmlns="http://www.w3.org/2000/svg"
   xmlns:sodipodi="http://sodipodi.sourceforge.net/DTD/sodipodi-0.dtd"
   xmlns:inkscape="http://www.inkscape.org/namespaces/inkscape"
   version="1.1"
   id="Layer_1"
   width="112.98599"
   height="148.806"
   viewBox="0 0 112.986 148.806"
   overflow="visible"
   enable-background="new 0 0 563.217 185.12"
   xml:space="preserve"
   inkscape:version="0.48.0 r9654"
   sodipodi:docname="screen-tablet.svg"
   style="overflow:visible"><metadata
   id="metadata29"><rdf:RDF><cc:Work
       rdf:about=""><dc:format>image/svg+xml</dc:format><dc:type
         rdf:resource="http://purl.org/dc/dcmitype/StillImage" /><dc:title /></cc:Work></rdf:RDF></metadata><defs
   id="defs27" /><sodipodi:namedview
   pagecolor="#ffffff"
   bordercolor="#666666"
   borderopacity="1"
   objecttolerance="10"
   gridtolerance="10"
   guidetolerance="10"
   inkscape:pageopacity="0"
   inkscape:pageshadow="2"
   inkscape:window-width="960"
   inkscape:window-height="630"
   id="namedview25"
   showgrid="false"
   inkscape:zoom="1.2593521"
   inkscape:cx="-50.003498"
   inkscape:cy="92.559997"
   inkscape:window-x="199"
   inkscape:window-y="33"
   inkscape:window-maximized="0"
   inkscape:current-layer="Layer_1"
   fit-margin-top="0"
   fit-margin-left="0"
   fit-margin-right="0"
   fit-margin-bottom="0" />

<g
   id="g5"
   transform="translate(-331.612,-36.314001)">
	<g
   id="g7">
		<rect
   x="336.61099"
   y="41.313999"
   width="102.986"
   height="138.806"
   id="rect9"
   style="fill:none" />
		<path
   d="m 439.598,175.12 c -34.329,0 -68.657,0 -102.986,0 1.667,1.667 3.333,3.333 5,5 0,-46.019 0,-92.037 0,-138.056 0,-0.25 0,-0.5 0,-0.75 -1.667,1.667 -3.333,3.333 -5,5 34.329,0 68.657,0 102.986,0 -1.667,-1.667 -3.333,-3.333 -5,-5 0,46.019 0,92.037 0,138.056 0,0.25 0,0.5 0,0.75 0,6.449 10,6.449 10,0 0,-46.019 0,-92.037 0,-138.056 0,-0.25 0,-0.5 0,-0.75 0,-2.726 -2.274,-5 -5,-5 -34.329,0 -68.657,0 -102.986,0 -2.726,0 -5,2.274 -5,5 0,46.019 0,92.037 0,138.056 0,0.25 0,0.5 0,0.75 0,2.726 2.274,5 5,5 34.329,0 68.657,0 102.986,0 6.448,0 6.448,-10 0,-10 z"
   id="path11"
   inkscape:connector-curvature="0" />
	</g>
</g>



</svg>